<?xml version="1.0" encoding="UTF-8"?>
<svg xmlns="http://www.w3.org/2000/svg" xmlns:xlink="http://www.w3.org/1999/xlink" width="px" height="px" viewBox="0 0 18 18" version="1.1">
<g id="surface1">
<path style=" stroke:none;fill-rule:nonzero;fill:rgb(100%,100%,100%);fill-opacity:1;" d="M 2.472656 12.488281 C 2.519531 12.546875 2.539062 12.621094 2.527344 12.695312 C 2.515625 12.769531 2.476562 12.835938 2.417969 12.882812 C 2.359375 12.925781 2.285156 12.945312 2.210938 12.933594 C 2.136719 12.925781 2.070312 12.886719 2.023438 12.824219 C 1.964844 12.746094 1.910156 12.667969 1.855469 12.589844 C 1.8125 12.527344 1.792969 12.453125 1.808594 12.378906 C 1.820312 12.308594 1.863281 12.242188 1.921875 12.199219 C 1.984375 12.15625 2.058594 12.140625 2.132812 12.152344 C 2.207031 12.164062 2.273438 12.207031 2.316406 12.265625 C 2.367188 12.339844 2.421875 12.414062 2.472656 12.488281 Z M 1.136719 9.773438 C 1.089844 9.59375 1.046875 9.414062 1.007812 9.234375 C 1 9.199219 0.988281 9.164062 0.964844 9.132812 C 0.945312 9.101562 0.917969 9.074219 0.886719 9.054688 C 0.855469 9.035156 0.824219 9.019531 0.785156 9.011719 C 0.75 9.007812 0.714844 9.007812 0.675781 9.015625 C 0.640625 9.023438 0.605469 9.035156 0.574219 9.054688 C 0.546875 9.078125 0.519531 9.105469 0.5 9.132812 C 0.476562 9.164062 0.464844 9.199219 0.457031 9.234375 C 0.449219 9.273438 0.449219 9.308594 0.457031 9.347656 C 0.496094 9.539062 0.542969 9.734375 0.597656 9.921875 C 0.605469 9.957031 0.621094 9.992188 0.644531 10.023438 C 0.667969 10.050781 0.695312 10.074219 0.726562 10.09375 C 0.757812 10.113281 0.796875 10.125 0.832031 10.128906 C 0.871094 10.136719 0.90625 10.132812 0.941406 10.121094 C 0.980469 10.113281 1.011719 10.09375 1.042969 10.074219 C 1.070312 10.050781 1.09375 10.019531 1.113281 9.988281 C 1.132812 9.957031 1.144531 9.917969 1.148438 9.882812 C 1.152344 9.847656 1.148438 9.808594 1.136719 9.773438 Z M 1.503906 10.816406 C 1.492188 10.785156 1.46875 10.753906 1.445312 10.726562 C 1.417969 10.699219 1.386719 10.679688 1.351562 10.667969 C 1.316406 10.652344 1.28125 10.644531 1.242188 10.644531 C 1.207031 10.648438 1.167969 10.65625 1.136719 10.667969 C 1.101562 10.683594 1.070312 10.707031 1.042969 10.730469 C 1.019531 10.757812 1 10.789062 0.984375 10.824219 C 0.972656 10.859375 0.964844 10.894531 0.964844 10.933594 C 0.964844 10.96875 0.972656 11.007812 0.988281 11.039062 C 1.066406 11.21875 1.152344 11.402344 1.242188 11.578125 C 1.277344 11.640625 1.335938 11.6875 1.40625 11.710938 C 1.476562 11.730469 1.550781 11.726562 1.617188 11.691406 C 1.683594 11.660156 1.734375 11.601562 1.757812 11.53125 C 1.777344 11.460938 1.773438 11.386719 1.742188 11.320312 C 1.65625 11.15625 1.578125 10.988281 1.503906 10.816406 Z M 0.597656 8.433594 C 0.671875 8.429688 0.742188 8.394531 0.792969 8.339844 C 0.839844 8.28125 0.867188 8.210938 0.863281 8.136719 C 0.851562 7.957031 0.84375 7.777344 0.84375 7.578125 C 0.84375 7.542969 0.835938 7.507812 0.820312 7.472656 C 0.808594 7.441406 0.785156 7.410156 0.761719 7.382812 C 0.734375 7.359375 0.703125 7.339844 0.667969 7.324219 C 0.636719 7.3125 0.597656 7.304688 0.5625 7.304688 C 0.488281 7.308594 0.414062 7.339844 0.363281 7.390625 C 0.308594 7.445312 0.28125 7.519531 0.28125 7.59375 C 0.28125 7.785156 0.289062 7.980469 0.300781 8.171875 C 0.304688 8.242188 0.335938 8.308594 0.386719 8.359375 C 0.441406 8.40625 0.507812 8.433594 0.582031 8.433594 C 0.585938 8.433594 0.59375 8.433594 0.597656 8.433594 Z M 0.601562 6.714844 C 0.640625 6.71875 0.675781 6.71875 0.710938 6.707031 C 0.75 6.699219 0.78125 6.683594 0.8125 6.660156 C 0.839844 6.636719 0.867188 6.609375 0.882812 6.578125 C 0.902344 6.546875 0.914062 6.511719 0.917969 6.472656 C 0.945312 6.292969 0.976562 6.109375 1.015625 5.929688 C 1.027344 5.855469 1.011719 5.78125 0.972656 5.71875 C 0.929688 5.65625 0.867188 5.613281 0.792969 5.601562 C 0.722656 5.585938 0.648438 5.597656 0.585938 5.640625 C 0.523438 5.679688 0.480469 5.742188 0.464844 5.8125 C 0.421875 6.007812 0.390625 6.203125 0.363281 6.398438 C 0.351562 6.472656 0.371094 6.546875 0.417969 6.605469 C 0.460938 6.664062 0.527344 6.703125 0.601562 6.714844 Z M 0.953125 5.027344 C 0.988281 5.039062 1.027344 5.046875 1.0625 5.042969 C 1.101562 5.042969 1.136719 5.03125 1.171875 5.015625 C 1.203125 5 1.234375 4.980469 1.257812 4.953125 C 1.28125 4.925781 1.300781 4.890625 1.3125 4.855469 C 1.34375 4.773438 1.375 4.6875 1.410156 4.601562 C 1.433594 4.535156 1.433594 4.457031 1.402344 4.390625 C 1.371094 4.324219 1.316406 4.273438 1.25 4.246094 C 1.179688 4.21875 1.105469 4.21875 1.035156 4.246094 C 0.96875 4.273438 0.914062 4.328125 0.886719 4.398438 C 0.851562 4.488281 0.816406 4.578125 0.785156 4.667969 C 0.757812 4.738281 0.761719 4.816406 0.796875 4.882812 C 0.828125 4.949219 0.882812 5.003906 0.953125 5.027344 Z M 16.6875 4.855469 C 16.699219 4.890625 16.714844 4.925781 16.742188 4.953125 C 16.765625 4.980469 16.796875 5.003906 16.828125 5.019531 C 16.863281 5.039062 16.898438 5.046875 16.9375 5.050781 C 16.972656 5.050781 17.011719 5.046875 17.046875 5.035156 C 17.082031 5.019531 17.113281 5 17.140625 4.976562 C 17.171875 4.953125 17.191406 4.921875 17.207031 4.886719 C 17.222656 4.851562 17.234375 4.816406 17.234375 4.777344 C 17.234375 4.742188 17.230469 4.703125 17.214844 4.667969 C 17.183594 4.578125 17.148438 4.488281 17.113281 4.394531 C 17.085938 4.328125 17.03125 4.269531 16.964844 4.242188 C 16.894531 4.210938 16.820312 4.210938 16.75 4.238281 C 16.679688 4.265625 16.625 4.320312 16.59375 4.386719 C 16.566406 4.457031 16.5625 4.535156 16.589844 4.601562 C 16.625 4.6875 16.65625 4.769531 16.6875 4.855469 Z M 17.4375 7.304688 C 17.363281 7.304688 17.289062 7.335938 17.238281 7.390625 C 17.183594 7.445312 17.15625 7.519531 17.15625 7.59375 C 17.15625 7.773438 17.152344 7.953125 17.140625 8.132812 C 17.132812 8.207031 17.160156 8.277344 17.207031 8.335938 C 17.257812 8.390625 17.328125 8.425781 17.402344 8.429688 C 17.40625 8.429688 17.414062 8.429688 17.421875 8.429688 C 17.492188 8.429688 17.558594 8.402344 17.613281 8.355469 C 17.664062 8.304688 17.695312 8.238281 17.699219 8.167969 C 17.710938 7.976562 17.71875 7.785156 17.71875 7.59375 L 17.71875 7.574219 C 17.71875 7.539062 17.710938 7.503906 17.695312 7.46875 C 17.683594 7.4375 17.660156 7.40625 17.636719 7.378906 C 17.609375 7.355469 17.578125 7.335938 17.542969 7.320312 C 17.511719 7.308594 17.472656 7.300781 17.4375 7.304688 Z M 17.324219 9.011719 C 17.25 8.996094 17.175781 9.011719 17.113281 9.050781 C 17.050781 9.09375 17.007812 9.15625 16.992188 9.230469 C 16.953125 9.414062 16.910156 9.59375 16.863281 9.769531 C 16.851562 9.804688 16.851562 9.839844 16.855469 9.878906 C 16.859375 9.914062 16.871094 9.949219 16.890625 9.984375 C 16.90625 10.015625 16.933594 10.042969 16.960938 10.066406 C 16.988281 10.089844 17.023438 10.105469 17.058594 10.113281 C 17.09375 10.125 17.132812 10.128906 17.167969 10.125 C 17.203125 10.117188 17.242188 10.105469 17.273438 10.089844 C 17.304688 10.070312 17.332031 10.046875 17.355469 10.015625 C 17.378906 9.988281 17.394531 9.953125 17.40625 9.917969 C 17.457031 9.730469 17.503906 9.539062 17.542969 9.34375 C 17.558594 9.269531 17.542969 9.195312 17.503906 9.132812 C 17.460938 9.070312 17.398438 9.027344 17.324219 9.011719 Z M 16.984375 5.925781 C 17.023438 6.105469 17.054688 6.289062 17.078125 6.46875 C 17.089844 6.542969 17.128906 6.609375 17.1875 6.65625 C 17.246094 6.703125 17.324219 6.722656 17.394531 6.710938 C 17.46875 6.699219 17.539062 6.660156 17.582031 6.601562 C 17.628906 6.542969 17.648438 6.46875 17.636719 6.394531 C 17.609375 6.199219 17.578125 6.003906 17.535156 5.808594 C 17.519531 5.738281 17.476562 5.671875 17.414062 5.632812 C 17.351562 5.589844 17.277344 5.574219 17.203125 5.589844 C 17.128906 5.605469 17.066406 5.648438 17.023438 5.710938 C 16.984375 5.773438 16.96875 5.851562 16.984375 5.925781 Z M 16.867188 10.667969 C 16.832031 10.652344 16.796875 10.644531 16.757812 10.644531 C 16.722656 10.644531 16.683594 10.652344 16.648438 10.664062 C 16.617188 10.679688 16.585938 10.699219 16.558594 10.722656 C 16.53125 10.75 16.511719 10.78125 16.496094 10.816406 C 16.421875 10.984375 16.34375 11.152344 16.257812 11.316406 C 16.242188 11.347656 16.230469 11.382812 16.226562 11.421875 C 16.222656 11.460938 16.226562 11.496094 16.238281 11.53125 C 16.25 11.566406 16.265625 11.601562 16.292969 11.628906 C 16.316406 11.660156 16.34375 11.683594 16.378906 11.699219 C 16.410156 11.71875 16.449219 11.726562 16.484375 11.730469 C 16.523438 11.734375 16.558594 11.726562 16.59375 11.714844 C 16.628906 11.703125 16.664062 11.6875 16.691406 11.660156 C 16.71875 11.636719 16.742188 11.605469 16.757812 11.574219 C 16.847656 11.398438 16.933594 11.21875 17.011719 11.035156 C 17.042969 10.96875 17.042969 10.890625 17.015625 10.820312 C 16.988281 10.753906 16.933594 10.695312 16.867188 10.667969 Z M 15.683594 12.269531 C 15.632812 12.339844 15.582031 12.414062 15.527344 12.488281 C 15.503906 12.515625 15.484375 12.550781 15.476562 12.585938 C 15.464844 12.621094 15.464844 12.660156 15.46875 12.699219 C 15.472656 12.734375 15.484375 12.769531 15.503906 12.804688 C 15.523438 12.835938 15.546875 12.863281 15.578125 12.886719 C 15.609375 12.910156 15.640625 12.925781 15.679688 12.933594 C 15.714844 12.945312 15.753906 12.945312 15.789062 12.941406 C 15.828125 12.933594 15.863281 12.921875 15.894531 12.902344 C 15.925781 12.882812 15.953125 12.855469 15.976562 12.824219 C 16.035156 12.75 16.089844 12.671875 16.144531 12.589844 C 16.167969 12.558594 16.183594 12.527344 16.191406 12.488281 C 16.203125 12.453125 16.203125 12.414062 16.195312 12.378906 C 16.191406 12.339844 16.179688 12.304688 16.15625 12.273438 C 16.136719 12.242188 16.113281 12.214844 16.082031 12.191406 C 16.050781 12.171875 16.015625 12.15625 15.980469 12.148438 C 15.941406 12.140625 15.90625 12.140625 15.867188 12.148438 C 15.832031 12.152344 15.796875 12.167969 15.765625 12.1875 C 15.734375 12.210938 15.707031 12.238281 15.683594 12.269531 Z M 15.683594 12.269531 "/>
<path style=" stroke:none;fill-rule:nonzero;fill:rgb(100%,100%,100%);fill-opacity:1;" d="M 16.96875 3.109375 L 9.09375 0.296875 C 9.035156 0.277344 8.964844 0.277344 8.90625 0.296875 L 1.03125 3.109375 C 0.980469 3.128906 0.933594 3.160156 0.902344 3.203125 C 0.871094 3.246094 0.847656 3.296875 0.84375 3.351562 C 0.839844 3.40625 0.851562 3.457031 0.875 3.507812 C 0.902344 3.554688 0.9375 3.59375 0.984375 3.621094 L 4.78125 5.789062 L 4.78125 7.011719 C 3.964844 7.769531 3.367188 8.734375 3.054688 9.800781 C 2.742188 10.871094 2.71875 12.003906 2.996094 13.082031 C 3.273438 14.160156 3.832031 15.144531 4.621094 15.933594 C 5.410156 16.71875 6.394531 17.277344 7.476562 17.550781 C 8.554688 17.824219 9.6875 17.800781 10.757812 17.484375 C 11.824219 17.167969 12.785156 16.570312 13.542969 15.75 C 14.296875 14.933594 14.820312 13.925781 15.050781 12.839844 C 15.285156 11.75 15.21875 10.617188 14.859375 9.5625 L 15.1875 9.5625 C 15.261719 9.5625 15.332031 9.53125 15.386719 9.480469 C 15.4375 9.425781 15.46875 9.355469 15.46875 9.28125 L 15.46875 7.03125 C 15.46875 6.859375 15.414062 6.6875 15.3125 6.546875 C 15.210938 6.40625 15.070312 6.296875 14.90625 6.238281 L 14.90625 4.824219 L 17.015625 3.621094 C 17.0625 3.59375 17.097656 3.554688 17.125 3.507812 C 17.148438 3.457031 17.160156 3.40625 17.15625 3.351562 C 17.152344 3.296875 17.128906 3.246094 17.097656 3.203125 C 17.066406 3.160156 17.019531 3.128906 16.96875 3.109375 Z M 12.65625 6.535156 C 11.59375 5.757812 10.3125 5.34375 9 5.34375 C 7.683594 5.34375 6.402344 5.765625 5.34375 6.542969 L 5.34375 5.699219 C 6.402344 4.921875 7.683594 4.5 9 4.5 C 10.316406 4.5 11.597656 4.921875 12.65625 5.699219 Z M 5.816406 6.898438 C 6.777344 7 7.925781 7.4375 8.097656 8.9375 C 8.246094 10.277344 7.683594 10.726562 7.085938 11.207031 C 6.597656 11.597656 6.09375 12 6.09375 12.84375 C 6.09375 13.554688 5.902344 14.082031 5.539062 14.371094 C 5.355469 14.496094 5.148438 14.578125 4.929688 14.613281 C 4.710938 14.648438 4.488281 14.636719 4.277344 14.574219 C 3.480469 13.347656 3.195312 11.859375 3.484375 10.425781 C 3.773438 8.988281 4.609375 7.726562 5.816406 6.898438 Z M 14.625 11.53125 C 14.625 12.796875 14.195312 14.027344 13.40625 15.019531 C 13.347656 14.96875 13.304688 14.90625 13.269531 14.835938 C 13.238281 14.765625 13.222656 14.691406 13.21875 14.617188 C 13.21875 14.191406 13.21875 13.070312 12.542969 12.613281 C 12.191406 12.375 11.738281 12.363281 11.191406 12.582031 C 10.605469 12.816406 10.136719 12.789062 9.835938 12.503906 C 9.6875 12.34375 9.589844 12.144531 9.546875 11.933594 C 9.503906 11.71875 9.519531 11.496094 9.59375 11.292969 C 9.6875 11.019531 10.15625 10.855469 10.613281 10.695312 C 11.382812 10.421875 12.433594 10.050781 12.09375 8.832031 C 12.019531 8.527344 12.007812 8.210938 12.058594 7.90625 C 12.113281 7.597656 12.226562 7.304688 12.398438 7.042969 C 12.949219 7.464844 13.417969 7.980469 13.78125 8.570312 L 13.78125 9.28125 C 13.78125 9.355469 13.8125 9.425781 13.863281 9.480469 C 13.917969 9.53125 13.988281 9.5625 14.0625 9.5625 L 14.265625 9.5625 C 14.503906 10.191406 14.625 10.859375 14.625 11.53125 Z M 14.90625 9 L 14.34375 9 L 14.34375 7.03125 C 14.34375 6.957031 14.375 6.886719 14.425781 6.832031 C 14.480469 6.78125 14.550781 6.75 14.625 6.75 C 14.699219 6.75 14.769531 6.78125 14.824219 6.832031 C 14.875 6.886719 14.90625 6.957031 14.90625 7.03125 Z M 14.34375 6.238281 C 14.179688 6.296875 14.039062 6.40625 13.9375 6.546875 C 13.835938 6.6875 13.78125 6.859375 13.78125 7.03125 L 13.78125 7.605469 C 13.605469 7.390625 13.417969 7.191406 13.21875 7.003906 L 13.21875 5.789062 L 14.34375 5.144531 Z M 14.34375 6.238281 "/>
</g>
</svg>
