<?xml version="1.0" encoding="UTF-8"?>
<svg xmlns="http://www.w3.org/2000/svg" xmlns:xlink="http://www.w3.org/1999/xlink" width="px" height="px" viewBox="0 0 18 18" version="1.1">
<g id="surface1">
<path style=" stroke:none;fill-rule:nonzero;fill:rgb(100%,100%,100%);fill-opacity:1;" d="M 15.984375 17.128906 L 14.992188 17.128906 L 14.992188 7.925781 L 13.160156 7.800781 L 13.160156 17.128906 L 12.082031 17.128906 L 12.082031 14.605469 C 12.082031 13.695312 11.28125 12.925781 10.328125 12.925781 L 8.859375 12.925781 L 8.347656 12.921875 C 8.289062 12.917969 8.246094 12.871094 8.246094 12.8125 L 8.246094 12.257812 C 8.761719 11.980469 9.195312 11.488281 9.480469 10.867188 C 9.550781 10.886719 9.625 10.902344 9.699219 10.902344 C 10.070312 10.902344 10.375 10.597656 10.375 10.222656 C 10.375 9.925781 10.179688 9.675781 9.914062 9.585938 C 10.105469 9.1875 10.203125 8.75 10.203125 8.308594 C 10.203125 6.691406 8.890625 5.375 7.273438 5.375 C 5.65625 5.375 4.34375 6.691406 4.34375 8.308594 C 4.34375 8.757812 4.441406 9.1875 4.636719 9.589844 C 4.375 9.679688 4.183594 9.929688 4.183594 10.222656 C 4.183594 10.597656 4.488281 10.902344 4.859375 10.902344 C 4.933594 10.902344 5.003906 10.890625 5.066406 10.871094 C 5.351562 11.488281 5.785156 11.980469 6.300781 12.257812 L 6.300781 12.8125 C 6.300781 12.875 6.253906 12.925781 6.1875 12.925781 L 4.144531 12.925781 C 3.21875 12.925781 2.46875 13.675781 2.46875 14.605469 L 2.46875 17.128906 L 1.367188 17.128906 C 1.269531 17.128906 1.191406 17.207031 1.191406 17.304688 C 1.191406 17.402344 1.269531 17.480469 1.367188 17.480469 L 15.984375 17.480469 C 16.078125 17.480469 16.15625 17.402344 16.15625 17.304688 C 16.15625 17.207031 16.078125 17.128906 15.984375 17.128906 Z M 10.621094 15.226562 C 10.71875 15.226562 10.796875 15.304688 10.796875 15.402344 L 10.796875 17.128906 L 10.445312 17.128906 L 10.445312 15.402344 C 10.445312 15.304688 10.523438 15.226562 10.621094 15.226562 Z M 8.011719 13.113281 L 7.214844 13.695312 L 6.527344 13.125 C 6.601562 13.039062 6.652344 12.929688 6.652344 12.8125 L 6.652344 12.40625 C 6.851562 12.472656 7.058594 12.507812 7.273438 12.507812 C 7.488281 12.507812 7.699219 12.472656 7.898438 12.40625 L 7.898438 12.8125 C 7.898438 12.925781 7.941406 13.03125 8.011719 13.113281 Z M 7.214844 14.15625 L 7.574219 14.492188 L 7.457031 14.953125 L 6.96875 14.953125 L 6.875 14.464844 L 7.210938 14.152344 Z M 6.976562 15.304688 L 7.445312 15.304688 L 7.722656 17.121094 L 6.699219 17.121094 Z M 8.378906 13.273438 L 9.054688 13.273438 L 8.152344 14.539062 L 7.484375 13.933594 L 7.484375 13.929688 Z M 5.046875 9.144531 C 5.046875 8.90625 5.070312 8.667969 5.109375 8.433594 C 5.464844 8.398438 6.390625 8.253906 6.863281 7.714844 C 7.175781 8.105469 7.980469 8.839844 9.445312 8.488281 C 9.480469 8.703125 9.5 8.921875 9.5 9.144531 C 9.5 10.804688 8.5 12.160156 7.273438 12.160156 C 6.046875 12.160156 5.046875 10.804688 5.046875 9.144531 Z M 6.160156 13.273438 L 6.945312 13.921875 L 6.566406 14.273438 C 6.558594 14.277344 6.554688 14.28125 6.550781 14.289062 L 6.277344 14.535156 C 6.269531 14.53125 6.265625 14.527344 6.261719 14.523438 L 5.445312 13.277344 Z M 3.753906 15.402344 C 3.753906 15.304688 3.832031 15.226562 3.925781 15.226562 C 4.023438 15.226562 4.101562 15.304688 4.101562 15.402344 L 4.101562 17.128906 L 3.753906 17.128906 Z M 3.753906 15.402344 "/>
<path style=" stroke:none;fill-rule:nonzero;fill:rgb(100%,100%,100%);fill-opacity:1;" d="M 0.636719 17.128906 L 0.355469 17.128906 C 0.257812 17.128906 0.179688 17.207031 0.179688 17.304688 C 0.179688 17.402344 0.257812 17.480469 0.355469 17.480469 L 0.636719 17.480469 C 0.734375 17.480469 0.8125 17.402344 0.8125 17.304688 C 0.8125 17.207031 0.734375 17.128906 0.636719 17.128906 Z M 0.636719 17.128906 "/>
<path style=" stroke:none;fill-rule:nonzero;fill:rgb(100%,100%,100%);fill-opacity:1;" d="M 17.121094 17.128906 L 16.667969 17.128906 C 16.574219 17.128906 16.496094 17.207031 16.496094 17.304688 C 16.496094 17.402344 16.574219 17.480469 16.667969 17.480469 L 17.121094 17.480469 C 17.214844 17.480469 17.292969 17.402344 17.292969 17.304688 C 17.292969 17.207031 17.214844 17.128906 17.121094 17.128906 Z M 17.121094 17.128906 "/>
<path style=" stroke:none;fill-rule:nonzero;fill:rgb(100%,100%,100%);fill-opacity:1;" d="M 6.226562 9.269531 C 6.128906 9.269531 6.050781 9.347656 6.050781 9.441406 L 6.050781 9.789062 C 6.050781 9.886719 6.128906 9.964844 6.226562 9.964844 C 6.320312 9.964844 6.398438 9.886719 6.398438 9.789062 L 6.398438 9.441406 C 6.398438 9.347656 6.320312 9.269531 6.226562 9.269531 Z M 6.226562 9.269531 "/>
<path style=" stroke:none;fill-rule:nonzero;fill:rgb(100%,100%,100%);fill-opacity:1;" d="M 8.324219 9.964844 C 8.417969 9.964844 8.496094 9.886719 8.496094 9.789062 L 8.496094 9.441406 C 8.496094 9.347656 8.417969 9.269531 8.324219 9.269531 C 8.226562 9.269531 8.148438 9.347656 8.148438 9.441406 L 8.148438 9.789062 C 8.148438 9.886719 8.226562 9.964844 8.324219 9.964844 Z M 8.324219 9.964844 "/>
<path style=" stroke:none;fill-rule:nonzero;fill:rgb(100%,100%,100%);fill-opacity:1;" d="M 7.277344 11.191406 C 7.503906 11.191406 7.726562 11.078125 7.9375 10.863281 C 8.003906 10.796875 8.003906 10.683594 7.9375 10.617188 C 7.867188 10.550781 7.757812 10.550781 7.6875 10.621094 C 7.542969 10.765625 7.40625 10.839844 7.277344 10.839844 C 7.144531 10.839844 7.003906 10.765625 6.859375 10.617188 C 6.789062 10.550781 6.679688 10.550781 6.609375 10.617188 C 6.542969 10.6875 6.542969 10.796875 6.609375 10.867188 C 6.824219 11.082031 7.050781 11.191406 7.277344 11.191406 Z M 7.277344 11.191406 "/>
<path style=" stroke:none;fill-rule:nonzero;fill:rgb(100%,100%,100%);fill-opacity:1;" d="M 14.992188 1.4375 C 14.992188 1.183594 14.890625 0.957031 14.722656 0.789062 C 14.558594 0.625 14.328125 0.519531 14.074219 0.519531 C 13.570312 0.519531 13.160156 0.929688 13.160156 1.4375 L 13.160156 1.742188 L 14.992188 1.867188 Z M 14.992188 1.4375 "/>
<path style=" stroke:none;fill-rule:nonzero;fill:rgb(100%,100%,100%);fill-opacity:1;" d="M 13.160156 4.164062 L 13.160156 5.382812 L 14.992188 5.507812 L 14.992188 4.285156 Z M 13.160156 4.164062 "/>
<path style=" stroke:none;fill-rule:nonzero;fill:rgb(100%,100%,100%);fill-opacity:1;" d="M 17.800781 3.097656 L 15.957031 1.546875 C 15.921875 1.519531 15.875 1.542969 15.875 1.582031 L 15.875 2.273438 L 10.722656 1.933594 C 10.679688 1.929688 10.652344 1.980469 10.679688 2.011719 L 11.308594 2.785156 L 10.667969 3.566406 C 10.644531 3.597656 10.664062 3.644531 10.703125 3.648438 L 15.875 3.992188 L 15.875 4.683594 C 15.875 4.726562 15.921875 4.75 15.957031 4.722656 L 17.800781 3.171875 C 17.824219 3.152344 17.824219 3.117188 17.800781 3.097656 Z M 17.800781 3.097656 "/>
<path style=" stroke:none;fill-rule:nonzero;fill:rgb(100%,100%,100%);fill-opacity:1;" d="M 17.601562 6.03125 L 12.429688 5.6875 L 12.429688 4.996094 C 12.429688 4.953125 12.382812 4.929688 12.347656 4.957031 L 10.503906 6.507812 C 10.480469 6.527344 10.480469 6.566406 10.503906 6.585938 L 12.347656 8.136719 C 12.382812 8.164062 12.429688 8.140625 12.429688 8.097656 L 12.429688 7.40625 L 17.582031 7.746094 C 17.625 7.75 17.652344 7.699219 17.625 7.667969 L 16.996094 6.894531 L 17.636719 6.109375 C 17.660156 6.078125 17.640625 6.03125 17.601562 6.03125 Z M 17.601562 6.03125 "/>
</g>
</svg>
