<?xml version="1.0" encoding="UTF-8"?>
<svg xmlns="http://www.w3.org/2000/svg" xmlns:xlink="http://www.w3.org/1999/xlink" width="px" height="px" viewBox="0 0 18 18" version="1.1">
<g id="surface1">
<path style=" stroke:none;fill-rule:evenodd;fill:rgb(100%,100%,100%);fill-opacity:1;" d="M 11.882812 3.546875 L 11.882812 4.1875 C 11.882812 4.96875 12.519531 5.605469 13.300781 5.605469 C 14.085938 5.605469 14.71875 4.96875 14.71875 4.1875 L 14.71875 3.558594 C 14.640625 2.488281 13.800781 2.394531 13.441406 2.40625 C 12.710938 2.425781 11.894531 2.898438 11.882812 3.546875 Z M 11.25 3.636719 C 10.746094 2.832031 10.777344 2.039062 11.34375 1.457031 C 11.683594 1.109375 11.648438 0.804688 11.964844 0.480469 C 12.5 -0.0703125 13.269531 0.0664062 13.796875 0.214844 C 14.09375 0.300781 14.613281 0.226562 14.972656 0.503906 C 15.421875 0.847656 15.714844 1.339844 15.792969 1.894531 C 15.875 2.46875 15.722656 3.074219 15.351562 3.644531 L 15.351562 4.1875 C 15.351562 5.316406 14.433594 6.238281 13.300781 6.238281 C 12.171875 6.238281 11.25 5.316406 11.25 4.1875 Z M 11.25 3.636719 "/>
<path style=" stroke:none;fill-rule:evenodd;fill:rgb(100%,100%,100%);fill-opacity:1;" d="M 11.890625 6.980469 C 11.839844 6.980469 11.78125 6.964844 11.734375 6.9375 C 11.582031 6.847656 11.53125 6.652344 11.621094 6.503906 L 12.183594 5.539062 C 12.273438 5.386719 12.46875 5.339844 12.617188 5.425781 C 12.769531 5.515625 12.820312 5.707031 12.730469 5.859375 L 12.164062 6.824219 C 12.105469 6.925781 12 6.980469 11.890625 6.980469 Z M 11.890625 6.980469 "/>
<path style=" stroke:none;fill-rule:evenodd;fill:rgb(100%,100%,100%);fill-opacity:1;" d="M 17.679688 11.117188 L 16.136719 11.117188 L 16.136719 9.679688 C 16.136719 9.589844 16.0625 9.515625 15.972656 9.515625 C 15.882812 9.515625 15.808594 9.589844 15.808594 9.679688 L 15.808594 11.117188 L 14.09375 11.117188 L 13.898438 8.585938 C 13.898438 8.582031 13.898438 8.578125 13.898438 8.574219 L 13.953125 8.09375 C 13.964844 8.097656 13.976562 8.097656 13.988281 8.097656 C 14 8.097656 14.007812 8.097656 14.019531 8.09375 L 15.113281 7.878906 C 15.179688 7.867188 15.234375 7.808594 15.242188 7.738281 L 15.429688 6.355469 C 16.863281 6.472656 17.996094 7.675781 17.996094 9.136719 L 17.996094 10.800781 C 17.996094 10.976562 17.851562 11.117188 17.679688 11.117188 Z M 13.996094 7.765625 L 14.136719 6.609375 L 14.542969 6.386719 C 14.589844 6.359375 14.644531 6.347656 14.695312 6.347656 L 15.097656 6.347656 L 14.929688 7.578125 Z M 13.660156 8.445312 L 12.929688 8.445312 L 12.835938 6.820312 L 13.292969 7.066406 L 13.75 6.820312 Z M 12.691406 8.574219 C 12.691406 8.578125 12.691406 8.582031 12.691406 8.585938 L 12.492188 11.117188 L 10.78125 11.117188 L 10.78125 9.679688 C 10.78125 9.589844 10.707031 9.515625 10.617188 9.515625 C 10.523438 9.515625 10.449219 9.589844 10.449219 9.679688 L 10.449219 11.117188 L 8.910156 11.117188 C 8.734375 11.117188 8.59375 10.976562 8.59375 10.800781 L 8.59375 9.136719 C 8.59375 7.671875 9.726562 6.46875 11.164062 6.355469 L 11.347656 7.738281 C 11.355469 7.808594 11.40625 7.867188 11.476562 7.878906 L 12.570312 8.09375 C 12.578125 8.097656 12.589844 8.097656 12.601562 8.097656 C 12.613281 8.097656 12.621094 8.097656 12.632812 8.09375 Z M 11.496094 6.347656 L 11.894531 6.347656 C 11.945312 6.347656 11.996094 6.359375 12.042969 6.386719 L 12.453125 6.609375 L 12.59375 7.765625 L 11.65625 7.578125 Z M 13.757812 11.117188 L 12.832031 11.117188 L 12.992188 8.773438 L 13.597656 8.773438 Z M 13.757812 11.117188 "/>
<path style=" stroke:none;fill-rule:evenodd;fill:rgb(100%,100%,100%);fill-opacity:1;" d="M 14.695312 6.980469 C 14.585938 6.980469 14.480469 6.925781 14.421875 6.824219 L 13.859375 5.867188 C 13.773438 5.714844 13.824219 5.523438 13.976562 5.433594 C 14.125 5.34375 14.320312 5.394531 14.40625 5.546875 L 14.96875 6.503906 C 15.058594 6.652344 15.007812 6.847656 14.855469 6.9375 C 14.804688 6.964844 14.75 6.980469 14.695312 6.980469 Z M 14.695312 6.980469 "/>
<path style=" stroke:none;fill-rule:evenodd;fill:rgb(100%,100%,100%);fill-opacity:1;" d="M 3.535156 9.695312 L 3.535156 10.390625 C 3.535156 11.257812 4.242188 11.964844 5.105469 11.964844 C 5.976562 11.964844 6.679688 11.257812 6.679688 10.390625 L 6.679688 9.710938 C 6.59375 8.515625 5.660156 8.410156 5.261719 8.421875 C 4.449219 8.445312 3.542969 8.976562 3.535156 9.695312 Z M 2.902344 9.785156 C 2.347656 8.90625 2.375 8.074219 2.992188 7.441406 C 3.371094 7.054688 3.332031 6.722656 3.671875 6.375 C 4.246094 5.785156 5.070312 5.933594 5.640625 6.09375 C 5.964844 6.1875 6.527344 6.109375 6.914062 6.402344 C 7.394531 6.773438 7.707031 7.304688 7.792969 7.898438 C 7.878906 8.519531 7.714844 9.175781 7.3125 9.792969 L 7.3125 10.390625 C 7.3125 11.609375 6.324219 12.597656 5.105469 12.597656 C 3.890625 12.597656 2.902344 11.609375 2.902344 10.390625 Z M 2.902344 9.785156 "/>
<path style=" stroke:none;fill-rule:evenodd;fill:rgb(100%,100%,100%);fill-opacity:1;" d="M 6.625 13.40625 C 6.519531 13.40625 6.414062 13.351562 6.355469 13.25 L 5.742188 12.207031 C 5.652344 12.058594 5.703125 11.863281 5.855469 11.777344 C 6.003906 11.6875 6.199219 11.738281 6.289062 11.886719 L 6.898438 12.929688 C 6.988281 13.082031 6.9375 13.277344 6.785156 13.363281 C 6.734375 13.394531 6.679688 13.40625 6.625 13.40625 Z M 6.625 13.40625 "/>
<path style=" stroke:none;fill-rule:evenodd;fill:rgb(100%,100%,100%);fill-opacity:1;" d="M 3.570312 13.40625 C 3.515625 13.40625 3.460938 13.394531 3.410156 13.363281 C 3.261719 13.277344 3.210938 13.082031 3.296875 12.929688 L 3.914062 11.882812 C 4.003906 11.730469 4.199219 11.679688 4.347656 11.769531 C 4.5 11.855469 4.550781 12.050781 4.460938 12.199219 L 3.84375 13.25 C 3.785156 13.351562 3.679688 13.40625 3.570312 13.40625 Z M 3.570312 13.40625 "/>
<path style=" stroke:none;fill-rule:evenodd;fill:rgb(100%,100%,100%);fill-opacity:1;" d="M 9.875 17.917969 L 8.183594 17.917969 L 8.183594 15.917969 C 8.183594 15.828125 8.109375 15.753906 8.015625 15.753906 C 7.925781 15.753906 7.851562 15.828125 7.851562 15.917969 L 7.851562 17.917969 L 2.34375 17.917969 L 2.34375 15.917969 C 2.34375 15.828125 2.269531 15.753906 2.179688 15.753906 C 2.089844 15.753906 2.015625 15.828125 2.015625 15.917969 L 2.015625 17.917969 L 0.320312 17.917969 C 0.148438 17.917969 0.0078125 17.773438 0.0078125 17.601562 L 0.0078125 15.789062 C 0.0078125 14.128906 1.355469 12.773438 3.019531 12.773438 L 3.570312 12.773438 C 3.597656 12.773438 3.625 12.777344 3.652344 12.785156 C 3.8125 12.828125 3.957031 12.867188 4.085938 12.902344 C 4.609375 13.042969 4.871094 13.113281 5.113281 13.113281 C 5.375 13.113281 5.671875 13.03125 6.269531 12.863281 C 6.355469 12.839844 6.445312 12.8125 6.542969 12.785156 C 6.570312 12.777344 6.597656 12.773438 6.625 12.773438 L 7.179688 12.773438 C 8.839844 12.773438 10.191406 14.128906 10.191406 15.789062 L 10.191406 17.601562 C 10.191406 17.773438 10.050781 17.917969 9.875 17.917969 Z M 9.875 17.917969 "/>
<path style=" stroke:none;fill-rule:evenodd;fill:rgb(100%,100%,100%);fill-opacity:1;" d="M 7.578125 5.375 C 7.539062 5.375 7.496094 5.367188 7.457031 5.347656 L 4.628906 4.160156 L 1.804688 4.160156 C 1.628906 4.160156 1.488281 4.015625 1.488281 3.84375 L 1.488281 0.402344 C 1.488281 0.226562 1.628906 0.0859375 1.804688 0.0859375 L 8.519531 0.0859375 C 8.695312 0.0859375 8.835938 0.226562 8.835938 0.402344 L 8.835938 3.84375 C 8.835938 4.015625 8.695312 4.160156 8.519531 4.160156 L 7.894531 4.160156 L 7.894531 5.058594 C 7.894531 5.164062 7.84375 5.261719 7.753906 5.320312 C 7.703125 5.355469 7.640625 5.375 7.578125 5.375 Z M 7.335938 2.832031 C 7.429688 2.832031 7.503906 2.757812 7.503906 2.667969 C 7.503906 2.578125 7.429688 2.503906 7.335938 2.503906 L 2.988281 2.503906 C 2.894531 2.503906 2.824219 2.578125 2.824219 2.667969 C 2.824219 2.757812 2.894531 2.832031 2.988281 2.832031 Z M 7.335938 1.742188 C 7.429688 1.742188 7.503906 1.667969 7.503906 1.578125 C 7.503906 1.484375 7.429688 1.414062 7.335938 1.414062 L 2.988281 1.414062 C 2.894531 1.414062 2.824219 1.484375 2.824219 1.578125 C 2.824219 1.667969 2.894531 1.742188 2.988281 1.742188 Z M 7.335938 1.742188 "/>
<path style=" stroke:none;fill-rule:evenodd;fill:rgb(100%,100%,100%);fill-opacity:1;" d="M 17.3125 17.917969 L 10.410156 17.917969 C 10.464844 17.824219 10.496094 17.714844 10.496094 17.601562 L 10.496094 16.363281 L 12.769531 16.363281 L 12.769531 16.464844 C 12.769531 16.808594 13.046875 17.085938 13.390625 17.085938 C 13.730469 17.085938 14.007812 16.808594 14.007812 16.464844 L 14.007812 16.363281 L 17.632812 16.363281 L 17.632812 17.601562 C 17.632812 17.773438 17.488281 17.917969 17.3125 17.917969 Z M 17.3125 17.917969 "/>
<path style=" stroke:none;fill-rule:evenodd;fill:rgb(100%,100%,100%);fill-opacity:1;" d="M 14.84375 13.929688 L 11.933594 13.929688 C 11.757812 13.929688 11.617188 13.789062 11.617188 13.613281 L 11.617188 11.871094 C 11.617188 11.695312 11.757812 11.554688 11.933594 11.554688 L 14.84375 11.554688 C 15.019531 11.554688 15.160156 11.695312 15.160156 11.871094 L 15.160156 13.613281 C 15.160156 13.789062 15.019531 13.929688 14.84375 13.929688 Z M 12.25 13.296875 L 14.527344 13.296875 L 14.527344 12.1875 L 12.25 12.1875 Z M 12.25 13.296875 "/>
<path style=" stroke:none;fill-rule:evenodd;fill:rgb(100%,100%,100%);fill-opacity:1;" d="M 17.679688 16.058594 L 14.007812 16.058594 L 14.007812 15.953125 C 14.007812 15.613281 13.730469 15.335938 13.390625 15.335938 C 13.046875 15.335938 12.769531 15.613281 12.769531 15.953125 L 12.769531 16.058594 L 10.496094 16.058594 L 10.496094 15.789062 C 10.496094 14.796875 10.058594 13.90625 9.367188 13.296875 L 17.679688 13.296875 C 17.855469 13.296875 17.996094 13.4375 17.996094 13.613281 L 17.996094 15.742188 C 17.996094 15.917969 17.855469 16.058594 17.679688 16.058594 Z M 17.679688 16.058594 "/>
<path style=" stroke:none;fill-rule:evenodd;fill:rgb(100%,100%,100%);fill-opacity:1;" d="M 13.390625 16.78125 C 13.214844 16.78125 13.074219 16.640625 13.074219 16.464844 L 13.074219 15.953125 C 13.074219 15.78125 13.214844 15.636719 13.390625 15.636719 C 13.5625 15.636719 13.703125 15.78125 13.703125 15.953125 L 13.703125 16.464844 C 13.703125 16.640625 13.5625 16.78125 13.390625 16.78125 Z M 13.390625 16.78125 "/>
</g>
</svg>
