<?xml version="1.0" encoding="UTF-8"?>
<svg version="1.1" xmlns="http://www.w3.org/2000/svg" width="25" height="25">
<path d="M0 0 C8.25 0 16.5 0 25 0 C25 8.25 25 16.5 25 25 C16.75 25 8.5 25 0 25 C0 16.75 0 8.5 0 0 Z " fill="#A0A8E1" transform="translate(0,0)"/>
<path d="M0 0 C8.25 0 16.5 0 25 0 C25 3.3 25 6.6 25 10 C16.75 10 8.5 10 0 10 C0 6.7 0 3.4 0 0 Z " fill="#E9F1FA" transform="translate(0,15)"/>
<path d="M0 0 C1.65 0 3.3 0 5 0 C5 2.31 5 4.62 5 7 C5.66 7 6.32 7 7 7 C7.33 5.68 7.66 4.36 8 3 C8 4.32 8 5.64 8 7 C8.66 7 9.32 7 10 7 C10.33 6.34 10.66 5.68 11 5 C13 8 13 8 13 11 C6.07 11 -0.86 11 -8 11 C-7.67 9.35 -7.34 7.7 -7 6 C-6.34 5.67 -5.68 5.34 -5 5 C-5 5.66 -5 6.32 -5 7 C-4.34 7 -3.68 7 -3 7 C-2.67 5.68 -2.34 4.36 -2 3 C-2 4.32 -2 5.64 -2 7 C-1.34 7 -0.68 7 0 7 C0 4.69 0 2.38 0 0 Z " fill="#5465D1" transform="translate(10,0)"/>
<path d="M0 0 C3.3 0 6.6 0 10 0 C10 4.29 10 8.58 10 13 C-1.385 12.505 -1.385 12.505 -13 12 C-13 11.67 -13 11.34 -13 11 C-6.07 11 0.86 11 8 11 C7.34 9.68 6.68 8.36 6 7 C4.02 7 2.04 7 0 7 C0 4.69 0 2.38 0 0 Z " fill="#F3F9FD" transform="translate(15,0)"/>
<path d="M0 0 C2.49361571 1.20381448 4.68143083 2.45428722 7 4 C9.45741537 4.50014953 9.45741537 4.50014953 12 4 C13.37310707 2.70766393 14.71034824 1.37562854 16 0 C16.99 0 17.98 0 19 0 C19 1.65 19 3.3 19 5 C16.69 5.66 14.38 6.32 12 7 C12 7.66 12 8.32 12 9 C7.61110675 8.33501617 4.0188515 6.81242323 0 5 C0 3.35 0 1.7 0 0 Z " fill="#5E68CB" transform="translate(3,16)"/>
<path d="M0 0 C0.12375 0.639375 0.2475 1.27875 0.375 1.9375 C0.684375 2.9584375 0.684375 2.9584375 1 4 C1.66 4.33 2.32 4.66 3 5 C1.35 5.33 -0.3 5.66 -2 6 C1.96 6.33 5.92 6.66 10 7 C10 4.69 10 2.38 10 0 C10.33 1.32 10.66 2.64 11 4 C11.66 4 12.32 4 13 4 C13.33 3.34 13.66 2.68 14 2 C16 5 16 5 16 8 C9.07 8 2.14 8 -5 8 C-4.67 6.35 -4.34 4.7 -4 3 C-3.34 2.67 -2.68 2.34 -2 2 C-2 2.66 -2 3.32 -2 4 C-1.34 4 -0.68 4 0 4 C0 2.68 0 1.36 0 0 Z " fill="#596AB4" transform="translate(7,3)"/>
<path d="M0 0 C3.3 0 6.6 0 10 0 C10 2.31 10 4.62 10 7 C9.34 7 8.68 7 8 7 C8 5.68 8 4.36 8 3 C5.05908413 3.18415432 5.05908413 3.18415432 2 4 C0.56362302 5.95163118 0.56362302 5.95163118 0 8 C0 5.36 0 2.72 0 0 Z " fill="#FAFAF7" transform="translate(0,0)"/>
<path d="M0 0 C0.66 0 1.32 0 2 0 C2 0.66 2 1.32 2 2 C3.98 2.66 5.96 3.32 8 4 C7.67 4.99 7.34 5.98 7 7 C4.69 7 2.38 7 0 7 C0 4.69 0 2.38 0 0 Z " fill="#D3DEFC" transform="translate(15,0)"/>
<path d="M0 0 C3.3 0 6.6 0 10 0 C8 4 8 4 5 6 C2.3125 6.125 2.3125 6.125 0 6 C0.639375 5.71125 1.27875 5.4225 1.9375 5.125 C4.15206079 4.17176549 4.15206079 4.17176549 5 2 C3.35 1.67 1.7 1.34 0 1 C0 0.67 0 0.34 0 0 Z " fill="#DEEAFD" transform="translate(10,15)"/>
<path d="M0 0 C1.98 0 3.96 0 6 0 C6 0.99 6 1.98 6 3 C4.35 3.33 2.7 3.66 1 4 C0.67 2.68 0.34 1.36 0 0 Z " fill="#FAFBF7" transform="translate(9,16)"/>
<path d="M0 0 C0.99 1.32 1.98 2.64 3 4 C2.67 4.99 2.34 5.98 2 7 C2.66 7.66 3.32 8.32 4 9 C2.68 9.33 1.36 9.66 0 10 C0 6.7 0 3.4 0 0 Z " fill="#F8FAF6" transform="translate(0,15)"/>
<path d="M0 0 C0.12375 0.639375 0.2475 1.27875 0.375 1.9375 C0.684375 2.9584375 0.684375 2.9584375 1 4 C1.66 4.33 2.32 4.66 3 5 C0.36 5.66 -2.28 6.32 -5 7 C-4.34 5.35 -3.68 3.7 -3 2 C-2.67 2.66 -2.34 3.32 -2 4 C-1.34 4 -0.68 4 0 4 C0 2.68 0 1.36 0 0 Z " fill="#6671C1" transform="translate(7,3)"/>
<path d="M0 0 C0.99 0 1.98 0 3 0 C3 2.31 3 4.62 3 7 C2.34 7 1.68 7 1 7 C0.67 4.69 0.34 2.38 0 0 Z " fill="#CEDDFD" transform="translate(7,0)"/>
</svg>
