<?xml version="1.0" encoding="UTF-8"?>
<svg version="1.1" xmlns="http://www.w3.org/2000/svg" width="15" height="15">
<path d="M0 0 C4.95 0 9.9 0 15 0 C15 4.95 15 9.9 15 15 C10.05 15 5.1 15 0 15 C0 10.05 0 5.1 0 0 Z " fill="#62A3F7" transform="translate(0,0)"/>
<path d="M0 0 C1.32 0 2.64 0 4 0 C4 4.95 4 9.9 4 15 C-0.95 15 -5.9 15 -11 15 C-10.67 13.68 -10.34 12.36 -10 11 C-8.35 11.99 -6.7 12.98 -5 14 C-5 12.68 -5 11.36 -5 10 C-5.66 10 -6.32 10 -7 10 C-7 9.01 -7 8.02 -7 7 C-6.34 7 -5.68 7 -5 7 C-4.67 5.68 -4.34 4.36 -4 3 C-2.68 3 -1.36 3 0 3 C0 3.66 0 4.32 0 5 C-0.66 5 -1.32 5 -2 5 C-2 5.66 -2 6.32 -2 7 C-1.34 7 -0.68 7 0 7 C0.33 7.66 0.66 8.32 1 9 C1.66 9 2.32 9 3 9 C1.78955868 4.39257135 1.78955868 4.39257135 0 0 Z " fill="#BDE2FC" transform="translate(11,0)"/>
<path d="M0 0 C1.875 1.125 1.875 1.125 3 3 C3.1875 6.1875 3.1875 6.1875 3 9 C2.01 9.33 1.02 9.66 0 10 C0 9.01 0 8.02 0 7 C-0.66 7 -1.32 7 -2 7 C-2 6.34 -2 5.68 -2 5 C-1.34 5 -0.68 5 0 5 C0 4.34 0 3.68 0 3 C-1.94074861 3.27617533 -1.94074861 3.27617533 -4 4 C-4.99 5.485 -4.99 5.485 -6 7 C-6.33 5.35 -6.66 3.7 -7 2 C-7 2.66 -7 3.32 -7 4 C-7.99 4.33 -8.98 4.66 -10 5 C-7.68925392 -0.11665204 -5.56678732 -0.45443162 0 0 Z " fill="#317DDF" transform="translate(11,0)"/>
<path d="M0 0 C1.32 0 2.64 0 4 0 C4 4.95 4 9.9 4 15 C2.02 15 0.04 15 -2 15 C-2 13.35 -2 11.7 -2 10 C-0.35 9.67 1.3 9.34 3 9 C1.78955868 4.39257135 1.78955868 4.39257135 0 0 Z " fill="#83B4EC" transform="translate(11,0)"/>
<path d="M0 0 C0.33 0.99 0.66 1.98 1 3 C1.66 3 2.32 3 3 3 C3 4.32 3 5.64 3 7 C1.68 6.67 0.36 6.34 -1 6 C-1.33 4.68 -1.66 3.36 -2 2 C-1.34 2 -0.68 2 0 2 C0 1.34 0 0.68 0 0 Z " fill="#297BD2" transform="translate(3,7)"/>
</svg>
