<?xml version="1.0" encoding="UTF-8"?>
<svg version="1.1" xmlns="http://www.w3.org/2000/svg" width="16" height="15">
<path d="M0 0 C5.28 0 10.56 0 16 0 C16 4.95 16 9.9 16 15 C10.72 15 5.44 15 0 15 C0 10.05 0 5.1 0 0 Z " fill="#6988CF" transform="translate(0,0)"/>
<path d="M0 0 C2.31 0 4.62 0 7 0 C7 2.64 7 5.28 7 8 C6.34 8 5.68 8 5 8 C5.66 10.31 6.32 12.62 7 15 C4.69 15 2.38 15 0 15 C0 10.05 0 5.1 0 0 Z " fill="#4B86EC" transform="translate(0,0)"/>
<path d="M0 0 C1.32 0 2.64 0 4 0 C4 2.64 4 5.28 4 8 C2.68 7.67 1.36 7.34 0 7 C0 4.69 0 2.38 0 0 Z " fill="#4664BA" transform="translate(3,0)"/>
<path d="M0 0 C1.32 0 2.64 0 4 0 C4 2.31 4 4.62 4 7 C3.01 7 2.02 7 1 7 C0.67 4.69 0.34 2.38 0 0 Z " fill="#7EA1F4" transform="translate(7,0)"/>
<path d="M0 0 C0.99 0 1.98 0 3 0 C3 2.64 3 5.28 3 8 C2.01 8 1.02 8 0 8 C0 5.36 0 2.72 0 0 Z " fill="#7EA7F1" transform="translate(0,0)"/>
<path d="M0 0 C0.99 0 1.98 0 3 0 C3 1.65 3 3.3 3 5 C1.68 4.67 0.36 4.34 -1 4 C-0.67 2.68 -0.34 1.36 0 0 Z " fill="#96C1F6" transform="translate(10,9)"/>
</svg>
