<?xml version="1.0" encoding="UTF-8"?>
<svg version="1.1" xmlns="http://www.w3.org/2000/svg" width="35" height="35">
<path d="M0 0 C11.55 0 23.1 0 35 0 C35 11.55 35 23.1 35 35 C23.45 35 11.9 35 0 35 C0 23.45 0 11.9 0 0 Z " fill="#6BC0BB" transform="translate(0,0)"/>
<path d="M0 0 C11.55 0 23.1 0 35 0 C35 11.55 35 23.1 35 35 C34.67 34.34 34.34 33.68 34 33 C32.68 32.67 31.36 32.34 30 32 C30 28.04 30 24.08 30 20 C29.34 20 28.68 20 28 20 C28 22.97 28 25.94 28 29 C27.67 29 27.34 29 27 29 C27 26.03 27 23.06 27 20 C26.34 20 25.68 20 25 20 C24.67 20.99 24.34 21.98 24 23 C24 21.68 24 20.36 24 19 C25.134375 19.020625 26.26875 19.04125 27.4375 19.0625 C30.81575674 19.41577477 30.81575674 19.41577477 32 18 C28.7 18 25.4 18 22 18 C22 16.68 22 15.36 22 14 C23.32 14 24.64 14 26 14 C26 10.7 26 7.4 26 4 C25.28714844 4.2165625 24.57429688 4.433125 23.83984375 4.65625 C18.34245574 6.25441394 13.70842881 7.24291186 8 7 C7.01 7.495 7.01 7.495 6 8 C5.59270772 10.32156597 5.25561323 12.6568787 5 15 C4.01 15 3.02 15 2 15 C2.185625 16.9490625 2.185625 16.9490625 2.375 18.9375 C2.44460938 19.66839844 2.51421875 20.39929688 2.5859375 21.15234375 C2.72257813 21.76207031 2.85921875 22.37179688 3 23 C3.66 23.33 4.32 23.66 5 24 C5.33 22.68 5.66 21.36 6 20 C6 21.65 6 23.3 6 25 C4.35 25 2.7 25 1 25 C1.66 27.64 2.32 30.28 3 33 C2.01 33 1.02 33 0 33 C0 22.11 0 11.22 0 0 Z " fill="#E6FBFA" transform="translate(0,0)"/>
<path d="M0 0 C1.3479743 0.63654342 2.68596724 1.29605388 4 2 C4 3.98 4 5.96 4 8 C3.01 8.33 2.02 8.66 1 9 C0.67 10.65 0.34 12.3 0 14 C2.86344634 14.06659178 5.50486606 14.10705599 8.3125 13.5 C14.91656274 12.27133716 20.1438249 12.39619994 26 16 C26 16.66 26 17.32 26 18 C14.78 18 3.56 18 -8 18 C-8 17.34 -8 16.68 -8 16 C-7.01 16 -6.02 16 -5 16 C-5.66 15.01 -6.32 14.02 -7 13 C-7.125 10.3125 -7.125 10.3125 -7 8 C-5.35 8 -3.7 8 -2 8 C-3.32 7.34 -4.64 6.68 -6 6 C-6 4.02 -6 2.04 -6 0 C-3.44901433 -1.27549283 -2.66705587 -0.86287102 0 0 Z " fill="#81D6D2" transform="translate(8,17)"/>
<path d="M0 0 C9.24 0 18.48 0 28 0 C26 4 26 4 23.64453125 5.046875 C18.25625586 6.38465372 13.54368543 7.23590151 8 7 C7.01 7.495 7.01 7.495 6 8 C5.59270772 10.32156597 5.25561323 12.6568787 5 15 C4.01 15 3.02 15 2 15 C2.185625 16.9490625 2.185625 16.9490625 2.375 18.9375 C2.44460938 19.66839844 2.51421875 20.39929688 2.5859375 21.15234375 C2.72257813 21.76207031 2.85921875 22.37179688 3 23 C3.66 23.33 4.32 23.66 5 24 C5.33 22.68 5.66 21.36 6 20 C6 21.65 6 23.3 6 25 C4.35 25 2.7 25 1 25 C1.66 27.64 2.32 30.28 3 33 C2.01 33 1.02 33 0 33 C0 22.11 0 11.22 0 0 Z " fill="#FCFDFC" transform="translate(0,0)"/>
<path d="M0 0 C0.33 5.94 0.66 11.88 1 18 C1.99 18 2.98 18 4 18 C4.33 20.31 4.66 22.62 5 25 C4.05125 24.979375 3.1025 24.95875 2.125 24.9375 C-0.90666283 24.77448174 -0.90666283 24.77448174 -3 26 C-5.125 25.5625 -5.125 25.5625 -7 25 C-7.33 25.66 -7.66 26.32 -8 27 C-9 24 -9 24 -8.1875 21.875 C-7 20 -7 20 -5 19 C-5 17.02 -5 15.04 -5 13 C-8.13498292 11.14223235 -10.37471432 10.79859524 -14 11 C-14 10.34 -14 9.68 -14 9 C-13.01 9 -12.02 9 -11 9 C-11.061875 7.88625 -11.12375 6.7725 -11.1875 5.625 C-11.125625 4.42875 -11.06375 3.2325 -11 2 C-8 0 -8 0 0 0 Z " fill="#CFF7F7" transform="translate(16,6)"/>
<path d="M0 0 C0 3.3 0 6.6 0 10 C-2.97 9.67 -5.94 9.34 -9 9 C-9 11.97 -9 14.94 -9 18 C-8.01 18 -7.02 18 -6 18 C-5.67 16.68 -5.34 15.36 -5 14 C-5 17.63 -5 21.26 -5 25 C-5.66 24.67 -6.32 24.34 -7 24 C-6.67 22.68 -6.34 21.36 -6 20 C-6.99 20 -7.98 20 -9 20 C-9.33 21.32 -9.66 22.64 -10 24 C-10 16.74 -10 9.48 -10 2 C-4 0 -4 0 0 0 Z " fill="#3AA69A" transform="translate(26,4)"/>
<path d="M0 0 C2.64 0 5.28 0 8 0 C8.02888146 3.31248187 8.04675799 6.62493167 8.0625 9.9375 C8.07087891 10.88302734 8.07925781 11.82855469 8.08789062 12.80273438 C8.09111328 13.70185547 8.09433594 14.60097656 8.09765625 15.52734375 C8.10289307 16.35999756 8.10812988 17.19265137 8.11352539 18.05053711 C8 20 8 20 7 21 C5.33382885 21.04063832 3.66611905 21.042721 2 21 C2.33 20.01 2.66 19.02 3 18 C3.66 18 4.32 18 5 18 C6.04214691 13.38492226 6.04214691 13.38492226 5 9 C4.01 8.67 3.02 8.34 2 8 C2 7.34 2 6.68 2 6 C1.34 6 0.68 6 0 6 C0 4.02 0 2.04 0 0 Z " fill="#61B4AC" transform="translate(7,9)"/>
<path d="M0 0 C3 1.4375 3 1.4375 6 4 C6.5937625 7.05974908 6.49231488 9.9277059 6 13 C5 14 5 14 2.93359375 14.09765625 C2.10988281 14.08605469 1.28617188 14.07445312 0.4375 14.0625 C-0.38878906 14.05347656 -1.21507812 14.04445313 -2.06640625 14.03515625 C-2.70449219 14.02355469 -3.34257812 14.01195312 -4 14 C-4 12.68 -4 11.36 -4 10 C-2.68 10 -1.36 10 0 10 C0 6.7 0 3.4 0 0 Z " fill="#DDFCFD" transform="translate(26,4)"/>
<path d="M0 0 C1.3479743 0.63654342 2.68596724 1.29605388 4 2 C4 3.98 4 5.96 4 8 C3.01 8.33 2.02 8.66 1 9 C0.67 9.66 0.34 10.32 0 11 C-0.433125 10.360625 -0.86625 9.72125 -1.3125 9.0625 C-2.91239177 6.73253997 -2.91239177 6.73253997 -6 6 C-6 4.02 -6 2.04 -6 0 C-3.44901433 -1.27549283 -2.66705587 -0.86287102 0 0 Z " fill="#20AD9E" transform="translate(8,17)"/>
<path d="M0 0 C1.16273437 -0.01417969 2.32546875 -0.02835938 3.5234375 -0.04296875 C6.625 0.1875 6.625 0.1875 9.625 2.1875 C9.625 2.8475 9.625 3.5075 9.625 4.1875 C1.705 4.1875 -6.215 4.1875 -14.375 4.1875 C-13.715 3.8575 -13.055 3.5275 -12.375 3.1875 C-12.375 2.5275 -12.375 1.8675 -12.375 1.1875 C-11.1684375 1.2184375 -11.1684375 1.2184375 -9.9375 1.25 C-6.50202292 1.16620788 -3.83335198 0.02115536 0 0 Z " fill="#2BA99B" transform="translate(21.375,29.8125)"/>
<path d="M0 0 C0.33 0 0.66 0 1 0 C1.33 4.95 1.66 9.9 2 15 C2.99 15 3.98 15 5 15 C5.33 17.31 5.66 19.62 6 22 C5.05125 21.979375 4.1025 21.95875 3.125 21.9375 C0.09333717 21.77448174 0.09333717 21.77448174 -2 23 C-4.125 22.5625 -4.125 22.5625 -6 22 C-6.33 22.66 -6.66 23.32 -7 24 C-8 21 -8 21 -7.25 18.875 C-6 17 -6 17 -3 16 C-3 16.66 -3 17.32 -3 18 C-3.66 18 -4.32 18 -5 18 C-5 18.66 -5 19.32 -5 20 C-3.68 20 -2.36 20 -1 20 C-0.67 13.4 -0.34 6.8 0 0 Z " fill="#ACF9F7" transform="translate(15,9)"/>
<path d="M0 0 C1.32 0 2.64 0 4 0 C4.02685095 2.47923801 4.04676547 4.9581884 4.0625 7.4375 C4.07087891 8.14455078 4.07925781 8.85160156 4.08789062 9.58007812 C4.09653588 11.38693559 4.05220011 13.19387603 4 15 C3 16 3 16 0.4375 16.0625 C-0.366875 16.041875 -1.17125 16.02125 -2 16 C-1.67 15.01 -1.34 14.02 -1 13 C-0.34 13 0.32 13 1 13 C1.93033184 8.25530759 2.1805691 5.36113819 0 1 C0 0.67 0 0.34 0 0 Z " fill="#5DB1A8" transform="translate(11,14)"/>
<path d="M0 0 C-0.6796875 1.921875 -0.6796875 1.921875 -2 4 C-4.3828125 4.828125 -4.3828125 4.828125 -7.125 5.25 C-8.03507812 5.39953125 -8.94515625 5.5490625 -9.8828125 5.703125 C-10.58148437 5.80109375 -11.28015625 5.8990625 -12 6 C-9.51338724 -0.92699268 -6.80769872 -0.10980159 0 0 Z " fill="#C0E9E6" transform="translate(28,0)"/>
<path d="M0 0 C0.66 0 1.32 0 2 0 C2 3.96 2 7.92 2 12 C0.88625 11.835 -0.2275 11.67 -1.375 11.5 C-4.72032033 10.9544542 -4.72032033 10.9544542 -7 11 C-7 9.35 -7 7.7 -7 6 C-6.67 6.99 -6.34 7.98 -6 9 C-4.35 8.67 -2.7 8.34 -1 8 C-0.67 5.36 -0.34 2.72 0 0 Z " fill="#62CDC1" transform="translate(28,20)"/>
<path d="M0 0 C2.475 0.495 2.475 0.495 5 1 C4 5 4 5 3 9 C2.01 9 1.02 9 0 9 C0 6.03 0 3.06 0 0 Z " fill="#6AD3CA" transform="translate(17,13)"/>
<path d="M0 0 C0.28875 0.639375 0.5775 1.27875 0.875 1.9375 C1.82823451 4.15206079 1.82823451 4.15206079 4 5 C4.33 3.68 4.66 2.36 5 1 C5 2.65 5 4.3 5 6 C3.35 6 1.7 6 0 6 C0.66 8.64 1.32 11.28 2 14 C1.01 14 0.02 14 -1 14 C-1.02685938 11.85423363 -1.04633088 9.70837355 -1.0625 7.5625 C-1.07410156 6.36753906 -1.08570312 5.17257813 -1.09765625 3.94140625 C-1 1 -1 1 0 0 Z " fill="#BFF7F5" transform="translate(1,19)"/>
<path d="M0 0 C1.65 0 3.3 0 5 0 C5.26218749 3.14624993 5.24754367 4.61837017 3.5 7.3125 C2.7575 8.1478125 2.7575 8.1478125 2 9 C0.14223235 5.86501708 -0.20140476 3.62528568 0 0 Z " fill="#30A998" transform="translate(1,25)"/>
<path d="M0 0 C1.9451 2.91765 2.45276317 4.62537285 3 8 C0.03 8 -2.94 8 -6 8 C-6 7.34 -6 6.68 -6 6 C-4.35 6 -2.7 6 -1 6 C-0.67 4.02 -0.34 2.04 0 0 Z " fill="#60ACA4" transform="translate(29,9)"/>
<path d="M0 0 C0 0.66 0 1.32 0 2 C0.66 2 1.32 2 2 2 C2 2.99 2 3.98 2 5 C1.34 5 0.68 5 0 5 C-0.33 5.66 -0.66 6.32 -1 7 C-1.33 6.34 -1.66 5.68 -2 5 C-2.99 5 -3.98 5 -5 5 C-5 3.68 -5 2.36 -5 1 C-2 0 -2 0 0 0 Z " fill="#72D9D1" transform="translate(22,6)"/>
<path d="M0 0 C-1 2 -1 2 -3 3 C-3 4.32 -3 5.64 -3 7 C-3.99 6.67 -4.98 6.34 -6 6 C-6 4.02 -6 2.04 -6 0 C-3.50907189 -1.24546405 -2.58919267 -0.7767578 0 0 Z " fill="#38A69A" transform="translate(8,17)"/>
<path d="M0 0 C0.99 0 1.98 0 3 0 C3.33 2.31 3.66 4.62 4 7 C2.35 6.67 0.7 6.34 -1 6 C-0.67 4.02 -0.34 2.04 0 0 Z " fill="#8EDEDD" transform="translate(17,24)"/>
<path d="M0 0 C0.33 0 0.66 0 1 0 C1 1.98 1 3.96 1 6 C-0.65 6 -2.3 6 -4 6 C-3.67 5.01 -3.34 4.02 -3 3 C-2.34 3 -1.68 3 -1 3 C-0.67 2.01 -0.34 1.02 0 0 Z " fill="#43AEA2" transform="translate(13,24)"/>
<path d="M0 0 C0.33 0.99 0.66 1.98 1 3 C2.98 3 4.96 3 7 3 C6.67 3.99 6.34 4.98 6 6 C4.35 6.33 2.7 6.66 1 7 C0.67 4.69 0.34 2.38 0 0 Z " fill="#6CCBC6" transform="translate(8,10)"/>
</svg>
