<svg width="285" height="276" viewBox="0 0 285 276" fill="none" xmlns="http://www.w3.org/2000/svg">
<path d="M186.267 276H38.6455C17.3361 276 0 257.836 0 235.509V40.4906C0 18.1638 17.3361 0 38.6455 0H181.225C205.316 0 224.913 20.532 224.913 45.7729V57.2995C224.913 58.7016 223.826 59.8405 222.487 59.8405C221.149 59.8405 220.062 58.7016 220.062 57.2995V45.7729C220.062 23.3361 202.644 5.08587 181.229 5.08587H38.6455C20.0125 5.08587 4.85412 20.9679 4.85412 40.4906V235.513C4.85412 255.036 20.0125 270.918 38.6455 270.918H186.271C204.904 270.918 220.062 255.036 220.062 235.513V212.46C220.062 190.133 237.398 171.969 258.704 171.969H279.575C280.913 171.969 282 173.108 282 174.51C282 175.912 280.913 177.051 279.575 177.051H258.704C240.071 177.051 224.913 192.933 224.913 212.456V235.509C224.913 257.836 207.576 276 186.267 276Z" fill="#49BBBD"/>
<path opacity="0.5" d="M263.56 154.801L260.248 158.356L277.782 174.653L260.248 190.953L263.56 194.509L284.912 174.653L263.56 154.801Z" fill="#029AD9"/>
<path d="M14.6121 112.145C14.6121 110.772 14.9188 109.545 15.5321 108.465C16.1588 107.372 17.0054 106.525 18.0721 105.925C19.1521 105.312 20.3588 105.005 21.6921 105.005C23.2521 105.005 24.6188 105.405 25.7921 106.205C26.9654 107.005 27.7854 108.112 28.2521 109.525H25.0321C24.7121 108.859 24.2588 108.359 23.6721 108.025C23.0988 107.692 22.4321 107.525 21.6721 107.525C20.8588 107.525 20.1321 107.719 19.4921 108.105C18.8654 108.479 18.3721 109.012 18.0121 109.705C17.6654 110.399 17.4921 111.212 17.4921 112.145C17.4921 113.065 17.6654 113.879 18.0121 114.585C18.3721 115.279 18.8654 115.819 19.4921 116.205C20.1321 116.579 20.8588 116.765 21.6721 116.765C22.4321 116.765 23.0988 116.599 23.6721 116.265C24.2588 115.919 24.7121 115.412 25.0321 114.745H28.2521C27.7854 116.172 26.9654 117.285 25.7921 118.085C24.6321 118.872 23.2654 119.265 21.6921 119.265C20.3588 119.265 19.1521 118.965 18.0721 118.365C17.0054 117.752 16.1588 116.905 15.5321 115.825C14.9188 114.745 14.6121 113.519 14.6121 112.145ZM29.9237 113.565C29.9237 112.445 30.1437 111.452 30.5837 110.585C31.037 109.719 31.6437 109.052 32.4037 108.585C33.177 108.119 34.037 107.885 34.9837 107.885C35.8103 107.885 36.5303 108.052 37.1437 108.385C37.7703 108.719 38.2703 109.139 38.6437 109.645V108.065H41.4637V119.145H38.6437V117.525C38.2837 118.045 37.7837 118.479 37.1437 118.825C36.517 119.159 35.7903 119.325 34.9637 119.325C34.0303 119.325 33.177 119.085 32.4037 118.605C31.6437 118.125 31.037 117.452 30.5837 116.585C30.1437 115.705 29.9237 114.699 29.9237 113.565ZM38.6437 113.605C38.6437 112.925 38.5103 112.345 38.2437 111.865C37.977 111.372 37.617 110.999 37.1637 110.745C36.7103 110.479 36.2237 110.345 35.7037 110.345C35.1837 110.345 34.7037 110.472 34.2637 110.725C33.8237 110.979 33.4637 111.352 33.1837 111.845C32.917 112.325 32.7837 112.899 32.7837 113.565C32.7837 114.232 32.917 114.819 33.1837 115.325C33.4637 115.819 33.8237 116.199 34.2637 116.465C34.717 116.732 35.197 116.865 35.7037 116.865C36.2237 116.865 36.7103 116.739 37.1637 116.485C37.617 116.219 37.977 115.845 38.2437 115.365C38.5103 114.872 38.6437 114.285 38.6437 113.605ZM46.9984 109.785C47.3584 109.199 47.825 108.739 48.3984 108.405C48.985 108.072 49.6517 107.905 50.3984 107.905V110.845H49.6584C48.7784 110.845 48.1117 111.052 47.6584 111.465C47.2184 111.879 46.9984 112.599 46.9984 113.625V119.145H44.1984V108.065H46.9984V109.785ZM62.5843 113.365C62.5843 113.765 62.5576 114.125 62.5043 114.445H54.4043C54.471 115.245 54.751 115.872 55.2443 116.325C55.7376 116.779 56.3443 117.005 57.0643 117.005C58.1043 117.005 58.8443 116.559 59.2843 115.665H62.3043C61.9843 116.732 61.371 117.612 60.4643 118.305C59.5576 118.985 58.4443 119.325 57.1243 119.325C56.0576 119.325 55.0976 119.092 54.2443 118.625C53.4043 118.145 52.7443 117.472 52.2643 116.605C51.7976 115.739 51.5643 114.739 51.5643 113.605C51.5643 112.459 51.7976 111.452 52.2643 110.585C52.731 109.719 53.3843 109.052 54.2243 108.585C55.0643 108.119 56.031 107.885 57.1243 107.885C58.1776 107.885 59.1176 108.112 59.9443 108.565C60.7843 109.019 61.431 109.665 61.8843 110.505C62.351 111.332 62.5843 112.285 62.5843 113.365ZM59.6843 112.565C59.671 111.845 59.411 111.272 58.9043 110.845C58.3976 110.405 57.7776 110.185 57.0443 110.185C56.351 110.185 55.7643 110.399 55.2843 110.825C54.8176 111.239 54.531 111.819 54.4243 112.565H59.6843ZM74.928 113.365C74.928 113.765 74.9014 114.125 74.848 114.445H66.748C66.8147 115.245 67.0947 115.872 67.588 116.325C68.0814 116.779 68.688 117.005 69.408 117.005C70.448 117.005 71.188 116.559 71.628 115.665H74.648C74.328 116.732 73.7147 117.612 72.808 118.305C71.9014 118.985 70.788 119.325 69.468 119.325C68.4014 119.325 67.4414 119.092 66.588 118.625C65.748 118.145 65.088 117.472 64.608 116.605C64.1414 115.739 63.908 114.739 63.908 113.605C63.908 112.459 64.1414 111.452 64.608 110.585C65.0747 109.719 65.728 109.052 66.568 108.585C67.408 108.119 68.3747 107.885 69.468 107.885C70.5214 107.885 71.4614 108.112 72.288 108.565C73.128 109.019 73.7747 109.665 74.228 110.505C74.6947 111.332 74.928 112.285 74.928 113.365ZM72.028 112.565C72.0147 111.845 71.7547 111.272 71.248 110.845C70.7414 110.405 70.1214 110.185 69.388 110.185C68.6947 110.185 68.108 110.399 67.628 110.825C67.1614 111.239 66.8747 111.819 66.768 112.565H72.028ZM79.7718 109.785C80.1318 109.199 80.5985 108.739 81.1718 108.405C81.7585 108.072 82.4251 107.905 83.1718 107.905V110.845H82.4318C81.5518 110.845 80.8851 111.052 80.4318 111.465C79.9918 111.879 79.7718 112.599 79.7718 113.625V119.145H76.9718V108.065H79.7718V109.785ZM89.1434 112.145C89.1434 110.772 89.45 109.545 90.0634 108.465C90.69 107.372 91.5367 106.525 92.6034 105.925C93.6834 105.312 94.89 105.005 96.2234 105.005C97.7834 105.005 99.15 105.405 100.323 106.205C101.497 107.005 102.317 108.112 102.783 109.525H99.5634C99.2434 108.859 98.79 108.359 98.2034 108.025C97.63 107.692 96.9634 107.525 96.2034 107.525C95.39 107.525 94.6634 107.719 94.0234 108.105C93.3967 108.479 92.9034 109.012 92.5434 109.705C92.1967 110.399 92.0234 111.212 92.0234 112.145C92.0234 113.065 92.1967 113.879 92.5434 114.585C92.9034 115.279 93.3967 115.819 94.0234 116.205C94.6634 116.579 95.39 116.765 96.2034 116.765C96.9634 116.765 97.63 116.599 98.2034 116.265C98.79 115.919 99.2434 115.412 99.5634 114.745H102.783C102.317 116.172 101.497 117.285 100.323 118.085C99.1634 118.872 97.7967 119.265 96.2234 119.265C94.89 119.265 93.6834 118.965 92.6034 118.365C91.5367 117.752 90.69 116.905 90.0634 115.825C89.45 114.745 89.1434 113.519 89.1434 112.145ZM110.095 119.325C109.028 119.325 108.068 119.092 107.215 118.625C106.362 118.145 105.688 117.472 105.195 116.605C104.715 115.739 104.475 114.739 104.475 113.605C104.475 112.472 104.722 111.472 105.215 110.605C105.722 109.739 106.408 109.072 107.275 108.605C108.142 108.125 109.108 107.885 110.175 107.885C111.242 107.885 112.208 108.125 113.075 108.605C113.942 109.072 114.622 109.739 115.115 110.605C115.622 111.472 115.875 112.472 115.875 113.605C115.875 114.739 115.615 115.739 115.095 116.605C114.588 117.472 113.895 118.145 113.015 118.625C112.148 119.092 111.175 119.325 110.095 119.325ZM110.095 116.885C110.602 116.885 111.075 116.765 111.515 116.525C111.968 116.272 112.328 115.899 112.595 115.405C112.862 114.912 112.995 114.312 112.995 113.605C112.995 112.552 112.715 111.745 112.155 111.185C111.608 110.612 110.935 110.325 110.135 110.325C109.335 110.325 108.662 110.612 108.115 111.185C107.582 111.745 107.315 112.552 107.315 113.605C107.315 114.659 107.575 115.472 108.095 116.045C108.628 116.605 109.295 116.885 110.095 116.885ZM128.389 108.065V119.145H125.569V117.745C125.209 118.225 124.735 118.605 124.149 118.885C123.575 119.152 122.949 119.285 122.269 119.285C121.402 119.285 120.635 119.105 119.969 118.745C119.302 118.372 118.775 117.832 118.389 117.125C118.015 116.405 117.829 115.552 117.829 114.565V108.065H120.629V114.165C120.629 115.045 120.849 115.725 121.289 116.205C121.729 116.672 122.329 116.905 123.089 116.905C123.862 116.905 124.469 116.672 124.909 116.205C125.349 115.725 125.569 115.045 125.569 114.165V108.065H128.389ZM137.291 107.905C138.611 107.905 139.678 108.325 140.491 109.165C141.305 109.992 141.711 111.152 141.711 112.645V119.145H138.911V113.025C138.911 112.145 138.691 111.472 138.251 111.005C137.811 110.525 137.211 110.285 136.451 110.285C135.678 110.285 135.065 110.525 134.611 111.005C134.171 111.472 133.951 112.145 133.951 113.025V119.145H131.151V108.065H133.951V109.445C134.325 108.965 134.798 108.592 135.371 108.325C135.958 108.045 136.598 107.905 137.291 107.905ZM148.614 119.325C147.707 119.325 146.894 119.165 146.174 118.845C145.454 118.512 144.881 118.065 144.454 117.505C144.041 116.945 143.814 116.325 143.774 115.645H146.594C146.647 116.072 146.854 116.425 147.214 116.705C147.587 116.985 148.047 117.125 148.594 117.125C149.127 117.125 149.541 117.019 149.834 116.805C150.141 116.592 150.294 116.319 150.294 115.985C150.294 115.625 150.107 115.359 149.734 115.185C149.374 114.999 148.794 114.799 147.994 114.585C147.167 114.385 146.487 114.179 145.954 113.965C145.434 113.752 144.981 113.425 144.594 112.985C144.221 112.545 144.034 111.952 144.034 111.205C144.034 110.592 144.207 110.032 144.554 109.525C144.914 109.019 145.421 108.619 146.074 108.325C146.741 108.032 147.521 107.885 148.414 107.885C149.734 107.885 150.787 108.219 151.574 108.885C152.361 109.539 152.794 110.425 152.874 111.545H150.194C150.154 111.105 149.967 110.759 149.634 110.505C149.314 110.239 148.881 110.105 148.334 110.105C147.827 110.105 147.434 110.199 147.154 110.385C146.887 110.572 146.754 110.832 146.754 111.165C146.754 111.539 146.941 111.825 147.314 112.025C147.687 112.212 148.267 112.405 149.054 112.605C149.854 112.805 150.514 113.012 151.034 113.225C151.554 113.439 152.001 113.772 152.374 114.225C152.761 114.665 152.961 115.252 152.974 115.985C152.974 116.625 152.794 117.199 152.434 117.705C152.087 118.212 151.581 118.612 150.914 118.905C150.261 119.185 149.494 119.325 148.614 119.325ZM165.573 113.365C165.573 113.765 165.546 114.125 165.493 114.445H157.393C157.459 115.245 157.739 115.872 158.233 116.325C158.726 116.779 159.333 117.005 160.053 117.005C161.093 117.005 161.833 116.559 162.273 115.665H165.293C164.973 116.732 164.359 117.612 163.453 118.305C162.546 118.985 161.433 119.325 160.113 119.325C159.046 119.325 158.086 119.092 157.233 118.625C156.393 118.145 155.733 117.472 155.253 116.605C154.786 115.739 154.553 114.739 154.553 113.605C154.553 112.459 154.786 111.452 155.253 110.585C155.719 109.719 156.373 109.052 157.213 108.585C158.053 108.119 159.019 107.885 160.113 107.885C161.166 107.885 162.106 108.112 162.933 108.565C163.773 109.019 164.419 109.665 164.873 110.505C165.339 111.332 165.573 112.285 165.573 113.365ZM162.673 112.565C162.659 111.845 162.399 111.272 161.893 110.845C161.386 110.405 160.766 110.185 160.033 110.185C159.339 110.185 158.753 110.399 158.273 110.825C157.806 111.239 157.519 111.819 157.413 112.565H162.673ZM170.416 104.345V119.145H167.616V104.345H170.416ZM175.983 104.345V119.145H173.183V104.345H175.983ZM180.169 106.745C179.676 106.745 179.262 106.592 178.929 106.285C178.609 105.965 178.449 105.572 178.449 105.105C178.449 104.639 178.609 104.252 178.929 103.945C179.262 103.625 179.676 103.465 180.169 103.465C180.662 103.465 181.069 103.625 181.389 103.945C181.722 104.252 181.889 104.639 181.889 105.105C181.889 105.572 181.722 105.965 181.389 106.285C181.069 106.592 180.662 106.745 180.169 106.745ZM181.549 108.065V119.145H178.749V108.065H181.549ZM190.456 107.905C191.776 107.905 192.842 108.325 193.656 109.165C194.469 109.992 194.876 111.152 194.876 112.645V119.145H192.076V113.025C192.076 112.145 191.856 111.472 191.416 111.005C190.976 110.525 190.376 110.285 189.616 110.285C188.842 110.285 188.229 110.525 187.776 111.005C187.336 111.472 187.116 112.145 187.116 113.025V119.145H184.316V108.065H187.116V109.445C187.489 108.965 187.962 108.592 188.536 108.325C189.122 108.045 189.762 107.905 190.456 107.905ZM201.878 107.885C202.705 107.885 203.432 108.052 204.058 108.385C204.685 108.705 205.178 109.125 205.538 109.645V108.065H208.358V119.225C208.358 120.252 208.152 121.165 207.738 121.965C207.325 122.779 206.705 123.419 205.878 123.885C205.052 124.365 204.052 124.605 202.878 124.605C201.305 124.605 200.012 124.239 198.998 123.505C197.998 122.772 197.432 121.772 197.298 120.505H200.078C200.225 121.012 200.538 121.412 201.018 121.705C201.512 122.012 202.105 122.165 202.798 122.165C203.612 122.165 204.272 121.919 204.778 121.425C205.285 120.945 205.538 120.212 205.538 119.225V117.505C205.178 118.025 204.678 118.459 204.038 118.805C203.412 119.152 202.692 119.325 201.878 119.325C200.945 119.325 200.092 119.085 199.318 118.605C198.545 118.125 197.932 117.452 197.478 116.585C197.038 115.705 196.818 114.699 196.818 113.565C196.818 112.445 197.038 111.452 197.478 110.585C197.932 109.719 198.538 109.052 199.298 108.585C200.072 108.119 200.932 107.885 201.878 107.885ZM205.538 113.605C205.538 112.925 205.405 112.345 205.138 111.865C204.872 111.372 204.512 110.999 204.058 110.745C203.605 110.479 203.118 110.345 202.598 110.345C202.078 110.345 201.598 110.472 201.158 110.725C200.718 110.979 200.358 111.352 200.078 111.845C199.812 112.325 199.678 112.899 199.678 113.565C199.678 114.232 199.812 114.819 200.078 115.325C200.358 115.819 200.718 116.199 201.158 116.465C201.612 116.732 202.092 116.865 202.598 116.865C203.118 116.865 203.605 116.739 204.058 116.485C204.512 116.219 204.872 115.845 205.138 115.365C205.405 114.872 205.538 114.285 205.538 113.605Z" fill="#49BBBD"/>
<path d="M25.7526 137.599V145.537C25.7526 146.653 26.0226 147.481 26.5626 148.021C27.1146 148.561 27.8766 148.831 28.8486 148.831C29.8086 148.831 30.5586 148.561 31.0986 148.021C31.6506 147.481 31.9266 146.653 31.9266 145.537V137.599H33.5646V145.519C33.5646 146.563 33.3546 147.445 32.9346 148.165C32.5146 148.873 31.9446 149.401 31.2246 149.749C30.5166 150.097 29.7186 150.271 28.8306 150.271C27.9426 150.271 27.1386 150.097 26.4186 149.749C25.7106 149.401 25.1466 148.873 24.7266 148.165C24.3186 147.445 24.1146 146.563 24.1146 145.519V137.599H25.7526ZM41.1031 140.101C42.3031 140.101 43.2751 140.467 44.0191 141.199C44.7631 141.919 45.1351 142.963 45.1351 144.331V150.145H43.5151V144.565C43.5151 143.581 43.2691 142.831 42.7771 142.315C42.2851 141.787 41.6131 141.523 40.7611 141.523C39.8971 141.523 39.2071 141.793 38.6911 142.333C38.1871 142.873 37.9351 143.659 37.9351 144.691V150.145H36.2971V140.281H37.9351V141.685C38.2591 141.181 38.6971 140.791 39.2491 140.515C39.8131 140.239 40.4311 140.101 41.1031 140.101ZM47.1988 145.177C47.1988 144.169 47.4028 143.287 47.8108 142.531C48.2188 141.763 48.7768 141.169 49.4848 140.749C50.2048 140.329 51.0088 140.119 51.8968 140.119C52.6648 140.119 53.3788 140.299 54.0388 140.659C54.6988 141.007 55.2028 141.469 55.5508 142.045V136.825H57.2068V150.145H55.5508V148.291C55.2268 148.879 54.7468 149.365 54.1108 149.749C53.4748 150.121 52.7308 150.307 51.8788 150.307C51.0028 150.307 50.2048 150.091 49.4848 149.659C48.7768 149.227 48.2188 148.621 47.8108 147.841C47.4028 147.061 47.1988 146.173 47.1988 145.177ZM55.5508 145.195C55.5508 144.451 55.4008 143.803 55.1008 143.251C54.8008 142.699 54.3928 142.279 53.8768 141.991C53.3728 141.691 52.8148 141.541 52.2028 141.541C51.5908 141.541 51.0328 141.685 50.5288 141.973C50.0248 142.261 49.6228 142.681 49.3228 143.233C49.0228 143.785 48.8728 144.433 48.8728 145.177C48.8728 145.933 49.0228 146.593 49.3228 147.157C49.6228 147.709 50.0248 148.135 50.5288 148.435C51.0328 148.723 51.5908 148.867 52.2028 148.867C52.8148 148.867 53.3728 148.723 53.8768 148.435C54.3928 148.135 54.8008 147.709 55.1008 147.157C55.4008 146.593 55.5508 145.939 55.5508 145.195ZM68.9749 144.835C68.9749 145.147 68.9569 145.477 68.9209 145.825H61.0369C61.0969 146.797 61.4269 147.559 62.0269 148.111C62.6389 148.651 63.3769 148.921 64.2409 148.921C64.9489 148.921 65.5369 148.759 66.0049 148.435C66.4849 148.099 66.8209 147.655 67.0129 147.103H68.7769C68.5129 148.051 67.9849 148.825 67.1929 149.425C66.4009 150.013 65.4169 150.307 64.2409 150.307C63.3049 150.307 62.4649 150.097 61.7209 149.677C60.9889 149.257 60.4129 148.663 59.9929 147.895C59.5729 147.115 59.3629 146.215 59.3629 145.195C59.3629 144.175 59.5669 143.281 59.9749 142.513C60.3829 141.745 60.9529 141.157 61.6849 140.749C62.4289 140.329 63.2809 140.119 64.2409 140.119C65.1769 140.119 66.0049 140.323 66.7249 140.731C67.4449 141.139 67.9969 141.703 68.3809 142.423C68.7769 143.131 68.9749 143.935 68.9749 144.835ZM67.2829 144.493C67.2829 143.869 67.1449 143.335 66.8689 142.891C66.5929 142.435 66.2149 142.093 65.7349 141.865C65.2669 141.625 64.7449 141.505 64.1689 141.505C63.3409 141.505 62.6329 141.769 62.0449 142.297C61.4689 142.825 61.1389 143.557 61.0549 144.493H67.2829ZM72.775 141.883C73.063 141.319 73.471 140.881 73.999 140.569C74.539 140.257 75.193 140.101 75.961 140.101V141.793H75.529C73.693 141.793 72.775 142.789 72.775 144.781V150.145H71.137V140.281H72.775V141.883ZM81.3438 150.307C80.5878 150.307 79.9098 150.181 79.3098 149.929C78.7098 149.665 78.2358 149.305 77.8878 148.849C77.5398 148.381 77.3478 147.847 77.3118 147.247H79.0038C79.0518 147.739 79.2798 148.141 79.6878 148.453C80.1078 148.765 80.6538 148.921 81.3258 148.921C81.9498 148.921 82.4418 148.783 82.8018 148.507C83.1618 148.231 83.3418 147.883 83.3418 147.463C83.3418 147.031 83.1498 146.713 82.7658 146.509C82.3818 146.293 81.7878 146.083 80.9838 145.879C80.2518 145.687 79.6518 145.495 79.1838 145.303C78.7278 145.099 78.3318 144.805 77.9958 144.421C77.6718 144.025 77.5098 143.509 77.5098 142.873C77.5098 142.369 77.6598 141.907 77.9598 141.487C78.2598 141.067 78.6858 140.737 79.2378 140.497C79.7898 140.245 80.4198 140.119 81.1278 140.119C82.2198 140.119 83.1018 140.395 83.7738 140.947C84.4458 141.499 84.8058 142.255 84.8538 143.215H83.2158C83.1798 142.699 82.9698 142.285 82.5858 141.973C82.2138 141.661 81.7098 141.505 81.0738 141.505C80.4858 141.505 80.0178 141.631 79.6698 141.883C79.3218 142.135 79.1478 142.465 79.1478 142.873C79.1478 143.197 79.2498 143.467 79.4538 143.683C79.6698 143.887 79.9338 144.055 80.2458 144.187C80.5698 144.307 81.0138 144.445 81.5778 144.601C82.2858 144.793 82.8618 144.985 83.3058 145.177C83.7498 145.357 84.1278 145.633 84.4398 146.005C84.7638 146.377 84.9318 146.863 84.9438 147.463C84.9438 148.003 84.7938 148.489 84.4938 148.921C84.1938 149.353 83.7678 149.695 83.2158 149.947C82.6758 150.187 82.0518 150.307 81.3438 150.307ZM89.2541 141.631V147.445C89.2541 147.925 89.3561 148.267 89.5601 148.471C89.7641 148.663 90.1181 148.759 90.6221 148.759H91.8281V150.145H90.3521C89.4401 150.145 88.7561 149.935 88.3001 149.515C87.8441 149.095 87.6161 148.405 87.6161 147.445V141.631H86.3381V140.281H87.6161V137.797H89.2541V140.281H91.8281V141.631H89.2541ZM93.2008 145.177C93.2008 144.169 93.4048 143.287 93.8128 142.531C94.2208 141.763 94.7788 141.169 95.4868 140.749C96.2068 140.329 97.0048 140.119 97.8808 140.119C98.7448 140.119 99.4948 140.305 100.131 140.677C100.767 141.049 101.241 141.517 101.553 142.081V140.281H103.209V150.145H101.553V148.309C101.229 148.885 100.743 149.365 100.095 149.749C99.4588 150.121 98.7148 150.307 97.8628 150.307C96.9868 150.307 96.1948 150.091 95.4868 149.659C94.7788 149.227 94.2208 148.621 93.8128 147.841C93.4048 147.061 93.2008 146.173 93.2008 145.177ZM101.553 145.195C101.553 144.451 101.403 143.803 101.103 143.251C100.803 142.699 100.395 142.279 99.8788 141.991C99.3748 141.691 98.8168 141.541 98.2048 141.541C97.5928 141.541 97.0348 141.685 96.5308 141.973C96.0268 142.261 95.6248 142.681 95.3248 143.233C95.0248 143.785 94.8748 144.433 94.8748 145.177C94.8748 145.933 95.0248 146.593 95.3248 147.157C95.6248 147.709 96.0268 148.135 96.5308 148.435C97.0348 148.723 97.5928 148.867 98.2048 148.867C98.8168 148.867 99.3748 148.723 99.8788 148.435C100.395 148.135 100.803 147.709 101.103 147.157C101.403 146.593 101.553 145.939 101.553 145.195ZM110.783 140.101C111.983 140.101 112.955 140.467 113.699 141.199C114.443 141.919 114.815 142.963 114.815 144.331V150.145H113.195V144.565C113.195 143.581 112.949 142.831 112.457 142.315C111.965 141.787 111.293 141.523 110.441 141.523C109.577 141.523 108.887 141.793 108.371 142.333C107.867 142.873 107.615 143.659 107.615 144.691V150.145H105.977V140.281H107.615V141.685C107.939 141.181 108.377 140.791 108.929 140.515C109.493 140.239 110.111 140.101 110.783 140.101ZM116.878 145.177C116.878 144.169 117.082 143.287 117.49 142.531C117.898 141.763 118.456 141.169 119.164 140.749C119.884 140.329 120.688 140.119 121.576 140.119C122.344 140.119 123.058 140.299 123.718 140.659C124.378 141.007 124.882 141.469 125.23 142.045V136.825H126.886V150.145H125.23V148.291C124.906 148.879 124.426 149.365 123.79 149.749C123.154 150.121 122.41 150.307 121.558 150.307C120.682 150.307 119.884 150.091 119.164 149.659C118.456 149.227 117.898 148.621 117.49 147.841C117.082 147.061 116.878 146.173 116.878 145.177ZM125.23 145.195C125.23 144.451 125.08 143.803 124.78 143.251C124.48 142.699 124.072 142.279 123.556 141.991C123.052 141.691 122.494 141.541 121.882 141.541C121.27 141.541 120.712 141.685 120.208 141.973C119.704 142.261 119.302 142.681 119.002 143.233C118.702 143.785 118.552 144.433 118.552 145.177C118.552 145.933 118.702 146.593 119.002 147.157C119.302 147.709 119.704 148.135 120.208 148.435C120.712 148.723 121.27 148.867 121.882 148.867C122.494 148.867 123.052 148.723 123.556 148.435C124.072 148.135 124.48 147.709 124.78 147.157C125.08 146.593 125.23 145.939 125.23 145.195ZM130.501 138.679C130.189 138.679 129.925 138.571 129.709 138.355C129.493 138.139 129.385 137.875 129.385 137.563C129.385 137.251 129.493 136.987 129.709 136.771C129.925 136.555 130.189 136.447 130.501 136.447C130.801 136.447 131.053 136.555 131.257 136.771C131.473 136.987 131.581 137.251 131.581 137.563C131.581 137.875 131.473 138.139 131.257 138.355C131.053 138.571 130.801 138.679 130.501 138.679ZM131.293 140.281V150.145H129.655V140.281H131.293ZM138.89 140.101C140.09 140.101 141.062 140.467 141.806 141.199C142.55 141.919 142.922 142.963 142.922 144.331V150.145H141.302V144.565C141.302 143.581 141.056 142.831 140.564 142.315C140.072 141.787 139.4 141.523 138.548 141.523C137.684 141.523 136.994 141.793 136.478 142.333C135.974 142.873 135.722 143.659 135.722 144.691V150.145H134.084V140.281H135.722V141.685C136.046 141.181 136.484 140.791 137.036 140.515C137.6 140.239 138.218 140.101 138.89 140.101ZM149.666 140.119C150.518 140.119 151.262 140.305 151.898 140.677C152.546 141.049 153.026 141.517 153.338 142.081V140.281H154.994V150.361C154.994 151.261 154.802 152.059 154.418 152.755C154.034 153.463 153.482 154.015 152.762 154.411C152.054 154.807 151.226 155.005 150.278 155.005C148.982 155.005 147.902 154.699 147.038 154.087C146.174 153.475 145.664 152.641 145.508 151.585H147.128C147.308 152.185 147.68 152.665 148.244 153.025C148.808 153.397 149.486 153.583 150.278 153.583C151.178 153.583 151.91 153.301 152.474 152.737C153.05 152.173 153.338 151.381 153.338 150.361V148.291C153.014 148.867 152.534 149.347 151.898 149.731C151.262 150.115 150.518 150.307 149.666 150.307C148.79 150.307 147.992 150.091 147.272 149.659C146.564 149.227 146.006 148.621 145.598 147.841C145.19 147.061 144.986 146.173 144.986 145.177C144.986 144.169 145.19 143.287 145.598 142.531C146.006 141.763 146.564 141.169 147.272 140.749C147.992 140.329 148.79 140.119 149.666 140.119ZM153.338 145.195C153.338 144.451 153.188 143.803 152.888 143.251C152.588 142.699 152.18 142.279 151.664 141.991C151.16 141.691 150.602 141.541 149.99 141.541C149.378 141.541 148.82 141.685 148.316 141.973C147.812 142.261 147.41 142.681 147.11 143.233C146.81 143.785 146.66 144.433 146.66 145.177C146.66 145.933 146.81 146.593 147.11 147.157C147.41 147.709 147.812 148.135 148.316 148.435C148.82 148.723 149.378 148.867 149.99 148.867C150.602 148.867 151.16 148.723 151.664 148.435C152.18 148.135 152.588 147.709 152.888 147.157C153.188 146.593 153.338 145.939 153.338 145.195ZM171.057 140.281L165.117 154.789H163.425L165.369 150.037L161.391 140.281H163.209L166.305 148.273L169.365 140.281H171.057ZM177.005 150.307C176.081 150.307 175.241 150.097 174.485 149.677C173.741 149.257 173.153 148.663 172.721 147.895C172.301 147.115 172.091 146.215 172.091 145.195C172.091 144.187 172.307 143.299 172.739 142.531C173.183 141.751 173.783 141.157 174.539 140.749C175.295 140.329 176.141 140.119 177.077 140.119C178.013 140.119 178.859 140.329 179.615 140.749C180.371 141.157 180.965 141.745 181.397 142.513C181.841 143.281 182.063 144.175 182.063 145.195C182.063 146.215 181.835 147.115 181.379 147.895C180.935 148.663 180.329 149.257 179.561 149.677C178.793 150.097 177.941 150.307 177.005 150.307ZM177.005 148.867C177.593 148.867 178.145 148.729 178.661 148.453C179.177 148.177 179.591 147.763 179.903 147.211C180.227 146.659 180.389 145.987 180.389 145.195C180.389 144.403 180.233 143.731 179.921 143.179C179.609 142.627 179.201 142.219 178.697 141.955C178.193 141.679 177.647 141.541 177.059 141.541C176.459 141.541 175.907 141.679 175.403 141.955C174.911 142.219 174.515 142.627 174.215 143.179C173.915 143.731 173.765 144.403 173.765 145.195C173.765 145.999 173.909 146.677 174.197 147.229C174.497 147.781 174.893 148.195 175.385 148.471C175.877 148.735 176.417 148.867 177.005 148.867ZM192.965 140.281V150.145H191.327V148.687C191.015 149.191 190.577 149.587 190.013 149.875C189.461 150.151 188.849 150.289 188.177 150.289C187.409 150.289 186.719 150.133 186.107 149.821C185.495 149.497 185.009 149.017 184.649 148.381C184.301 147.745 184.127 146.971 184.127 146.059V140.281H185.747V145.843C185.747 146.815 185.993 147.565 186.485 148.093C186.977 148.609 187.649 148.867 188.501 148.867C189.377 148.867 190.067 148.597 190.571 148.057C191.075 147.517 191.327 146.731 191.327 145.699V140.281H192.965ZM197.369 141.883C197.657 141.319 198.065 140.881 198.593 140.569C199.133 140.257 199.787 140.101 200.555 140.101V141.793H200.123C198.287 141.793 197.369 142.789 197.369 144.781V150.145H195.731V140.281H197.369V141.883ZM22.0269 164.099C22.3509 163.535 22.8309 163.067 23.4669 162.695C24.1149 162.311 24.8649 162.119 25.7169 162.119C26.5929 162.119 27.3849 162.329 28.0929 162.749C28.8129 163.169 29.3769 163.763 29.7849 164.531C30.1929 165.287 30.3969 166.169 30.3969 167.177C30.3969 168.173 30.1929 169.061 29.7849 169.841C29.3769 170.621 28.8129 171.227 28.0929 171.659C27.3849 172.091 26.5929 172.307 25.7169 172.307C24.8769 172.307 24.1329 172.121 23.4849 171.749C22.8489 171.365 22.3629 170.891 22.0269 170.327V176.825H20.3889V162.281H22.0269V164.099ZM28.7229 167.177C28.7229 166.433 28.5729 165.785 28.2729 165.233C27.9729 164.681 27.5649 164.261 27.0489 163.973C26.5449 163.685 25.9869 163.541 25.3749 163.541C24.7749 163.541 24.2169 163.691 23.7009 163.991C23.1969 164.279 22.7889 164.705 22.4769 165.269C22.1769 165.821 22.0269 166.463 22.0269 167.195C22.0269 167.939 22.1769 168.593 22.4769 169.157C22.7889 169.709 23.1969 170.135 23.7009 170.435C24.2169 170.723 24.7749 170.867 25.3749 170.867C25.9869 170.867 26.5449 170.723 27.0489 170.435C27.5649 170.135 27.9729 169.709 28.2729 169.157C28.5729 168.593 28.7229 167.933 28.7229 167.177ZM34.191 163.883C34.479 163.319 34.887 162.881 35.415 162.569C35.955 162.257 36.609 162.101 37.377 162.101V163.793H36.945C35.109 163.793 34.191 164.789 34.191 166.781V172.145H32.553V162.281H34.191V163.883ZM43.5698 172.307C42.6458 172.307 41.8058 172.097 41.0498 171.677C40.3058 171.257 39.7178 170.663 39.2858 169.895C38.8658 169.115 38.6558 168.215 38.6558 167.195C38.6558 166.187 38.8718 165.299 39.3038 164.531C39.7478 163.751 40.3478 163.157 41.1038 162.749C41.8598 162.329 42.7058 162.119 43.6418 162.119C44.5778 162.119 45.4238 162.329 46.1798 162.749C46.9358 163.157 47.5298 163.745 47.9618 164.513C48.4058 165.281 48.6278 166.175 48.6278 167.195C48.6278 168.215 48.3998 169.115 47.9438 169.895C47.4998 170.663 46.8938 171.257 46.1258 171.677C45.3578 172.097 44.5058 172.307 43.5698 172.307ZM43.5698 170.867C44.1578 170.867 44.7098 170.729 45.2258 170.453C45.7418 170.177 46.1558 169.763 46.4678 169.211C46.7918 168.659 46.9538 167.987 46.9538 167.195C46.9538 166.403 46.7978 165.731 46.4858 165.179C46.1738 164.627 45.7658 164.219 45.2618 163.955C44.7578 163.679 44.2118 163.541 43.6238 163.541C43.0238 163.541 42.4718 163.679 41.9678 163.955C41.4758 164.219 41.0798 164.627 40.7798 165.179C40.4798 165.731 40.3298 166.403 40.3298 167.195C40.3298 167.999 40.4738 168.677 40.7618 169.229C41.0618 169.781 41.4578 170.195 41.9498 170.471C42.4418 170.735 42.9818 170.867 43.5698 170.867ZM54.7955 163.631H52.7255V172.145H51.0875V163.631H49.8095V162.281H51.0875V161.579C51.0875 160.475 51.3695 159.671 51.9335 159.167C52.5095 158.651 53.4275 158.393 54.6875 158.393V159.761C53.9675 159.761 53.4575 159.905 53.1575 160.193C52.8695 160.469 52.7255 160.931 52.7255 161.579V162.281H54.7955V163.631ZM57.5513 160.679C57.2393 160.679 56.9753 160.571 56.7593 160.355C56.5433 160.139 56.4353 159.875 56.4353 159.563C56.4353 159.251 56.5433 158.987 56.7593 158.771C56.9753 158.555 57.2393 158.447 57.5513 158.447C57.8513 158.447 58.1033 158.555 58.3073 158.771C58.5233 158.987 58.6313 159.251 58.6313 159.563C58.6313 159.875 58.5233 160.139 58.3073 160.355C58.1033 160.571 57.8513 160.679 57.5513 160.679ZM58.3433 162.281V172.145H56.7053V162.281H58.3433ZM62.773 158.825V172.145H61.135V158.825H62.773ZM74.5647 166.835C74.5647 167.147 74.5467 167.477 74.5107 167.825H66.6267C66.6867 168.797 67.0167 169.559 67.6167 170.111C68.2287 170.651 68.9667 170.921 69.8307 170.921C70.5387 170.921 71.1267 170.759 71.5947 170.435C72.0747 170.099 72.4107 169.655 72.6027 169.103H74.3667C74.1027 170.051 73.5747 170.825 72.7827 171.425C71.9907 172.013 71.0067 172.307 69.8307 172.307C68.8947 172.307 68.0547 172.097 67.3107 171.677C66.5787 171.257 66.0027 170.663 65.5827 169.895C65.1627 169.115 64.9527 168.215 64.9527 167.195C64.9527 166.175 65.1567 165.281 65.5647 164.513C65.9727 163.745 66.5427 163.157 67.2747 162.749C68.0187 162.329 68.8707 162.119 69.8307 162.119C70.7667 162.119 71.5947 162.323 72.3147 162.731C73.0347 163.139 73.5867 163.703 73.9707 164.423C74.3667 165.131 74.5647 165.935 74.5647 166.835ZM72.8727 166.493C72.8727 165.869 72.7347 165.335 72.4587 164.891C72.1827 164.435 71.8047 164.093 71.3247 163.865C70.8567 163.625 70.3347 163.505 69.7587 163.505C68.9307 163.505 68.2227 163.769 67.6347 164.297C67.0587 164.825 66.7287 165.557 66.6447 166.493H72.8727ZM78.4188 169.877L76.4028 174.719H75.3048L76.6188 169.877H78.4188ZM85.94 160.679C85.628 160.679 85.364 160.571 85.148 160.355C84.932 160.139 84.824 159.875 84.824 159.563C84.824 159.251 84.932 158.987 85.148 158.771C85.364 158.555 85.628 158.447 85.94 158.447C86.24 158.447 86.492 158.555 86.696 158.771C86.912 158.987 87.02 159.251 87.02 159.563C87.02 159.875 86.912 160.139 86.696 160.355C86.492 160.571 86.24 160.679 85.94 160.679ZM86.732 162.281V172.145H85.094V162.281H86.732ZM94.3297 162.101C95.5297 162.101 96.5017 162.467 97.2457 163.199C97.9897 163.919 98.3617 164.963 98.3617 166.331V172.145H96.7417V166.565C96.7417 165.581 96.4957 164.831 96.0037 164.315C95.5117 163.787 94.8397 163.523 93.9877 163.523C93.1237 163.523 92.4337 163.793 91.9177 164.333C91.4137 164.873 91.1617 165.659 91.1617 166.691V172.145H89.5237V162.281H91.1617V163.685C91.4857 163.181 91.9237 162.791 92.4757 162.515C93.0397 162.239 93.6577 162.101 94.3297 162.101ZM103.035 163.631V169.445C103.035 169.925 103.137 170.267 103.341 170.471C103.545 170.663 103.899 170.759 104.403 170.759H105.609V172.145H104.133C103.221 172.145 102.537 171.935 102.081 171.515C101.625 171.095 101.397 170.405 101.397 169.445V163.631H100.119V162.281H101.397V159.797H103.035V162.281H105.609V163.631H103.035ZM116.594 166.835C116.594 167.147 116.576 167.477 116.54 167.825H108.656C108.716 168.797 109.046 169.559 109.646 170.111C110.258 170.651 110.996 170.921 111.86 170.921C112.568 170.921 113.156 170.759 113.624 170.435C114.104 170.099 114.44 169.655 114.632 169.103H116.396C116.132 170.051 115.604 170.825 114.812 171.425C114.02 172.013 113.036 172.307 111.86 172.307C110.924 172.307 110.084 172.097 109.34 171.677C108.608 171.257 108.032 170.663 107.612 169.895C107.192 169.115 106.982 168.215 106.982 167.195C106.982 166.175 107.186 165.281 107.594 164.513C108.002 163.745 108.572 163.157 109.304 162.749C110.048 162.329 110.9 162.119 111.86 162.119C112.796 162.119 113.624 162.323 114.344 162.731C115.064 163.139 115.616 163.703 116 164.423C116.396 165.131 116.594 165.935 116.594 166.835ZM114.902 166.493C114.902 165.869 114.764 165.335 114.488 164.891C114.212 164.435 113.834 164.093 113.354 163.865C112.886 163.625 112.364 163.505 111.788 163.505C110.96 163.505 110.252 163.769 109.664 164.297C109.088 164.825 108.758 165.557 108.674 166.493H114.902ZM120.394 163.883C120.682 163.319 121.09 162.881 121.618 162.569C122.158 162.257 122.812 162.101 123.58 162.101V163.793H123.148C121.312 163.793 120.394 164.789 120.394 166.781V172.145H118.756V162.281H120.394V163.883ZM134.471 166.835C134.471 167.147 134.453 167.477 134.417 167.825H126.533C126.593 168.797 126.923 169.559 127.523 170.111C128.135 170.651 128.873 170.921 129.737 170.921C130.445 170.921 131.033 170.759 131.501 170.435C131.981 170.099 132.317 169.655 132.509 169.103H134.273C134.009 170.051 133.481 170.825 132.689 171.425C131.897 172.013 130.913 172.307 129.737 172.307C128.801 172.307 127.961 172.097 127.217 171.677C126.485 171.257 125.909 170.663 125.489 169.895C125.069 169.115 124.859 168.215 124.859 167.195C124.859 166.175 125.063 165.281 125.471 164.513C125.879 163.745 126.449 163.157 127.181 162.749C127.925 162.329 128.777 162.119 129.737 162.119C130.673 162.119 131.501 162.323 132.221 162.731C132.941 163.139 133.493 163.703 133.877 164.423C134.273 165.131 134.471 165.935 134.471 166.835ZM132.779 166.493C132.779 165.869 132.641 165.335 132.365 164.891C132.089 164.435 131.711 164.093 131.231 163.865C130.763 163.625 130.241 163.505 129.665 163.505C128.837 163.505 128.129 163.769 127.541 164.297C126.965 164.825 126.635 165.557 126.551 166.493H132.779ZM140.125 172.307C139.369 172.307 138.691 172.181 138.091 171.929C137.491 171.665 137.017 171.305 136.669 170.849C136.321 170.381 136.129 169.847 136.093 169.247H137.785C137.833 169.739 138.061 170.141 138.469 170.453C138.889 170.765 139.435 170.921 140.107 170.921C140.731 170.921 141.223 170.783 141.583 170.507C141.943 170.231 142.123 169.883 142.123 169.463C142.123 169.031 141.931 168.713 141.547 168.509C141.163 168.293 140.569 168.083 139.765 167.879C139.033 167.687 138.433 167.495 137.965 167.303C137.509 167.099 137.113 166.805 136.777 166.421C136.453 166.025 136.291 165.509 136.291 164.873C136.291 164.369 136.441 163.907 136.741 163.487C137.041 163.067 137.467 162.737 138.019 162.497C138.571 162.245 139.201 162.119 139.909 162.119C141.001 162.119 141.883 162.395 142.555 162.947C143.227 163.499 143.587 164.255 143.635 165.215H141.997C141.961 164.699 141.751 164.285 141.367 163.973C140.995 163.661 140.491 163.505 139.855 163.505C139.267 163.505 138.799 163.631 138.451 163.883C138.103 164.135 137.929 164.465 137.929 164.873C137.929 165.197 138.031 165.467 138.235 165.683C138.451 165.887 138.715 166.055 139.027 166.187C139.351 166.307 139.795 166.445 140.359 166.601C141.067 166.793 141.643 166.985 142.087 167.177C142.531 167.357 142.909 167.633 143.221 168.005C143.545 168.377 143.713 168.863 143.725 169.463C143.725 170.003 143.575 170.489 143.275 170.921C142.975 171.353 142.549 171.695 141.997 171.947C141.457 172.187 140.833 172.307 140.125 172.307ZM148.035 163.631V169.445C148.035 169.925 148.137 170.267 148.341 170.471C148.545 170.663 148.899 170.759 149.403 170.759H150.609V172.145H149.133C148.221 172.145 147.537 171.935 147.081 171.515C146.625 171.095 146.397 170.405 146.397 169.445V163.631H145.119V162.281H146.397V159.797H148.035V162.281H150.609V163.631H148.035ZM156.086 172.307C155.33 172.307 154.652 172.181 154.052 171.929C153.452 171.665 152.978 171.305 152.63 170.849C152.282 170.381 152.09 169.847 152.054 169.247H153.746C153.794 169.739 154.022 170.141 154.43 170.453C154.85 170.765 155.396 170.921 156.068 170.921C156.692 170.921 157.184 170.783 157.544 170.507C157.904 170.231 158.084 169.883 158.084 169.463C158.084 169.031 157.892 168.713 157.508 168.509C157.124 168.293 156.53 168.083 155.726 167.879C154.994 167.687 154.394 167.495 153.926 167.303C153.47 167.099 153.074 166.805 152.738 166.421C152.414 166.025 152.252 165.509 152.252 164.873C152.252 164.369 152.402 163.907 152.702 163.487C153.002 163.067 153.428 162.737 153.98 162.497C154.532 162.245 155.162 162.119 155.87 162.119C156.962 162.119 157.844 162.395 158.516 162.947C159.188 163.499 159.548 164.255 159.596 165.215H157.958C157.922 164.699 157.712 164.285 157.328 163.973C156.956 163.661 156.452 163.505 155.816 163.505C155.228 163.505 154.76 163.631 154.412 163.883C154.064 164.135 153.89 164.465 153.89 164.873C153.89 165.197 153.992 165.467 154.196 165.683C154.412 165.887 154.676 166.055 154.988 166.187C155.312 166.307 155.756 166.445 156.32 166.601C157.028 166.793 157.604 166.985 158.048 167.177C158.492 167.357 158.87 167.633 159.182 168.005C159.506 168.377 159.674 168.863 159.686 169.463C159.686 170.003 159.536 170.489 159.236 170.921C158.936 171.353 158.51 171.695 157.958 171.947C157.418 172.187 156.794 172.307 156.086 172.307ZM163.69 169.877L161.674 174.719H160.576L161.89 169.877H163.69ZM169.753 167.177C169.753 166.169 169.957 165.287 170.365 164.531C170.773 163.763 171.331 163.169 172.039 162.749C172.759 162.329 173.557 162.119 174.433 162.119C175.297 162.119 176.047 162.305 176.683 162.677C177.319 163.049 177.793 163.517 178.105 164.081V162.281H179.761V172.145H178.105V170.309C177.781 170.885 177.295 171.365 176.647 171.749C176.011 172.121 175.267 172.307 174.415 172.307C173.539 172.307 172.747 172.091 172.039 171.659C171.331 171.227 170.773 170.621 170.365 169.841C169.957 169.061 169.753 168.173 169.753 167.177ZM178.105 167.195C178.105 166.451 177.955 165.803 177.655 165.251C177.355 164.699 176.947 164.279 176.431 163.991C175.927 163.691 175.369 163.541 174.757 163.541C174.145 163.541 173.587 163.685 173.083 163.973C172.579 164.261 172.177 164.681 171.877 165.233C171.577 165.785 171.427 166.433 171.427 167.177C171.427 167.933 171.577 168.593 171.877 169.157C172.177 169.709 172.579 170.135 173.083 170.435C173.587 170.723 174.145 170.867 174.757 170.867C175.369 170.867 175.927 170.723 176.431 170.435C176.947 170.135 177.355 169.709 177.655 169.157C177.955 168.593 178.105 167.939 178.105 167.195ZM187.336 162.101C188.536 162.101 189.508 162.467 190.252 163.199C190.996 163.919 191.368 164.963 191.368 166.331V172.145H189.748V166.565C189.748 165.581 189.502 164.831 189.01 164.315C188.518 163.787 187.846 163.523 186.994 163.523C186.13 163.523 185.44 163.793 184.924 164.333C184.42 164.873 184.168 165.659 184.168 166.691V172.145H182.53V162.281H184.168V163.685C184.492 163.181 184.93 162.791 185.482 162.515C186.046 162.239 186.664 162.101 187.336 162.101ZM193.431 167.177C193.431 166.169 193.635 165.287 194.043 164.531C194.451 163.763 195.009 163.169 195.717 162.749C196.437 162.329 197.241 162.119 198.129 162.119C198.897 162.119 199.611 162.299 200.271 162.659C200.931 163.007 201.435 163.469 201.783 164.045V158.825H203.439V172.145H201.783V170.291C201.459 170.879 200.979 171.365 200.343 171.749C199.707 172.121 198.963 172.307 198.111 172.307C197.235 172.307 196.437 172.091 195.717 171.659C195.009 171.227 194.451 170.621 194.043 169.841C193.635 169.061 193.431 168.173 193.431 167.177ZM201.783 167.195C201.783 166.451 201.633 165.803 201.333 165.251C201.033 164.699 200.625 164.279 200.109 163.991C199.605 163.691 199.047 163.541 198.435 163.541C197.823 163.541 197.265 163.685 196.761 163.973C196.257 164.261 195.855 164.681 195.555 165.233C195.255 165.785 195.105 166.433 195.105 167.177C195.105 167.933 195.255 168.593 195.555 169.157C195.855 169.709 196.257 170.135 196.761 170.435C197.265 170.723 197.823 170.867 198.435 170.867C199.047 170.867 199.605 170.723 200.109 170.435C200.625 170.135 201.033 169.709 201.333 169.157C201.633 168.593 201.783 167.939 201.783 167.195ZM63.3824 185.631H61.3124V194.145H59.6744V185.631H58.3964V184.281H59.6744V183.579C59.6744 182.475 59.9564 181.671 60.5204 181.167C61.0964 180.651 62.0144 180.393 63.2744 180.393V181.761C62.5544 181.761 62.0444 181.905 61.7444 182.193C61.4564 182.469 61.3124 182.931 61.3124 183.579V184.281H63.3824V185.631ZM74.0403 184.281V194.145H72.4023V192.687C72.0903 193.191 71.6523 193.587 71.0883 193.875C70.5363 194.151 69.9243 194.289 69.2523 194.289C68.4843 194.289 67.7943 194.133 67.1823 193.821C66.5703 193.497 66.0843 193.017 65.7243 192.381C65.3763 191.745 65.2023 190.971 65.2023 190.059V184.281H66.8223V189.843C66.8223 190.815 67.0683 191.565 67.5603 192.093C68.0523 192.609 68.7243 192.867 69.5763 192.867C70.4523 192.867 71.1423 192.597 71.6463 192.057C72.1503 191.517 72.4023 190.731 72.4023 189.699V184.281H74.0403ZM78.8039 185.631V191.445C78.8039 191.925 78.9059 192.267 79.1099 192.471C79.3139 192.663 79.6679 192.759 80.1719 192.759H81.3779V194.145H79.9019C78.9899 194.145 78.3059 193.935 77.8499 193.515C77.3939 193.095 77.1659 192.405 77.1659 191.445V185.631H75.8879V184.281H77.1659V181.797H78.8039V184.281H81.3779V185.631H78.8039ZM92.1106 184.281V194.145H90.4726V192.687C90.1606 193.191 89.7226 193.587 89.1586 193.875C88.6066 194.151 87.9946 194.289 87.3226 194.289C86.5546 194.289 85.8646 194.133 85.2526 193.821C84.6406 193.497 84.1546 193.017 83.7946 192.381C83.4466 191.745 83.2726 190.971 83.2726 190.059V184.281H84.8926V189.843C84.8926 190.815 85.1386 191.565 85.6306 192.093C86.1226 192.609 86.7946 192.867 87.6466 192.867C88.5226 192.867 89.2126 192.597 89.7166 192.057C90.2206 191.517 90.4726 190.731 90.4726 189.699V184.281H92.1106ZM96.5142 185.883C96.8022 185.319 97.2102 184.881 97.7382 184.569C98.2782 184.257 98.9322 184.101 99.7002 184.101V185.793H99.2682C97.4322 185.793 96.5142 186.789 96.5142 188.781V194.145H94.8762V184.281H96.5142V185.883ZM110.591 188.835C110.591 189.147 110.573 189.477 110.537 189.825H102.653C102.713 190.797 103.043 191.559 103.643 192.111C104.255 192.651 104.993 192.921 105.857 192.921C106.565 192.921 107.153 192.759 107.621 192.435C108.101 192.099 108.437 191.655 108.629 191.103H110.393C110.129 192.051 109.601 192.825 108.809 193.425C108.017 194.013 107.033 194.307 105.857 194.307C104.921 194.307 104.081 194.097 103.337 193.677C102.605 193.257 102.029 192.663 101.609 191.895C101.189 191.115 100.979 190.215 100.979 189.195C100.979 188.175 101.183 187.281 101.591 186.513C101.999 185.745 102.569 185.157 103.301 184.749C104.045 184.329 104.897 184.119 105.857 184.119C106.793 184.119 107.621 184.323 108.341 184.731C109.061 185.139 109.613 185.703 109.997 186.423C110.393 187.131 110.591 187.935 110.591 188.835ZM108.899 188.493C108.899 187.869 108.761 187.335 108.485 186.891C108.209 186.435 107.831 186.093 107.351 185.865C106.883 185.625 106.361 185.505 105.785 185.505C104.957 185.505 104.249 185.769 103.661 186.297C103.085 186.825 102.755 187.557 102.671 188.493H108.899ZM121.62 184.119C122.472 184.119 123.216 184.305 123.852 184.677C124.5 185.049 124.98 185.517 125.292 186.081V184.281H126.948V194.361C126.948 195.261 126.756 196.059 126.372 196.755C125.988 197.463 125.436 198.015 124.716 198.411C124.008 198.807 123.18 199.005 122.232 199.005C120.936 199.005 119.856 198.699 118.992 198.087C118.128 197.475 117.618 196.641 117.462 195.585H119.082C119.262 196.185 119.634 196.665 120.198 197.025C120.762 197.397 121.44 197.583 122.232 197.583C123.132 197.583 123.864 197.301 124.428 196.737C125.004 196.173 125.292 195.381 125.292 194.361V192.291C124.968 192.867 124.488 193.347 123.852 193.731C123.216 194.115 122.472 194.307 121.62 194.307C120.744 194.307 119.946 194.091 119.226 193.659C118.518 193.227 117.96 192.621 117.552 191.841C117.144 191.061 116.94 190.173 116.94 189.177C116.94 188.169 117.144 187.287 117.552 186.531C117.96 185.763 118.518 185.169 119.226 184.749C119.946 184.329 120.744 184.119 121.62 184.119ZM125.292 189.195C125.292 188.451 125.142 187.803 124.842 187.251C124.542 186.699 124.134 186.279 123.618 185.991C123.114 185.691 122.556 185.541 121.944 185.541C121.332 185.541 120.774 185.685 120.27 185.973C119.766 186.261 119.364 186.681 119.064 187.233C118.764 187.785 118.614 188.433 118.614 189.177C118.614 189.933 118.764 190.593 119.064 191.157C119.364 191.709 119.766 192.135 120.27 192.435C120.774 192.723 121.332 192.867 121.944 192.867C122.556 192.867 123.114 192.723 123.618 192.435C124.134 192.135 124.542 191.709 124.842 191.157C125.142 190.593 125.292 189.939 125.292 189.195ZM134.018 194.307C133.094 194.307 132.254 194.097 131.498 193.677C130.754 193.257 130.166 192.663 129.734 191.895C129.314 191.115 129.104 190.215 129.104 189.195C129.104 188.187 129.32 187.299 129.752 186.531C130.196 185.751 130.796 185.157 131.552 184.749C132.308 184.329 133.154 184.119 134.09 184.119C135.026 184.119 135.872 184.329 136.628 184.749C137.384 185.157 137.978 185.745 138.41 186.513C138.854 187.281 139.076 188.175 139.076 189.195C139.076 190.215 138.848 191.115 138.392 191.895C137.948 192.663 137.342 193.257 136.574 193.677C135.806 194.097 134.954 194.307 134.018 194.307ZM134.018 192.867C134.606 192.867 135.158 192.729 135.674 192.453C136.19 192.177 136.604 191.763 136.916 191.211C137.24 190.659 137.402 189.987 137.402 189.195C137.402 188.403 137.246 187.731 136.934 187.179C136.622 186.627 136.214 186.219 135.71 185.955C135.206 185.679 134.66 185.541 134.072 185.541C133.472 185.541 132.92 185.679 132.416 185.955C131.924 186.219 131.528 186.627 131.228 187.179C130.928 187.731 130.778 188.403 130.778 189.195C130.778 189.999 130.922 190.677 131.21 191.229C131.51 191.781 131.906 192.195 132.398 192.471C132.89 192.735 133.43 192.867 134.018 192.867ZM140.618 189.177C140.618 188.169 140.822 187.287 141.23 186.531C141.638 185.763 142.196 185.169 142.904 184.749C143.624 184.329 144.422 184.119 145.298 184.119C146.162 184.119 146.912 184.305 147.548 184.677C148.184 185.049 148.658 185.517 148.97 186.081V184.281H150.626V194.145H148.97V192.309C148.646 192.885 148.16 193.365 147.512 193.749C146.876 194.121 146.132 194.307 145.28 194.307C144.404 194.307 143.612 194.091 142.904 193.659C142.196 193.227 141.638 192.621 141.23 191.841C140.822 191.061 140.618 190.173 140.618 189.177ZM148.97 189.195C148.97 188.451 148.82 187.803 148.52 187.251C148.22 186.699 147.812 186.279 147.296 185.991C146.792 185.691 146.234 185.541 145.622 185.541C145.01 185.541 144.452 185.685 143.948 185.973C143.444 186.261 143.042 186.681 142.742 187.233C142.442 187.785 142.292 188.433 142.292 189.177C142.292 189.933 142.442 190.593 142.742 191.157C143.042 191.709 143.444 192.135 143.948 192.435C144.452 192.723 145.01 192.867 145.622 192.867C146.234 192.867 146.792 192.723 147.296 192.435C147.812 192.135 148.22 191.709 148.52 191.157C148.82 190.593 148.97 189.939 148.97 189.195ZM155.032 180.825V194.145H153.394V180.825H155.032ZM161.316 194.307C160.56 194.307 159.882 194.181 159.282 193.929C158.682 193.665 158.208 193.305 157.86 192.849C157.512 192.381 157.32 191.847 157.284 191.247H158.976C159.024 191.739 159.252 192.141 159.66 192.453C160.08 192.765 160.626 192.921 161.298 192.921C161.922 192.921 162.414 192.783 162.774 192.507C163.134 192.231 163.314 191.883 163.314 191.463C163.314 191.031 163.122 190.713 162.738 190.509C162.354 190.293 161.76 190.083 160.956 189.879C160.224 189.687 159.624 189.495 159.156 189.303C158.7 189.099 158.304 188.805 157.968 188.421C157.644 188.025 157.482 187.509 157.482 186.873C157.482 186.369 157.632 185.907 157.932 185.487C158.232 185.067 158.658 184.737 159.21 184.497C159.762 184.245 160.392 184.119 161.1 184.119C162.192 184.119 163.074 184.395 163.746 184.947C164.418 185.499 164.778 186.255 164.826 187.215H163.188C163.152 186.699 162.942 186.285 162.558 185.973C162.186 185.661 161.682 185.505 161.046 185.505C160.458 185.505 159.99 185.631 159.642 185.883C159.294 186.135 159.12 186.465 159.12 186.873C159.12 187.197 159.222 187.467 159.426 187.683C159.642 187.887 159.906 188.055 160.218 188.187C160.542 188.307 160.986 188.445 161.55 188.601C162.258 188.793 162.834 188.985 163.278 189.177C163.722 189.357 164.1 189.633 164.412 190.005C164.736 190.377 164.904 190.863 164.916 191.463C164.916 192.003 164.766 192.489 164.466 192.921C164.166 193.353 163.74 193.695 163.188 193.947C162.648 194.187 162.024 194.307 161.316 194.307Z" fill="#002741"/>
<path d="M106.834 78.3611C106.834 75.561 104.556 73.283 101.756 73.283C98.9558 73.283 96.6777 75.561 96.6777 78.3611C96.6777 81.1612 98.9558 83.4392 101.756 83.4392C104.556 83.4392 106.834 81.1612 106.834 78.3611ZM98.2402 78.3611C98.2402 76.4226 99.8173 74.8455 101.756 74.8455C103.694 74.8455 105.271 76.4226 105.271 78.3611C105.271 80.2996 103.694 81.8767 101.756 81.8767C99.8173 81.8767 98.2402 80.2996 98.2402 78.3611Z" fill="#49BBBD"/>
<path d="M109.178 91.6423C109.609 91.6423 109.959 91.2925 109.959 90.8611V89.6892C109.959 87.1045 107.856 85.0017 105.271 85.0017H98.2402C95.6555 85.0017 93.5527 87.1045 93.5527 89.6892V90.8611C93.5527 91.2925 93.9025 91.6423 94.334 91.6423C94.7654 91.6423 95.1152 91.2925 95.1152 90.8611V89.6892C95.1152 87.9661 96.5171 86.5642 98.2402 86.5642H105.271C106.995 86.5642 108.396 87.9661 108.396 89.6892V90.8611C108.397 91.2925 108.746 91.6423 109.178 91.6423Z" fill="#49BBBD"/>
<path d="M127.146 75.2361C127.146 72.436 124.868 70.158 122.068 70.158C119.268 70.158 116.99 72.436 116.99 75.2361C116.99 78.0362 119.268 80.3142 122.068 80.3142C124.868 80.3142 127.146 78.0362 127.146 75.2361ZM118.553 75.2361C118.553 73.2976 120.13 71.7205 122.068 71.7205C124.007 71.7205 125.584 73.2976 125.584 75.2361C125.584 77.1746 124.007 78.7517 122.068 78.7517C120.13 78.7517 118.553 77.1746 118.553 75.2361Z" fill="#49BBBD"/>
<path d="M113.865 86.5642V90.8611C113.865 91.2925 114.215 91.6423 114.646 91.6423C115.078 91.6423 115.428 91.2925 115.428 90.8611V86.5642C115.428 84.8411 116.83 83.4392 118.553 83.4392H125.584C127.307 83.4392 128.709 84.8411 128.709 86.5642V90.8611C128.709 91.2925 129.059 91.6423 129.49 91.6423C129.922 91.6423 130.271 91.2925 130.271 90.8611V86.5642C130.271 83.9795 128.169 81.8767 125.584 81.8767H118.553C115.968 81.8767 113.865 83.9795 113.865 86.5642Z" fill="#49BBBD"/>
<path d="M121.287 85.783V89.2986C121.287 89.73 121.637 90.0798 122.068 90.0798C122.5 90.0798 122.85 89.73 122.85 89.2986V85.783C122.85 85.3515 122.5 85.0017 122.068 85.0017C121.637 85.0017 121.287 85.3515 121.287 85.783Z" fill="#49BBBD"/>
<path d="M90.0371 70.8607V74.36C90.0371 75.1528 90.5103 75.8611 91.2428 76.1645C91.4859 76.2652 91.7403 76.3142 91.9922 76.3141C92.4994 76.3141 92.9967 76.1156 93.3713 75.7411L98.1732 70.9392H111.131C111.562 70.9392 111.912 70.5894 111.912 70.158C111.912 69.7265 111.562 69.3767 111.131 69.3767H97.8496C97.6424 69.3767 97.4437 69.459 97.2971 69.6055L92.2664 74.6362C92.0999 74.803 91.9133 74.751 91.8407 74.7209C91.7682 74.6909 91.5996 74.5956 91.5996 74.36V70.1579C91.5996 69.7265 91.2498 69.3767 90.8183 69.3767C89.526 69.3767 88.4746 68.3253 88.4746 67.0329V51.408C88.4746 50.1156 89.526 49.0642 90.8183 49.0642H104.49C104.922 49.0642 105.271 48.7144 105.271 48.283C105.271 47.8515 104.922 47.5017 104.49 47.5017H90.8183C88.6645 47.5017 86.9121 49.2541 86.9121 51.408V67.0329C86.9121 68.9193 88.2563 70.4977 90.0371 70.8607Z" fill="#49BBBD"/>
<path d="M133.006 41.6423H110.35C108.196 41.6423 106.443 43.3947 106.443 45.5486V63.9079C106.443 66.0618 108.196 67.8142 110.35 67.8142H125.651L130.453 72.6161C130.827 72.9906 131.325 73.1891 131.832 73.1891C132.084 73.1891 132.338 73.1402 132.581 73.0395C133.314 72.7361 133.787 72.0278 133.787 71.235V67.7357C135.568 67.3727 136.912 65.7943 136.912 63.9079V45.5486C136.912 43.3947 135.16 41.6423 133.006 41.6423ZM135.35 63.9079C135.35 65.2003 134.298 66.2517 133.006 66.2517C132.574 66.2517 132.225 66.6015 132.225 67.0329V71.235C132.225 71.4706 132.056 71.5658 131.983 71.5959C131.911 71.626 131.724 71.6779 131.558 71.5112L126.527 66.4805C126.38 66.334 126.182 66.2517 125.975 66.2517H110.35C109.057 66.2517 108.006 65.2003 108.006 63.9079V45.5486C108.006 44.2563 109.057 43.2048 110.35 43.2048H133.006C134.298 43.2048 135.35 44.2562 135.35 45.5486V63.9079Z" fill="#49BBBD"/>
<path d="M129.102 49.4548H125.977V48.6736C125.977 47.1658 124.75 45.9392 123.242 45.9392H120.117C118.609 45.9392 117.383 47.1658 117.383 48.6736V49.4548H114.258C113.396 49.4548 112.695 50.1558 112.695 51.0173V54.9236C112.695 55.65 113.194 56.2605 113.867 56.4346V60.3923C113.867 61.2539 114.568 61.9548 115.43 61.9548H127.93C128.791 61.9548 129.492 61.2539 129.492 60.3923V56.4346C130.165 56.2605 130.664 55.65 130.664 54.9236V51.0173C130.664 50.1558 129.963 49.4548 129.102 49.4548ZM118.945 48.6736C118.945 48.0274 119.471 47.5017 120.117 47.5017H123.242C123.888 47.5017 124.414 48.0274 124.414 48.6736V49.4548H118.945V48.6736ZM114.258 51.0173H129.102L129.103 54.9236C129.103 54.9236 129.102 54.9236 129.102 54.9236H114.258V51.0173ZM115.43 60.3923V56.4861H127.93V60.3923H115.43Z" fill="#49BBBD"/>
</svg>
