<svg width="285" height="276" viewBox="0 0 285 276" fill="none" xmlns="http://www.w3.org/2000/svg">
<path d="M186.267 276H38.6455C17.3361 276 0 257.836 0 235.509V40.4906C0 18.1638 17.3361 0 38.6455 0H181.225C205.316 0 224.913 20.532 224.913 45.7729V57.2995C224.913 58.7016 223.826 59.8405 222.487 59.8405C221.149 59.8405 220.062 58.7016 220.062 57.2995V45.7729C220.062 23.3361 202.644 5.08587 181.229 5.08587H38.6455C20.0125 5.08587 4.85412 20.9679 4.85412 40.4906V235.513C4.85412 255.036 20.0125 270.918 38.6455 270.918H186.271C204.904 270.918 220.062 255.036 220.062 235.513V212.46C220.062 190.133 237.398 171.969 258.704 171.969H279.575C280.913 171.969 282 173.108 282 174.51C282 175.912 280.913 177.051 279.575 177.051H258.704C240.071 177.051 224.913 192.933 224.913 212.456V235.509C224.913 257.836 207.576 276 186.267 276Z" fill="#4D64DD"/>
<path opacity="0.5" d="M263.56 154.801L260.248 158.356L277.782 174.653L260.248 190.953L263.56 194.509L284.912 174.653L263.56 154.801Z" fill="#4D64DD"/>
<path d="M16.9949 112.145C16.9949 110.772 17.3016 109.545 17.9149 108.465C18.5416 107.372 19.3883 106.525 20.4549 105.925C21.5349 105.312 22.7416 105.005 24.0749 105.005C25.6349 105.005 27.0016 105.405 28.1749 106.205C29.3483 107.005 30.1683 108.112 30.6349 109.525H27.4149C27.0949 108.859 26.6416 108.359 26.0549 108.025C25.4816 107.692 24.8149 107.525 24.0549 107.525C23.2416 107.525 22.5149 107.719 21.8749 108.105C21.2483 108.479 20.7549 109.012 20.3949 109.705C20.0483 110.399 19.8749 111.212 19.8749 112.145C19.8749 113.065 20.0483 113.879 20.3949 114.585C20.7549 115.279 21.2483 115.819 21.8749 116.205C22.5149 116.579 23.2416 116.765 24.0549 116.765C24.8149 116.765 25.4816 116.599 26.0549 116.265C26.6416 115.919 27.0949 115.412 27.4149 114.745H30.6349C30.1683 116.172 29.3483 117.285 28.1749 118.085C27.0149 118.872 25.6483 119.265 24.0749 119.265C22.7416 119.265 21.5349 118.965 20.4549 118.365C19.3883 117.752 18.5416 116.905 17.9149 115.825C17.3016 114.745 16.9949 113.519 16.9949 112.145ZM37.9465 119.325C36.8798 119.325 35.9198 119.092 35.0665 118.625C34.2132 118.145 33.5398 117.472 33.0465 116.605C32.5665 115.739 32.3265 114.739 32.3265 113.605C32.3265 112.472 32.5732 111.472 33.0665 110.605C33.5732 109.739 34.2598 109.072 35.1265 108.605C35.9932 108.125 36.9598 107.885 38.0265 107.885C39.0932 107.885 40.0598 108.125 40.9265 108.605C41.7932 109.072 42.4732 109.739 42.9665 110.605C43.4732 111.472 43.7265 112.472 43.7265 113.605C43.7265 114.739 43.4665 115.739 42.9465 116.605C42.4398 117.472 41.7465 118.145 40.8665 118.625C39.9998 119.092 39.0265 119.325 37.9465 119.325ZM37.9465 116.885C38.4532 116.885 38.9265 116.765 39.3665 116.525C39.8198 116.272 40.1798 115.899 40.4465 115.405C40.7132 114.912 40.8465 114.312 40.8465 113.605C40.8465 112.552 40.5665 111.745 40.0065 111.185C39.4598 110.612 38.7865 110.325 37.9865 110.325C37.1865 110.325 36.5132 110.612 35.9665 111.185C35.4332 111.745 35.1665 112.552 35.1665 113.605C35.1665 114.659 35.4265 115.472 35.9465 116.045C36.4798 116.605 37.1465 116.885 37.9465 116.885ZM56.2404 108.065V119.145H53.4204V117.745C53.0604 118.225 52.5871 118.605 52.0004 118.885C51.4271 119.152 50.8004 119.285 50.1204 119.285C49.2537 119.285 48.4871 119.105 47.8204 118.745C47.1537 118.372 46.6271 117.832 46.2404 117.125C45.8671 116.405 45.6804 115.552 45.6804 114.565V108.065H48.4804V114.165C48.4804 115.045 48.7004 115.725 49.1404 116.205C49.5804 116.672 50.1804 116.905 50.9404 116.905C51.7137 116.905 52.3204 116.672 52.7604 116.205C53.2004 115.725 53.4204 115.045 53.4204 114.165V108.065H56.2404ZM61.803 109.785C62.163 109.199 62.6297 108.739 63.203 108.405C63.7897 108.072 64.4564 107.905 65.203 107.905V110.845H64.463C63.583 110.845 62.9164 111.052 62.463 111.465C62.023 111.879 61.803 112.599 61.803 113.625V119.145H59.003V108.065H61.803V109.785ZM71.329 119.325C70.4223 119.325 69.609 119.165 68.889 118.845C68.169 118.512 67.5957 118.065 67.169 117.505C66.7557 116.945 66.529 116.325 66.489 115.645H69.309C69.3623 116.072 69.569 116.425 69.929 116.705C70.3023 116.985 70.7623 117.125 71.309 117.125C71.8423 117.125 72.2557 117.019 72.549 116.805C72.8557 116.592 73.009 116.319 73.009 115.985C73.009 115.625 72.8223 115.359 72.449 115.185C72.089 114.999 71.509 114.799 70.709 114.585C69.8823 114.385 69.2023 114.179 68.669 113.965C68.149 113.752 67.6957 113.425 67.309 112.985C66.9357 112.545 66.749 111.952 66.749 111.205C66.749 110.592 66.9223 110.032 67.269 109.525C67.629 109.019 68.1357 108.619 68.789 108.325C69.4557 108.032 70.2357 107.885 71.129 107.885C72.449 107.885 73.5023 108.219 74.289 108.885C75.0757 109.539 75.509 110.425 75.589 111.545H72.909C72.869 111.105 72.6823 110.759 72.349 110.505C72.029 110.239 71.5957 110.105 71.049 110.105C70.5423 110.105 70.149 110.199 69.869 110.385C69.6023 110.572 69.469 110.832 69.469 111.165C69.469 111.539 69.6557 111.825 70.029 112.025C70.4023 112.212 70.9823 112.405 71.769 112.605C72.569 112.805 73.229 113.012 73.749 113.225C74.269 113.439 74.7157 113.772 75.089 114.225C75.4757 114.665 75.6757 115.252 75.689 115.985C75.689 116.625 75.509 117.199 75.149 117.705C74.8023 118.212 74.2957 118.612 73.629 118.905C72.9757 119.185 72.209 119.325 71.329 119.325ZM88.2874 113.365C88.2874 113.765 88.2608 114.125 88.2074 114.445H80.1074C80.1741 115.245 80.4541 115.872 80.9474 116.325C81.4408 116.779 82.0474 117.005 82.7674 117.005C83.8074 117.005 84.5474 116.559 84.9874 115.665H88.0074C87.6874 116.732 87.0741 117.612 86.1674 118.305C85.2608 118.985 84.1474 119.325 82.8274 119.325C81.7608 119.325 80.8008 119.092 79.9474 118.625C79.1074 118.145 78.4474 117.472 77.9674 116.605C77.5008 115.739 77.2674 114.739 77.2674 113.605C77.2674 112.459 77.5008 111.452 77.9674 110.585C78.4341 109.719 79.0874 109.052 79.9274 108.585C80.7674 108.119 81.7341 107.885 82.8274 107.885C83.8808 107.885 84.8208 108.112 85.6474 108.565C86.4874 109.019 87.1341 109.665 87.5874 110.505C88.0541 111.332 88.2874 112.285 88.2874 113.365ZM85.3874 112.565C85.3741 111.845 85.1141 111.272 84.6074 110.845C84.1008 110.405 83.4808 110.185 82.7474 110.185C82.0541 110.185 81.4674 110.399 80.9874 110.825C80.5208 111.239 80.2341 111.819 80.1274 112.565H85.3874ZM105.837 119.145L104.317 117.645C103.023 118.805 101.443 119.385 99.5768 119.385C98.5501 119.385 97.6435 119.212 96.8568 118.865C96.0835 118.505 95.4835 118.005 95.0568 117.365C94.6301 116.712 94.4168 115.959 94.4168 115.105C94.4168 114.185 94.6768 113.359 95.1968 112.625C95.7168 111.892 96.4835 111.299 97.4968 110.845C97.1368 110.405 96.8768 109.985 96.7168 109.585C96.5568 109.172 96.4768 108.732 96.4768 108.265C96.4768 107.625 96.6435 107.052 96.9768 106.545C97.3101 106.025 97.7835 105.619 98.3968 105.325C99.0235 105.032 99.7501 104.885 100.577 104.885C101.417 104.885 102.137 105.045 102.737 105.365C103.337 105.685 103.783 106.112 104.077 106.645C104.37 107.179 104.497 107.772 104.457 108.425H101.737C101.75 107.985 101.643 107.652 101.417 107.425C101.19 107.185 100.883 107.065 100.497 107.065C100.123 107.065 99.8101 107.179 99.5568 107.405C99.3168 107.619 99.1968 107.899 99.1968 108.245C99.1968 108.579 99.2968 108.912 99.4968 109.245C99.6968 109.565 100.023 109.965 100.477 110.445L103.997 113.925C104.023 113.899 104.043 113.872 104.057 113.845C104.07 113.819 104.083 113.792 104.097 113.765L105.237 111.865H108.157L106.757 114.325C106.49 114.845 106.203 115.339 105.897 115.805L109.277 119.145H105.837ZM99.6568 117.065C100.75 117.065 101.717 116.679 102.557 115.905L99.1168 112.505C97.8235 113.079 97.1768 113.892 97.1768 114.945C97.1768 115.545 97.4035 116.052 97.8568 116.465C98.3101 116.865 98.9101 117.065 99.6568 117.065ZM114.749 112.145C114.749 110.772 115.055 109.545 115.669 108.465C116.295 107.372 117.142 106.525 118.209 105.925C119.289 105.312 120.495 105.005 121.829 105.005C123.389 105.005 124.755 105.405 125.929 106.205C127.102 107.005 127.922 108.112 128.389 109.525H125.169C124.849 108.859 124.395 108.359 123.809 108.025C123.235 107.692 122.569 107.525 121.809 107.525C120.995 107.525 120.269 107.719 119.629 108.105C119.002 108.479 118.509 109.012 118.149 109.705C117.802 110.399 117.629 111.212 117.629 112.145C117.629 113.065 117.802 113.879 118.149 114.585C118.509 115.279 119.002 115.819 119.629 116.205C120.269 116.579 120.995 116.765 121.809 116.765C122.569 116.765 123.235 116.599 123.809 116.265C124.395 115.919 124.849 115.412 125.169 114.745H128.389C127.922 116.172 127.102 117.285 125.929 118.085C124.769 118.872 123.402 119.265 121.829 119.265C120.495 119.265 119.289 118.965 118.209 118.365C117.142 117.752 116.295 116.905 115.669 115.825C115.055 114.745 114.749 113.519 114.749 112.145ZM135.7 119.325C134.634 119.325 133.674 119.092 132.82 118.625C131.967 118.145 131.294 117.472 130.8 116.605C130.32 115.739 130.08 114.739 130.08 113.605C130.08 112.472 130.327 111.472 130.82 110.605C131.327 109.739 132.014 109.072 132.88 108.605C133.747 108.125 134.714 107.885 135.78 107.885C136.847 107.885 137.814 108.125 138.68 108.605C139.547 109.072 140.227 109.739 140.72 110.605C141.227 111.472 141.48 112.472 141.48 113.605C141.48 114.739 141.22 115.739 140.7 116.605C140.194 117.472 139.5 118.145 138.62 118.625C137.754 119.092 136.78 119.325 135.7 119.325ZM135.7 116.885C136.207 116.885 136.68 116.765 137.12 116.525C137.574 116.272 137.934 115.899 138.2 115.405C138.467 114.912 138.6 114.312 138.6 113.605C138.6 112.552 138.32 111.745 137.76 111.185C137.214 110.612 136.54 110.325 135.74 110.325C134.94 110.325 134.267 110.612 133.72 111.185C133.187 111.745 132.92 112.552 132.92 113.605C132.92 114.659 133.18 115.472 133.7 116.045C134.234 116.605 134.9 116.885 135.7 116.885ZM146.334 104.345V119.145H143.534V104.345H146.334ZM151.901 104.345V119.145H149.101V104.345H151.901ZM164.967 113.365C164.967 113.765 164.94 114.125 164.887 114.445H156.787C156.854 115.245 157.134 115.872 157.627 116.325C158.12 116.779 158.727 117.005 159.447 117.005C160.487 117.005 161.227 116.559 161.667 115.665H164.687C164.367 116.732 163.754 117.612 162.847 118.305C161.94 118.985 160.827 119.325 159.507 119.325C158.44 119.325 157.48 119.092 156.627 118.625C155.787 118.145 155.127 117.472 154.647 116.605C154.18 115.739 153.947 114.739 153.947 113.605C153.947 112.459 154.18 111.452 154.647 110.585C155.114 109.719 155.767 109.052 156.607 108.585C157.447 108.119 158.414 107.885 159.507 107.885C160.56 107.885 161.5 108.112 162.327 108.565C163.167 109.019 163.814 109.665 164.267 110.505C164.734 111.332 164.967 112.285 164.967 113.365ZM162.067 112.565C162.054 111.845 161.794 111.272 161.287 110.845C160.78 110.405 160.16 110.185 159.427 110.185C158.734 110.185 158.147 110.399 157.667 110.825C157.2 111.239 156.914 111.819 156.807 112.565H162.067ZM171.351 107.885C172.178 107.885 172.904 108.052 173.531 108.385C174.158 108.705 174.651 109.125 175.011 109.645V108.065H177.831V119.225C177.831 120.252 177.624 121.165 177.211 121.965C176.798 122.779 176.178 123.419 175.351 123.885C174.524 124.365 173.524 124.605 172.351 124.605C170.778 124.605 169.484 124.239 168.471 123.505C167.471 122.772 166.904 121.772 166.771 120.505H169.551C169.698 121.012 170.011 121.412 170.491 121.705C170.984 122.012 171.578 122.165 172.271 122.165C173.084 122.165 173.744 121.919 174.251 121.425C174.758 120.945 175.011 120.212 175.011 119.225V117.505C174.651 118.025 174.151 118.459 173.511 118.805C172.884 119.152 172.164 119.325 171.351 119.325C170.418 119.325 169.564 119.085 168.791 118.605C168.018 118.125 167.404 117.452 166.951 116.585C166.511 115.705 166.291 114.699 166.291 113.565C166.291 112.445 166.511 111.452 166.951 110.585C167.404 109.719 168.011 109.052 168.771 108.585C169.544 108.119 170.404 107.885 171.351 107.885ZM175.011 113.605C175.011 112.925 174.878 112.345 174.611 111.865C174.344 111.372 173.984 110.999 173.531 110.745C173.078 110.479 172.591 110.345 172.071 110.345C171.551 110.345 171.071 110.472 170.631 110.725C170.191 110.979 169.831 111.352 169.551 111.845C169.284 112.325 169.151 112.899 169.151 113.565C169.151 114.232 169.284 114.819 169.551 115.325C169.831 115.819 170.191 116.199 170.631 116.465C171.084 116.732 171.564 116.865 172.071 116.865C172.591 116.865 173.078 116.739 173.531 116.485C173.984 116.219 174.344 115.845 174.611 115.365C174.878 114.872 175.011 114.285 175.011 113.605ZM190.866 113.365C190.866 113.765 190.839 114.125 190.786 114.445H182.686C182.752 115.245 183.032 115.872 183.526 116.325C184.019 116.779 184.626 117.005 185.346 117.005C186.386 117.005 187.126 116.559 187.566 115.665H190.586C190.266 116.732 189.652 117.612 188.746 118.305C187.839 118.985 186.726 119.325 185.406 119.325C184.339 119.325 183.379 119.092 182.526 118.625C181.686 118.145 181.026 117.472 180.546 116.605C180.079 115.739 179.846 114.739 179.846 113.605C179.846 112.459 180.079 111.452 180.546 110.585C181.012 109.719 181.666 109.052 182.506 108.585C183.346 108.119 184.312 107.885 185.406 107.885C186.459 107.885 187.399 108.112 188.226 108.565C189.066 109.019 189.712 109.665 190.166 110.505C190.632 111.332 190.866 112.285 190.866 113.365ZM187.966 112.565C187.952 111.845 187.692 111.272 187.186 110.845C186.679 110.405 186.059 110.185 185.326 110.185C184.632 110.185 184.046 110.399 183.566 110.825C183.099 111.239 182.812 111.819 182.706 112.565H187.966ZM63.2273 151.285C62.254 151.285 61.374 151.119 60.5873 150.785C59.814 150.452 59.2007 149.972 58.7473 149.345C58.294 148.719 58.0607 147.979 58.0473 147.125H61.0473C61.0873 147.699 61.2873 148.152 61.6473 148.485C62.0207 148.819 62.5273 148.985 63.1673 148.985C63.8207 148.985 64.334 148.832 64.7073 148.525C65.0807 148.205 65.2673 147.792 65.2673 147.285C65.2673 146.872 65.1407 146.532 64.8873 146.265C64.634 145.999 64.314 145.792 63.9273 145.645C63.554 145.485 63.034 145.312 62.3673 145.125C61.4607 144.859 60.7207 144.599 60.1473 144.345C59.5873 144.079 59.1007 143.685 58.6873 143.165C58.2873 142.632 58.0873 141.925 58.0873 141.045C58.0873 140.219 58.294 139.499 58.7073 138.885C59.1207 138.272 59.7007 137.805 60.4473 137.485C61.194 137.152 62.0473 136.985 63.0073 136.985C64.4473 136.985 65.614 137.339 66.5073 138.045C67.414 138.739 67.914 139.712 68.0073 140.965H64.9273C64.9007 140.485 64.694 140.092 64.3073 139.785C63.934 139.465 63.434 139.305 62.8073 139.305C62.2607 139.305 61.8207 139.445 61.4873 139.725C61.1673 140.005 61.0073 140.412 61.0073 140.945C61.0073 141.319 61.1273 141.632 61.3673 141.885C61.6207 142.125 61.9273 142.325 62.2873 142.485C62.6607 142.632 63.1807 142.805 63.8473 143.005C64.754 143.272 65.494 143.539 66.0673 143.805C66.6407 144.072 67.134 144.472 67.5473 145.005C67.9607 145.539 68.1673 146.239 68.1673 147.105C68.1673 147.852 67.974 148.545 67.5873 149.185C67.2007 149.825 66.634 150.339 65.8873 150.725C65.1407 151.099 64.254 151.285 63.2273 151.285ZM80.8948 145.365C80.8948 145.765 80.8682 146.125 80.8148 146.445H72.7148C72.7815 147.245 73.0615 147.872 73.5548 148.325C74.0482 148.779 74.6548 149.005 75.3748 149.005C76.4148 149.005 77.1548 148.559 77.5948 147.665H80.6148C80.2948 148.732 79.6815 149.612 78.7748 150.305C77.8682 150.985 76.7548 151.325 75.4348 151.325C74.3682 151.325 73.4082 151.092 72.5548 150.625C71.7148 150.145 71.0548 149.472 70.5748 148.605C70.1082 147.739 69.8748 146.739 69.8748 145.605C69.8748 144.459 70.1082 143.452 70.5748 142.585C71.0415 141.719 71.6948 141.052 72.5348 140.585C73.3748 140.119 74.3415 139.885 75.4348 139.885C76.4882 139.885 77.4282 140.112 78.2548 140.565C79.0948 141.019 79.7415 141.665 80.1948 142.505C80.6615 143.332 80.8948 144.285 80.8948 145.365ZM77.9948 144.565C77.9815 143.845 77.7215 143.272 77.2148 142.845C76.7082 142.405 76.0882 142.185 75.3548 142.185C74.6615 142.185 74.0748 142.399 73.5948 142.825C73.1282 143.239 72.8415 143.819 72.7348 144.565H77.9948ZM85.7386 136.345V151.145H82.9386V136.345H85.7386ZM98.805 145.365C98.805 145.765 98.7783 146.125 98.725 146.445H90.625C90.6917 147.245 90.9717 147.872 91.465 148.325C91.9583 148.779 92.565 149.005 93.285 149.005C94.325 149.005 95.065 148.559 95.505 147.665H98.525C98.205 148.732 97.5917 149.612 96.685 150.305C95.7783 150.985 94.665 151.325 93.345 151.325C92.2783 151.325 91.3183 151.092 90.465 150.625C89.625 150.145 88.965 149.472 88.485 148.605C88.0183 147.739 87.785 146.739 87.785 145.605C87.785 144.459 88.0183 143.452 88.485 142.585C88.9517 141.719 89.605 141.052 90.445 140.585C91.285 140.119 92.2517 139.885 93.345 139.885C94.3983 139.885 95.3383 140.112 96.165 140.565C97.005 141.019 97.6517 141.665 98.105 142.505C98.5717 143.332 98.805 144.285 98.805 145.365ZM95.905 144.565C95.8917 143.845 95.6317 143.272 95.125 142.845C94.6183 142.405 93.9983 142.185 93.265 142.185C92.5717 142.185 91.985 142.399 91.505 142.825C91.0383 143.239 90.7517 143.819 90.645 144.565H95.905ZM100.129 145.605C100.129 144.459 100.362 143.459 100.829 142.605C101.295 141.739 101.942 141.072 102.769 140.605C103.595 140.125 104.542 139.885 105.609 139.885C106.982 139.885 108.115 140.232 109.009 140.925C109.915 141.605 110.522 142.565 110.829 143.805H107.809C107.649 143.325 107.375 142.952 106.989 142.685C106.615 142.405 106.149 142.265 105.589 142.265C104.789 142.265 104.155 142.559 103.689 143.145C103.222 143.719 102.989 144.539 102.989 145.605C102.989 146.659 103.222 147.479 103.689 148.065C104.155 148.639 104.789 148.925 105.589 148.925C106.722 148.925 107.462 148.419 107.809 147.405H110.829C110.522 148.605 109.915 149.559 109.009 150.265C108.102 150.972 106.969 151.325 105.609 151.325C104.542 151.325 103.595 151.092 102.769 150.625C101.942 150.145 101.295 149.479 100.829 148.625C100.362 147.759 100.129 146.752 100.129 145.605ZM116.14 142.365V147.725C116.14 148.099 116.227 148.372 116.4 148.545C116.587 148.705 116.893 148.785 117.32 148.785H118.62V151.145H116.86C114.5 151.145 113.32 149.999 113.32 147.705V142.365H112V140.065H113.32V137.325H116.14V140.065H118.62V142.365H116.14ZM122.054 138.745C121.561 138.745 121.147 138.592 120.814 138.285C120.494 137.965 120.334 137.572 120.334 137.105C120.334 136.639 120.494 136.252 120.814 135.945C121.147 135.625 121.561 135.465 122.054 135.465C122.547 135.465 122.954 135.625 123.274 135.945C123.607 136.252 123.774 136.639 123.774 137.105C123.774 137.572 123.607 137.965 123.274 138.285C122.954 138.592 122.547 138.745 122.054 138.745ZM123.434 140.065V151.145H120.634V140.065H123.434ZM131.12 151.325C130.054 151.325 129.094 151.092 128.24 150.625C127.387 150.145 126.714 149.472 126.22 148.605C125.74 147.739 125.5 146.739 125.5 145.605C125.5 144.472 125.747 143.472 126.24 142.605C126.747 141.739 127.434 141.072 128.3 140.605C129.167 140.125 130.134 139.885 131.2 139.885C132.267 139.885 133.234 140.125 134.1 140.605C134.967 141.072 135.647 141.739 136.14 142.605C136.647 143.472 136.9 144.472 136.9 145.605C136.9 146.739 136.64 147.739 136.12 148.605C135.614 149.472 134.92 150.145 134.04 150.625C133.174 151.092 132.2 151.325 131.12 151.325ZM131.12 148.885C131.627 148.885 132.1 148.765 132.54 148.525C132.994 148.272 133.354 147.899 133.62 147.405C133.887 146.912 134.02 146.312 134.02 145.605C134.02 144.552 133.74 143.745 133.18 143.185C132.634 142.612 131.96 142.325 131.16 142.325C130.36 142.325 129.687 142.612 129.14 143.185C128.607 143.745 128.34 144.552 128.34 145.605C128.34 146.659 128.6 147.472 129.12 148.045C129.654 148.605 130.32 148.885 131.12 148.885ZM145.094 139.905C146.414 139.905 147.481 140.325 148.294 141.165C149.108 141.992 149.514 143.152 149.514 144.645V151.145H146.714V145.025C146.714 144.145 146.494 143.472 146.054 143.005C145.614 142.525 145.014 142.285 144.254 142.285C143.481 142.285 142.868 142.525 142.414 143.005C141.974 143.472 141.754 144.145 141.754 145.025V151.145H138.954V140.065H141.754V141.445C142.128 140.965 142.601 140.592 143.174 140.325C143.761 140.045 144.401 139.905 145.094 139.905Z" fill="#4D64DD"/>
<path d="M21.365 187.271C20.537 187.271 19.793 187.127 19.133 186.839C18.485 186.539 17.975 186.131 17.603 185.615C17.231 185.087 17.039 184.481 17.027 183.797H18.773C18.833 184.385 19.073 184.883 19.493 185.291C19.925 185.687 20.549 185.885 21.365 185.885C22.145 185.885 22.757 185.693 23.201 185.309C23.657 184.913 23.885 184.409 23.885 183.797C23.885 183.317 23.753 182.927 23.489 182.627C23.225 182.327 22.895 182.099 22.499 181.943C22.103 181.787 21.569 181.619 20.897 181.439C20.069 181.223 19.403 181.007 18.899 180.791C18.407 180.575 17.981 180.239 17.621 179.783C17.273 179.315 17.099 178.691 17.099 177.911C17.099 177.227 17.273 176.621 17.621 176.093C17.969 175.565 18.455 175.157 19.079 174.869C19.715 174.581 20.441 174.437 21.257 174.437C22.433 174.437 23.393 174.731 24.137 175.319C24.893 175.907 25.319 176.687 25.415 177.659H23.615C23.555 177.179 23.303 176.759 22.859 176.399C22.415 176.027 21.827 175.841 21.095 175.841C20.411 175.841 19.853 176.021 19.421 176.381C18.989 176.729 18.773 177.221 18.773 177.857C18.773 178.313 18.899 178.685 19.151 178.973C19.415 179.261 19.733 179.483 20.105 179.639C20.489 179.783 21.023 179.951 21.707 180.143C22.535 180.371 23.201 180.599 23.705 180.827C24.209 181.043 24.641 181.385 25.001 181.853C25.361 182.309 25.541 182.933 25.541 183.725C25.541 184.337 25.379 184.913 25.055 185.453C24.731 185.993 24.251 186.431 23.615 186.767C22.979 187.103 22.229 187.271 21.365 187.271ZM32.8474 177.101C33.5914 177.101 34.2634 177.263 34.8634 177.587C35.4634 177.899 35.9314 178.373 36.2674 179.009C36.6154 179.645 36.7894 180.419 36.7894 181.331V187.145H35.1694V181.565C35.1694 180.581 34.9234 179.831 34.4314 179.315C33.9394 178.787 33.2674 178.523 32.4154 178.523C31.5514 178.523 30.8614 178.793 30.3454 179.333C29.8414 179.873 29.5894 180.659 29.5894 181.691V187.145H27.9514V173.825H29.5894V178.685C29.9134 178.181 30.3574 177.791 30.9214 177.515C31.4974 177.239 32.1394 177.101 32.8474 177.101ZM43.7671 187.307C42.8431 187.307 42.0031 187.097 41.2471 186.677C40.5031 186.257 39.9151 185.663 39.4831 184.895C39.0631 184.115 38.8531 183.215 38.8531 182.195C38.8531 181.187 39.0691 180.299 39.5011 179.531C39.9451 178.751 40.5451 178.157 41.3011 177.749C42.0571 177.329 42.9031 177.119 43.8391 177.119C44.7751 177.119 45.6211 177.329 46.3771 177.749C47.1331 178.157 47.7271 178.745 48.1591 179.513C48.6031 180.281 48.8251 181.175 48.8251 182.195C48.8251 183.215 48.5971 184.115 48.1411 184.895C47.6971 185.663 47.0911 186.257 46.3231 186.677C45.5551 187.097 44.7031 187.307 43.7671 187.307ZM43.7671 185.867C44.3551 185.867 44.9071 185.729 45.4231 185.453C45.9391 185.177 46.3531 184.763 46.6651 184.211C46.9891 183.659 47.1511 182.987 47.1511 182.195C47.1511 181.403 46.9951 180.731 46.6831 180.179C46.3711 179.627 45.9631 179.219 45.4591 178.955C44.9551 178.679 44.4091 178.541 43.8211 178.541C43.2211 178.541 42.6691 178.679 42.1651 178.955C41.6731 179.219 41.2771 179.627 40.9771 180.179C40.6771 180.731 40.5271 181.403 40.5271 182.195C40.5271 182.999 40.6711 183.677 40.9591 184.229C41.2591 184.781 41.6551 185.195 42.1471 185.471C42.6391 185.735 43.1791 185.867 43.7671 185.867ZM52.6168 178.883C52.9048 178.319 53.3128 177.881 53.8408 177.569C54.3808 177.257 55.0348 177.101 55.8028 177.101V178.793H55.3708C53.5348 178.793 52.6168 179.789 52.6168 181.781V187.145H50.9788V177.281H52.6168V178.883ZM59.6916 178.631V184.445C59.6916 184.925 59.7936 185.267 59.9976 185.471C60.2016 185.663 60.5556 185.759 61.0596 185.759H62.2656V187.145H60.7896C59.8776 187.145 59.1936 186.935 58.7376 186.515C58.2816 186.095 58.0536 185.405 58.0536 184.445V178.631H56.7756V177.281H58.0536V174.797H59.6916V177.281H62.2656V178.631H59.6916ZM65.8883 173.825V187.145H64.2503V173.825H65.8883ZM69.5259 175.679C69.2139 175.679 68.9499 175.571 68.7339 175.355C68.5179 175.139 68.4099 174.875 68.4099 174.563C68.4099 174.251 68.5179 173.987 68.7339 173.771C68.9499 173.555 69.2139 173.447 69.5259 173.447C69.8259 173.447 70.0779 173.555 70.2819 173.771C70.4979 173.987 70.6059 174.251 70.6059 174.563C70.6059 174.875 70.4979 175.139 70.2819 175.355C70.0779 175.571 69.8259 175.679 69.5259 175.679ZM70.3179 177.281V187.145H68.6799V177.281H70.3179ZM76.6016 187.307C75.8456 187.307 75.1676 187.181 74.5676 186.929C73.9676 186.665 73.4936 186.305 73.1456 185.849C72.7976 185.381 72.6056 184.847 72.5696 184.247H74.2616C74.3096 184.739 74.5376 185.141 74.9456 185.453C75.3656 185.765 75.9116 185.921 76.5836 185.921C77.2076 185.921 77.6996 185.783 78.0596 185.507C78.4196 185.231 78.5996 184.883 78.5996 184.463C78.5996 184.031 78.4076 183.713 78.0236 183.509C77.6396 183.293 77.0456 183.083 76.2416 182.879C75.5096 182.687 74.9096 182.495 74.4416 182.303C73.9856 182.099 73.5896 181.805 73.2536 181.421C72.9296 181.025 72.7676 180.509 72.7676 179.873C72.7676 179.369 72.9176 178.907 73.2176 178.487C73.5176 178.067 73.9436 177.737 74.4956 177.497C75.0476 177.245 75.6776 177.119 76.3856 177.119C77.4776 177.119 78.3596 177.395 79.0316 177.947C79.7036 178.499 80.0636 179.255 80.1116 180.215H78.4736C78.4376 179.699 78.2276 179.285 77.8436 178.973C77.4716 178.661 76.9676 178.505 76.3316 178.505C75.7436 178.505 75.2756 178.631 74.9276 178.883C74.5796 179.135 74.4056 179.465 74.4056 179.873C74.4056 180.197 74.5076 180.467 74.7116 180.683C74.9276 180.887 75.1916 181.055 75.5036 181.187C75.8276 181.307 76.2716 181.445 76.8356 181.601C77.5436 181.793 78.1196 181.985 78.5636 182.177C79.0076 182.357 79.3856 182.633 79.6976 183.005C80.0216 183.377 80.1896 183.863 80.2016 184.463C80.2016 185.003 80.0516 185.489 79.7516 185.921C79.4516 186.353 79.0256 186.695 78.4736 186.947C77.9336 187.187 77.3096 187.307 76.6016 187.307ZM84.5119 178.631V184.445C84.5119 184.925 84.6139 185.267 84.8179 185.471C85.0219 185.663 85.3759 185.759 85.8799 185.759H87.0859V187.145H85.6099C84.6979 187.145 84.0139 186.935 83.5579 186.515C83.1019 186.095 82.8739 185.405 82.8739 184.445V178.631H81.5959V177.281H82.8739V174.797H84.5119V177.281H87.0859V178.631H84.5119ZM89.9166 175.679C89.6046 175.679 89.3406 175.571 89.1246 175.355C88.9086 175.139 88.8006 174.875 88.8006 174.563C88.8006 174.251 88.9086 173.987 89.1246 173.771C89.3406 173.555 89.6046 173.447 89.9166 173.447C90.2166 173.447 90.4686 173.555 90.6726 173.771C90.8886 173.987 90.9966 174.251 90.9966 174.563C90.9966 174.875 90.8886 175.139 90.6726 175.355C90.4686 175.571 90.2166 175.679 89.9166 175.679ZM90.7086 177.281V187.145H89.0706V177.281H90.7086ZM98.3063 177.101C99.5063 177.101 100.478 177.467 101.222 178.199C101.966 178.919 102.338 179.963 102.338 181.331V187.145H100.718V181.565C100.718 180.581 100.472 179.831 99.9803 179.315C99.4883 178.787 98.8163 178.523 97.9643 178.523C97.1003 178.523 96.4103 178.793 95.8943 179.333C95.3903 179.873 95.1383 180.659 95.1383 181.691V187.145H93.5003V177.281H95.1383V178.685C95.4623 178.181 95.9003 177.791 96.4523 177.515C97.0163 177.239 97.6343 177.101 98.3063 177.101ZM109.082 177.119C109.934 177.119 110.678 177.305 111.314 177.677C111.962 178.049 112.442 178.517 112.754 179.081V177.281H114.41V187.361C114.41 188.261 114.218 189.059 113.834 189.755C113.45 190.463 112.898 191.015 112.178 191.411C111.47 191.807 110.642 192.005 109.694 192.005C108.398 192.005 107.318 191.699 106.454 191.087C105.59 190.475 105.08 189.641 104.924 188.585H106.544C106.724 189.185 107.096 189.665 107.66 190.025C108.224 190.397 108.902 190.583 109.694 190.583C110.594 190.583 111.326 190.301 111.89 189.737C112.466 189.173 112.754 188.381 112.754 187.361V185.291C112.43 185.867 111.95 186.347 111.314 186.731C110.678 187.115 109.934 187.307 109.082 187.307C108.206 187.307 107.408 187.091 106.688 186.659C105.98 186.227 105.422 185.621 105.014 184.841C104.606 184.061 104.402 183.173 104.402 182.177C104.402 181.169 104.606 180.287 105.014 179.531C105.422 178.763 105.98 178.169 106.688 177.749C107.408 177.329 108.206 177.119 109.082 177.119ZM112.754 182.195C112.754 181.451 112.604 180.803 112.304 180.251C112.004 179.699 111.596 179.279 111.08 178.991C110.576 178.691 110.018 178.541 109.406 178.541C108.794 178.541 108.236 178.685 107.732 178.973C107.228 179.261 106.826 179.681 106.526 180.233C106.226 180.785 106.076 181.433 106.076 182.177C106.076 182.933 106.226 183.593 106.526 184.157C106.826 184.709 107.228 185.135 107.732 185.435C108.236 185.723 108.794 185.867 109.406 185.867C110.018 185.867 110.576 185.723 111.08 185.435C111.596 185.135 112.004 184.709 112.304 184.157C112.604 183.593 112.754 182.939 112.754 182.195ZM123.975 178.631V184.445C123.975 184.925 124.077 185.267 124.281 185.471C124.485 185.663 124.839 185.759 125.343 185.759H126.549V187.145H125.073C124.161 187.145 123.477 186.935 123.021 186.515C122.565 186.095 122.337 185.405 122.337 184.445V178.631H121.059V177.281H122.337V174.797H123.975V177.281H126.549V178.631H123.975ZM133.429 177.101C134.173 177.101 134.845 177.263 135.445 177.587C136.045 177.899 136.513 178.373 136.849 179.009C137.197 179.645 137.371 180.419 137.371 181.331V187.145H135.751V181.565C135.751 180.581 135.505 179.831 135.013 179.315C134.521 178.787 133.849 178.523 132.997 178.523C132.133 178.523 131.443 178.793 130.927 179.333C130.423 179.873 130.171 180.659 130.171 181.691V187.145H128.533V173.825H130.171V178.685C130.495 178.181 130.939 177.791 131.503 177.515C132.079 177.239 132.721 177.101 133.429 177.101ZM149.047 181.835C149.047 182.147 149.029 182.477 148.993 182.825H141.109C141.169 183.797 141.499 184.559 142.099 185.111C142.711 185.651 143.449 185.921 144.313 185.921C145.021 185.921 145.609 185.759 146.077 185.435C146.557 185.099 146.893 184.655 147.085 184.103H148.849C148.585 185.051 148.057 185.825 147.265 186.425C146.473 187.013 145.489 187.307 144.313 187.307C143.377 187.307 142.537 187.097 141.793 186.677C141.061 186.257 140.485 185.663 140.065 184.895C139.645 184.115 139.435 183.215 139.435 182.195C139.435 181.175 139.639 180.281 140.047 179.513C140.455 178.745 141.025 178.157 141.757 177.749C142.501 177.329 143.353 177.119 144.313 177.119C145.249 177.119 146.077 177.323 146.797 177.731C147.517 178.139 148.069 178.703 148.453 179.423C148.849 180.131 149.047 180.935 149.047 181.835ZM147.355 181.493C147.355 180.869 147.217 180.335 146.941 179.891C146.665 179.435 146.287 179.093 145.807 178.865C145.339 178.625 144.817 178.505 144.241 178.505C143.413 178.505 142.705 178.769 142.117 179.297C141.541 179.825 141.211 180.557 141.127 181.493H147.355ZM157.646 179.117C157.982 178.529 158.474 178.049 159.122 177.677C159.77 177.305 160.508 177.119 161.336 177.119C162.224 177.119 163.022 177.329 163.73 177.749C164.438 178.169 164.996 178.763 165.404 179.531C165.812 180.287 166.016 181.169 166.016 182.177C166.016 183.173 165.812 184.061 165.404 184.841C164.996 185.621 164.432 186.227 163.712 186.659C163.004 187.091 162.212 187.307 161.336 187.307C160.484 187.307 159.734 187.121 159.086 186.749C158.45 186.377 157.97 185.903 157.646 185.327V187.145H156.008V173.825H157.646V179.117ZM164.342 182.177C164.342 181.433 164.192 180.785 163.892 180.233C163.592 179.681 163.184 179.261 162.668 178.973C162.164 178.685 161.606 178.541 160.994 178.541C160.394 178.541 159.836 178.691 159.32 178.991C158.816 179.279 158.408 179.705 158.096 180.269C157.796 180.821 157.646 181.463 157.646 182.195C157.646 182.939 157.796 183.593 158.096 184.157C158.408 184.709 158.816 185.135 159.32 185.435C159.836 185.723 160.394 185.867 160.994 185.867C161.606 185.867 162.164 185.723 162.668 185.435C163.184 185.135 163.592 184.709 163.892 184.157C164.192 183.593 164.342 182.933 164.342 182.177ZM177.172 181.835C177.172 182.147 177.154 182.477 177.118 182.825H169.234C169.294 183.797 169.624 184.559 170.224 185.111C170.836 185.651 171.574 185.921 172.438 185.921C173.146 185.921 173.734 185.759 174.202 185.435C174.682 185.099 175.018 184.655 175.21 184.103H176.974C176.71 185.051 176.182 185.825 175.39 186.425C174.598 187.013 173.614 187.307 172.438 187.307C171.502 187.307 170.662 187.097 169.918 186.677C169.186 186.257 168.61 185.663 168.19 184.895C167.77 184.115 167.56 183.215 167.56 182.195C167.56 181.175 167.764 180.281 168.172 179.513C168.58 178.745 169.15 178.157 169.882 177.749C170.626 177.329 171.478 177.119 172.438 177.119C173.374 177.119 174.202 177.323 174.922 177.731C175.642 178.139 176.194 178.703 176.578 179.423C176.974 180.131 177.172 180.935 177.172 181.835ZM175.48 181.493C175.48 180.869 175.342 180.335 175.066 179.891C174.79 179.435 174.412 179.093 173.932 178.865C173.464 178.625 172.942 178.505 172.366 178.505C171.538 178.505 170.83 178.769 170.242 179.297C169.666 179.825 169.336 180.557 169.252 181.493H175.48ZM182.826 187.307C182.07 187.307 181.392 187.181 180.792 186.929C180.192 186.665 179.718 186.305 179.37 185.849C179.022 185.381 178.83 184.847 178.794 184.247H180.486C180.534 184.739 180.762 185.141 181.17 185.453C181.59 185.765 182.136 185.921 182.808 185.921C183.432 185.921 183.924 185.783 184.284 185.507C184.644 185.231 184.824 184.883 184.824 184.463C184.824 184.031 184.632 183.713 184.248 183.509C183.864 183.293 183.27 183.083 182.466 182.879C181.734 182.687 181.134 182.495 180.666 182.303C180.21 182.099 179.814 181.805 179.478 181.421C179.154 181.025 178.992 180.509 178.992 179.873C178.992 179.369 179.142 178.907 179.442 178.487C179.742 178.067 180.168 177.737 180.72 177.497C181.272 177.245 181.902 177.119 182.61 177.119C183.702 177.119 184.584 177.395 185.256 177.947C185.928 178.499 186.288 179.255 186.336 180.215H184.698C184.662 179.699 184.452 179.285 184.068 178.973C183.696 178.661 183.192 178.505 182.556 178.505C181.968 178.505 181.5 178.631 181.152 178.883C180.804 179.135 180.63 179.465 180.63 179.873C180.63 180.197 180.732 180.467 180.936 180.683C181.152 180.887 181.416 181.055 181.728 181.187C182.052 181.307 182.496 181.445 183.06 181.601C183.768 181.793 184.344 181.985 184.788 182.177C185.232 182.357 185.61 182.633 185.922 183.005C186.246 183.377 186.414 183.863 186.426 184.463C186.426 185.003 186.276 185.489 185.976 185.921C185.676 186.353 185.25 186.695 184.698 186.947C184.158 187.187 183.534 187.307 182.826 187.307ZM190.737 178.631V184.445C190.737 184.925 190.839 185.267 191.043 185.471C191.247 185.663 191.601 185.759 192.105 185.759H193.311V187.145H191.835C190.923 187.145 190.239 186.935 189.783 186.515C189.327 186.095 189.099 185.405 189.099 184.445V178.631H187.821V177.281H189.099V174.797H190.737V177.281H193.311V178.631H190.737ZM202.135 179.855V181.241H194.953V179.855H202.135ZM37.4498 200.631H35.3798V209.145H33.7418V200.631H32.4638V199.281H33.7418V198.579C33.7418 197.475 34.0238 196.671 34.5878 196.167C35.1638 195.651 36.0818 195.393 37.3418 195.393V196.761C36.6218 196.761 36.1118 196.905 35.8118 197.193C35.5238 197.469 35.3798 197.931 35.3798 198.579V199.281H37.4498V200.631ZM40.2056 197.679C39.8936 197.679 39.6296 197.571 39.4136 197.355C39.1976 197.139 39.0896 196.875 39.0896 196.563C39.0896 196.251 39.1976 195.987 39.4136 195.771C39.6296 195.555 39.8936 195.447 40.2056 195.447C40.5056 195.447 40.7576 195.555 40.9616 195.771C41.1776 195.987 41.2856 196.251 41.2856 196.563C41.2856 196.875 41.1776 197.139 40.9616 197.355C40.7576 197.571 40.5056 197.679 40.2056 197.679ZM40.9976 199.281V209.145H39.3596V199.281H40.9976ZM45.7873 200.631V206.445C45.7873 206.925 45.8893 207.267 46.0933 207.471C46.2973 207.663 46.6513 207.759 47.1553 207.759H48.3613V209.145H46.8853C45.9733 209.145 45.2893 208.935 44.8333 208.515C44.3773 208.095 44.1493 207.405 44.1493 206.445V200.631H42.8713V199.281H44.1493V196.797H45.7873V199.281H48.3613V200.631H45.7873ZM59.4468 209.307C58.5228 209.307 57.6828 209.097 56.9268 208.677C56.1828 208.257 55.5948 207.663 55.1628 206.895C54.7428 206.115 54.5328 205.215 54.5328 204.195C54.5328 203.187 54.7488 202.299 55.1808 201.531C55.6248 200.751 56.2248 200.157 56.9808 199.749C57.7368 199.329 58.5828 199.119 59.5188 199.119C60.4548 199.119 61.3008 199.329 62.0568 199.749C62.8128 200.157 63.4068 200.745 63.8388 201.513C64.2828 202.281 64.5048 203.175 64.5048 204.195C64.5048 205.215 64.2768 206.115 63.8208 206.895C63.3768 207.663 62.7708 208.257 62.0028 208.677C61.2348 209.097 60.3828 209.307 59.4468 209.307ZM59.4468 207.867C60.0348 207.867 60.5868 207.729 61.1028 207.453C61.6188 207.177 62.0328 206.763 62.3448 206.211C62.6688 205.659 62.8308 204.987 62.8308 204.195C62.8308 203.403 62.6748 202.731 62.3628 202.179C62.0508 201.627 61.6428 201.219 61.1388 200.955C60.6348 200.679 60.0888 200.541 59.5008 200.541C58.9008 200.541 58.3488 200.679 57.8448 200.955C57.3528 201.219 56.9568 201.627 56.6568 202.179C56.3568 202.731 56.2068 203.403 56.2068 204.195C56.2068 204.999 56.3508 205.677 56.6388 206.229C56.9388 206.781 57.3348 207.195 57.8268 207.471C58.3188 207.735 58.8588 207.867 59.4468 207.867ZM68.2965 201.099C68.6205 200.535 69.1005 200.067 69.7365 199.695C70.3845 199.311 71.1345 199.119 71.9865 199.119C72.8625 199.119 73.6545 199.329 74.3625 199.749C75.0825 200.169 75.6465 200.763 76.0545 201.531C76.4625 202.287 76.6665 203.169 76.6665 204.177C76.6665 205.173 76.4625 206.061 76.0545 206.841C75.6465 207.621 75.0825 208.227 74.3625 208.659C73.6545 209.091 72.8625 209.307 71.9865 209.307C71.1465 209.307 70.4025 209.121 69.7545 208.749C69.1185 208.365 68.6325 207.891 68.2965 207.327V213.825H66.6585V199.281H68.2965V201.099ZM74.9925 204.177C74.9925 203.433 74.8425 202.785 74.5425 202.233C74.2425 201.681 73.8345 201.261 73.3185 200.973C72.8145 200.685 72.2565 200.541 71.6445 200.541C71.0445 200.541 70.4865 200.691 69.9705 200.991C69.4665 201.279 69.0585 201.705 68.7465 202.269C68.4465 202.821 68.2965 203.463 68.2965 204.195C68.2965 204.939 68.4465 205.593 68.7465 206.157C69.0585 206.709 69.4665 207.135 69.9705 207.435C70.4865 207.723 71.0445 207.867 71.6445 207.867C72.2565 207.867 72.8145 207.723 73.3185 207.435C73.8345 207.135 74.2425 206.709 74.5425 206.157C74.8425 205.593 74.9925 204.933 74.9925 204.177ZM80.8205 200.631V206.445C80.8205 206.925 80.9225 207.267 81.1265 207.471C81.3305 207.663 81.6845 207.759 82.1885 207.759H83.3945V209.145H81.9185C81.0065 209.145 80.3225 208.935 79.8665 208.515C79.4105 208.095 79.1825 207.405 79.1825 206.445V200.631H77.9045V199.281H79.1825V196.797H80.8205V199.281H83.3945V200.631H80.8205ZM86.2252 197.679C85.9132 197.679 85.6492 197.571 85.4332 197.355C85.2172 197.139 85.1092 196.875 85.1092 196.563C85.1092 196.251 85.2172 195.987 85.4332 195.771C85.6492 195.555 85.9132 195.447 86.2252 195.447C86.5252 195.447 86.7772 195.555 86.9812 195.771C87.1972 195.987 87.3052 196.251 87.3052 196.563C87.3052 196.875 87.1972 197.139 86.9812 197.355C86.7772 197.571 86.5252 197.679 86.2252 197.679ZM87.0172 199.281V209.145H85.3792V199.281H87.0172ZM94.1109 209.307C93.1869 209.307 92.3469 209.097 91.5909 208.677C90.8469 208.257 90.2589 207.663 89.8269 206.895C89.4069 206.115 89.1969 205.215 89.1969 204.195C89.1969 203.187 89.4129 202.299 89.8449 201.531C90.2889 200.751 90.8889 200.157 91.6449 199.749C92.4009 199.329 93.2469 199.119 94.1829 199.119C95.1189 199.119 95.9649 199.329 96.7209 199.749C97.4769 200.157 98.0709 200.745 98.5029 201.513C98.9469 202.281 99.1689 203.175 99.1689 204.195C99.1689 205.215 98.9409 206.115 98.4849 206.895C98.0409 207.663 97.4349 208.257 96.6669 208.677C95.8989 209.097 95.0469 209.307 94.1109 209.307ZM94.1109 207.867C94.6989 207.867 95.2509 207.729 95.7669 207.453C96.2829 207.177 96.6969 206.763 97.0089 206.211C97.3329 205.659 97.4949 204.987 97.4949 204.195C97.4949 203.403 97.3389 202.731 97.0269 202.179C96.7149 201.627 96.3069 201.219 95.8029 200.955C95.2989 200.679 94.7529 200.541 94.1649 200.541C93.5649 200.541 93.0129 200.679 92.5089 200.955C92.0169 201.219 91.6209 201.627 91.3209 202.179C91.0209 202.731 90.8709 203.403 90.8709 204.195C90.8709 204.999 91.0149 205.677 91.3029 206.229C91.6029 206.781 91.9989 207.195 92.4909 207.471C92.9829 207.735 93.5229 207.867 94.1109 207.867ZM106.129 199.101C107.329 199.101 108.301 199.467 109.045 200.199C109.789 200.919 110.161 201.963 110.161 203.331V209.145H108.541V203.565C108.541 202.581 108.295 201.831 107.803 201.315C107.311 200.787 106.639 200.523 105.787 200.523C104.923 200.523 104.233 200.793 103.717 201.333C103.213 201.873 102.961 202.659 102.961 203.691V209.145H101.323V199.281H102.961V200.685C103.285 200.181 103.723 199.791 104.275 199.515C104.839 199.239 105.457 199.101 106.129 199.101ZM116.328 209.307C115.572 209.307 114.894 209.181 114.294 208.929C113.694 208.665 113.22 208.305 112.872 207.849C112.524 207.381 112.332 206.847 112.296 206.247H113.988C114.036 206.739 114.264 207.141 114.672 207.453C115.092 207.765 115.638 207.921 116.31 207.921C116.934 207.921 117.426 207.783 117.786 207.507C118.146 207.231 118.326 206.883 118.326 206.463C118.326 206.031 118.134 205.713 117.75 205.509C117.366 205.293 116.772 205.083 115.968 204.879C115.236 204.687 114.636 204.495 114.168 204.303C113.712 204.099 113.316 203.805 112.98 203.421C112.656 203.025 112.494 202.509 112.494 201.873C112.494 201.369 112.644 200.907 112.944 200.487C113.244 200.067 113.67 199.737 114.222 199.497C114.774 199.245 115.404 199.119 116.112 199.119C117.204 199.119 118.086 199.395 118.758 199.947C119.43 200.499 119.79 201.255 119.838 202.215H118.2C118.164 201.699 117.954 201.285 117.57 200.973C117.198 200.661 116.694 200.505 116.058 200.505C115.47 200.505 115.002 200.631 114.654 200.883C114.306 201.135 114.132 201.465 114.132 201.873C114.132 202.197 114.234 202.467 114.438 202.683C114.654 202.887 114.918 203.055 115.23 203.187C115.554 203.307 115.998 203.445 116.562 203.601C117.27 203.793 117.846 203.985 118.29 204.177C118.734 204.357 119.112 204.633 119.424 205.005C119.748 205.377 119.916 205.863 119.928 206.463C119.928 207.003 119.778 207.489 119.478 207.921C119.178 208.353 118.752 208.695 118.2 208.947C117.66 209.187 117.036 209.307 116.328 209.307ZM131.053 200.631H128.983V209.145H127.345V200.631H126.067V199.281H127.345V198.579C127.345 197.475 127.627 196.671 128.191 196.167C128.767 195.651 129.685 195.393 130.945 195.393V196.761C130.225 196.761 129.715 196.905 129.415 197.193C129.127 197.469 128.983 197.931 128.983 198.579V199.281H131.053V200.631ZM137.265 209.307C136.341 209.307 135.501 209.097 134.745 208.677C134.001 208.257 133.413 207.663 132.981 206.895C132.561 206.115 132.351 205.215 132.351 204.195C132.351 203.187 132.567 202.299 132.999 201.531C133.443 200.751 134.043 200.157 134.799 199.749C135.555 199.329 136.401 199.119 137.337 199.119C138.273 199.119 139.119 199.329 139.875 199.749C140.631 200.157 141.225 200.745 141.657 201.513C142.101 202.281 142.323 203.175 142.323 204.195C142.323 205.215 142.095 206.115 141.639 206.895C141.195 207.663 140.589 208.257 139.821 208.677C139.053 209.097 138.201 209.307 137.265 209.307ZM137.265 207.867C137.853 207.867 138.405 207.729 138.921 207.453C139.437 207.177 139.851 206.763 140.163 206.211C140.487 205.659 140.649 204.987 140.649 204.195C140.649 203.403 140.493 202.731 140.181 202.179C139.869 201.627 139.461 201.219 138.957 200.955C138.453 200.679 137.907 200.541 137.319 200.541C136.719 200.541 136.167 200.679 135.663 200.955C135.171 201.219 134.775 201.627 134.475 202.179C134.175 202.731 134.025 203.403 134.025 204.195C134.025 204.999 134.169 205.677 134.457 206.229C134.757 206.781 135.153 207.195 135.645 207.471C136.137 207.735 136.677 207.867 137.265 207.867ZM146.115 200.883C146.403 200.319 146.811 199.881 147.339 199.569C147.879 199.257 148.533 199.101 149.301 199.101V200.793H148.869C147.033 200.793 146.115 201.789 146.115 203.781V209.145H144.477V199.281H146.115V200.883ZM164.486 199.281L158.546 213.789H156.854L158.798 209.037L154.82 199.281H156.638L159.734 207.273L162.794 199.281H164.486ZM170.435 209.307C169.511 209.307 168.671 209.097 167.915 208.677C167.171 208.257 166.583 207.663 166.151 206.895C165.731 206.115 165.521 205.215 165.521 204.195C165.521 203.187 165.737 202.299 166.169 201.531C166.613 200.751 167.213 200.157 167.969 199.749C168.725 199.329 169.571 199.119 170.507 199.119C171.443 199.119 172.289 199.329 173.045 199.749C173.801 200.157 174.395 200.745 174.827 201.513C175.271 202.281 175.493 203.175 175.493 204.195C175.493 205.215 175.265 206.115 174.809 206.895C174.365 207.663 173.759 208.257 172.991 208.677C172.223 209.097 171.371 209.307 170.435 209.307ZM170.435 207.867C171.023 207.867 171.575 207.729 172.091 207.453C172.607 207.177 173.021 206.763 173.333 206.211C173.657 205.659 173.819 204.987 173.819 204.195C173.819 203.403 173.663 202.731 173.351 202.179C173.039 201.627 172.631 201.219 172.127 200.955C171.623 200.679 171.077 200.541 170.489 200.541C169.889 200.541 169.337 200.679 168.833 200.955C168.341 201.219 167.945 201.627 167.645 202.179C167.345 202.731 167.195 203.403 167.195 204.195C167.195 204.999 167.339 205.677 167.627 206.229C167.927 206.781 168.323 207.195 168.815 207.471C169.307 207.735 169.847 207.867 170.435 207.867ZM186.395 199.281V209.145H184.757V207.687C184.445 208.191 184.007 208.587 183.443 208.875C182.891 209.151 182.279 209.289 181.607 209.289C180.839 209.289 180.149 209.133 179.537 208.821C178.925 208.497 178.439 208.017 178.079 207.381C177.731 206.745 177.557 205.971 177.557 205.059V199.281H179.177V204.843C179.177 205.815 179.423 206.565 179.915 207.093C180.407 207.609 181.079 207.867 181.931 207.867C182.807 207.867 183.497 207.597 184.001 207.057C184.505 206.517 184.757 205.731 184.757 204.699V199.281H186.395Z" fill="#002741"/>
<path d="M134.477 75.7873L121.52 71.0833V54.8367L126.669 52.4303V58.6158L125.678 59.5668C125.242 59.987 124.895 60.4914 124.657 61.0498C124.42 61.6082 124.296 62.2092 124.295 62.8166V66.3509C124.297 66.5293 124.368 66.7 124.493 66.8261C124.619 66.9523 124.789 67.0238 124.966 67.0253H129.714C129.891 67.0238 130.061 66.9523 130.186 66.8261C130.312 66.7 130.383 66.5293 130.384 66.3509V62.8109C130.383 62.2036 130.26 61.6027 130.022 61.0443C129.784 60.4859 129.437 59.9815 129.001 59.5612L128.01 58.6101V51.367C128.01 51.3378 128.008 51.3086 128.004 51.2797V51.2582C128 51.2333 127.995 51.2087 127.988 51.1845C127.988 51.1845 127.988 51.1777 127.988 51.1732C127.979 51.146 127.969 51.1188 127.957 51.0927L127.951 51.078C127.941 51.0562 127.929 51.035 127.917 51.0145L127.907 50.9998C127.892 50.9764 127.876 50.954 127.858 50.9329L127.847 50.9204C127.831 50.9023 127.814 50.8853 127.796 50.8694L127.783 50.8569C127.761 50.8379 127.738 50.8201 127.714 50.8037C127.689 50.7877 127.664 50.7733 127.637 50.7606L107.239 41.2085C107.151 41.1669 107.055 41.1453 106.958 41.1453C106.86 41.1453 106.764 41.1669 106.676 41.2085L86.2901 50.7561C86.1767 50.8121 86.0812 50.899 86.0143 51.0069C85.9475 51.1148 85.9121 51.2393 85.9121 51.3665C85.9121 51.4936 85.9475 51.6181 86.0143 51.726C86.0812 51.8339 86.1767 51.9208 86.2901 51.9768L92.3925 54.8356V72.04C92.3934 72.1701 92.4313 72.2972 92.5018 72.4063C92.5723 72.5154 92.6725 72.6019 92.7904 72.6555L92.9291 72.7178C97.3449 74.6922 102.124 75.7117 106.956 75.7103C109.323 75.7094 111.683 75.4641 114 74.978L119.646 90.7009C119.692 90.8271 119.775 90.9366 119.883 91.0157C119.991 91.0948 120.12 91.1399 120.253 91.1453H120.277C120.407 91.1451 120.535 91.107 120.644 91.0357C120.754 90.9643 120.84 90.8626 120.894 90.7429L123.937 83.8001L129.813 89.708C129.939 89.8329 130.109 89.9029 130.287 89.9029C130.464 89.9029 130.634 89.8329 130.761 89.708L133.496 86.9581C133.621 86.8308 133.691 86.6594 133.691 86.4809C133.691 86.3023 133.621 86.1309 133.496 86.0037L127.622 80.0958L134.527 77.0353C134.646 76.9784 134.745 76.8877 134.814 76.7744C134.882 76.6611 134.916 76.5302 134.912 76.3978C134.907 76.2653 134.864 76.1371 134.788 76.0288C134.712 75.9206 134.606 75.8371 134.484 75.7885L134.477 75.7873ZM129.043 62.8109V65.6708H125.637V62.8109C125.637 62.3859 125.724 61.9653 125.89 61.5746C126.056 61.1839 126.3 60.831 126.605 60.5371L127.34 59.8309L128.075 60.5371C128.38 60.8309 128.623 61.1838 128.79 61.5746C128.956 61.9653 129.042 62.3859 129.043 62.8109ZM106.956 42.5687L124.315 50.6982H106.956C106.861 50.6858 106.764 50.6939 106.672 50.7221C106.58 50.7503 106.495 50.7979 106.423 50.8617C106.351 50.9256 106.293 51.0042 106.253 51.0923C106.214 51.1804 106.193 51.276 106.193 51.3727C106.193 51.4694 106.214 51.565 106.253 51.6531C106.293 51.7412 106.351 51.8198 106.423 51.8836C106.495 51.9475 106.58 51.9951 106.672 52.0233C106.764 52.0514 106.861 52.0596 106.956 52.0471H124.315L106.956 60.1767L88.1612 51.367L106.956 42.5687ZM93.7293 71.6013V55.4647L106.669 61.5255C106.757 61.567 106.853 61.5884 106.951 61.5884C107.048 61.5884 107.144 61.567 107.233 61.5255L120.173 55.4647V70.5959L112.607 67.846C112.487 67.8028 112.358 67.7947 112.234 67.8227C112.11 67.8506 111.996 67.9135 111.906 68.0039C111.816 68.0943 111.754 68.2085 111.726 68.3333C111.698 68.4581 111.706 68.5882 111.749 68.7086L113.54 73.696C106.879 75.0535 99.964 74.3224 93.7293 71.6013ZM126.172 79.2593C126.073 79.3046 125.987 79.3731 125.92 79.4591C125.853 79.5451 125.808 79.646 125.788 79.7532C125.768 79.8605 125.774 79.971 125.806 80.0754C125.837 80.1798 125.893 80.2751 125.969 80.3531L132.063 86.482L130.276 88.2786L124.186 82.1509C124.109 82.0734 124.014 82.016 123.91 81.9836C123.806 81.9513 123.696 81.9449 123.588 81.9651C123.481 81.9853 123.381 82.0315 123.295 82.0996C123.21 82.1677 123.142 82.2557 123.098 82.356L120.338 88.6595L113.495 69.6018L132.446 76.4833L126.172 79.2593Z" fill="#4D64DD"/>
</svg>
