<svg width="285" height="276" viewBox="0 0 285 276" fill="none" xmlns="http://www.w3.org/2000/svg">
<path d="M186.267 276H38.6455C17.3361 276 0 257.836 0 235.509V40.4906C0 18.1638 17.3361 0 38.6455 0H181.225C205.316 0 224.913 20.532 224.913 45.7729V57.2995C224.913 58.7016 223.826 59.8405 222.487 59.8405C221.149 59.8405 220.062 58.7016 220.062 57.2995V45.7729C220.062 23.3361 202.644 5.08587 181.229 5.08587H38.6455C20.0125 5.08587 4.85412 20.9679 4.85412 40.4906V235.513C4.85412 255.036 20.0125 270.918 38.6455 270.918H186.271C204.904 270.918 220.062 255.036 220.062 235.513V212.46C220.062 190.133 237.398 171.969 258.704 171.969H279.575C280.913 171.969 282 173.108 282 174.51C282 175.912 280.913 177.051 279.575 177.051H258.704C240.071 177.051 224.913 192.933 224.913 212.456V235.509C224.913 257.836 207.576 276 186.267 276Z" fill="#C30D22"/>
<path opacity="0.5" d="M263.56 154.801L260.248 158.356L277.782 174.653L260.248 190.953L263.56 194.509L284.912 174.653L263.56 154.801Z" fill="#C30D22"/>
<path d="M48.9654 116.485H43.4054L42.4854 119.145H39.5454L44.5654 105.165H47.8254L52.8454 119.145H49.8854L48.9654 116.485ZM48.2054 114.245L46.1854 108.405L44.1654 114.245H48.2054ZM57.5218 109.665C57.8818 109.159 58.3751 108.739 59.0018 108.405C59.6418 108.059 60.3685 107.885 61.1818 107.885C62.1285 107.885 62.9818 108.119 63.7418 108.585C64.5151 109.052 65.1218 109.719 65.5618 110.585C66.0151 111.439 66.2418 112.432 66.2418 113.565C66.2418 114.699 66.0151 115.705 65.5618 116.585C65.1218 117.452 64.5151 118.125 63.7418 118.605C62.9818 119.085 62.1285 119.325 61.1818 119.325C60.3685 119.325 59.6485 119.159 59.0218 118.825C58.4085 118.492 57.9085 118.072 57.5218 117.565V124.425H54.7218V108.065H57.5218V109.665ZM63.3818 113.565C63.3818 112.899 63.2418 112.325 62.9618 111.845C62.6951 111.352 62.3351 110.979 61.8818 110.725C61.4418 110.472 60.9618 110.345 60.4418 110.345C59.9351 110.345 59.4551 110.479 59.0018 110.745C58.5618 110.999 58.2018 111.372 57.9218 111.865C57.6551 112.359 57.5218 112.939 57.5218 113.605C57.5218 114.272 57.6551 114.852 57.9218 115.345C58.2018 115.839 58.5618 116.219 59.0018 116.485C59.4551 116.739 59.9351 116.865 60.4418 116.865C60.9618 116.865 61.4418 116.732 61.8818 116.465C62.3351 116.199 62.6951 115.819 62.9618 115.325C63.2418 114.832 63.3818 114.245 63.3818 113.565ZM71.0765 109.665C71.4365 109.159 71.9298 108.739 72.5565 108.405C73.1965 108.059 73.9232 107.885 74.7365 107.885C75.6832 107.885 76.5365 108.119 77.2965 108.585C78.0698 109.052 78.6765 109.719 79.1165 110.585C79.5698 111.439 79.7965 112.432 79.7965 113.565C79.7965 114.699 79.5698 115.705 79.1165 116.585C78.6765 117.452 78.0698 118.125 77.2965 118.605C76.5365 119.085 75.6832 119.325 74.7365 119.325C73.9232 119.325 73.2032 119.159 72.5765 118.825C71.9632 118.492 71.4632 118.072 71.0765 117.565V124.425H68.2765V108.065H71.0765V109.665ZM76.9365 113.565C76.9365 112.899 76.7965 112.325 76.5165 111.845C76.2498 111.352 75.8898 110.979 75.4365 110.725C74.9965 110.472 74.5165 110.345 73.9965 110.345C73.4898 110.345 73.0098 110.479 72.5565 110.745C72.1165 110.999 71.7565 111.372 71.4765 111.865C71.2098 112.359 71.0765 112.939 71.0765 113.605C71.0765 114.272 71.2098 114.852 71.4765 115.345C71.7565 115.839 72.1165 116.219 72.5565 116.485C73.0098 116.739 73.4898 116.865 73.9965 116.865C74.5165 116.865 74.9965 116.732 75.4365 116.465C75.8898 116.199 76.2498 115.819 76.5165 115.325C76.7965 114.832 76.9365 114.245 76.9365 113.565ZM84.6312 104.345V119.145H81.8312V104.345H84.6312ZM88.8176 106.745C88.3242 106.745 87.9109 106.592 87.5776 106.285C87.2576 105.965 87.0976 105.572 87.0976 105.105C87.0976 104.639 87.2576 104.252 87.5776 103.945C87.9109 103.625 88.3242 103.465 88.8176 103.465C89.3109 103.465 89.7176 103.625 90.0376 103.945C90.3709 104.252 90.5376 104.639 90.5376 105.105C90.5376 105.572 90.3709 105.965 90.0376 106.285C89.7176 106.592 89.3109 106.745 88.8176 106.745ZM90.1976 108.065V119.145H87.3976V108.065H90.1976ZM92.244 113.605C92.244 112.459 92.4773 111.459 92.944 110.605C93.4107 109.739 94.0573 109.072 94.884 108.605C95.7107 108.125 96.6573 107.885 97.724 107.885C99.0973 107.885 100.231 108.232 101.124 108.925C102.031 109.605 102.637 110.565 102.944 111.805H99.924C99.764 111.325 99.4907 110.952 99.104 110.685C98.7307 110.405 98.264 110.265 97.704 110.265C96.904 110.265 96.2707 110.559 95.804 111.145C95.3373 111.719 95.104 112.539 95.104 113.605C95.104 114.659 95.3373 115.479 95.804 116.065C96.2707 116.639 96.904 116.925 97.704 116.925C98.8373 116.925 99.5773 116.419 99.924 115.405H102.944C102.637 116.605 102.031 117.559 101.124 118.265C100.217 118.972 99.084 119.325 97.724 119.325C96.6573 119.325 95.7107 119.092 94.884 118.625C94.0573 118.145 93.4107 117.479 92.944 116.625C92.4773 115.759 92.244 114.752 92.244 113.605ZM104.275 113.565C104.275 112.445 104.495 111.452 104.935 110.585C105.389 109.719 105.995 109.052 106.755 108.585C107.529 108.119 108.389 107.885 109.335 107.885C110.162 107.885 110.882 108.052 111.495 108.385C112.122 108.719 112.622 109.139 112.995 109.645V108.065H115.815V119.145H112.995V117.525C112.635 118.045 112.135 118.479 111.495 118.825C110.869 119.159 110.142 119.325 109.315 119.325C108.382 119.325 107.529 119.085 106.755 118.605C105.995 118.125 105.389 117.452 104.935 116.585C104.495 115.705 104.275 114.699 104.275 113.565ZM112.995 113.605C112.995 112.925 112.862 112.345 112.595 111.865C112.329 111.372 111.969 110.999 111.515 110.745C111.062 110.479 110.575 110.345 110.055 110.345C109.535 110.345 109.055 110.472 108.615 110.725C108.175 110.979 107.815 111.352 107.535 111.845C107.269 112.325 107.135 112.899 107.135 113.565C107.135 114.232 107.269 114.819 107.535 115.325C107.815 115.819 108.175 116.199 108.615 116.465C109.069 116.732 109.549 116.865 110.055 116.865C110.575 116.865 111.062 116.739 111.515 116.485C111.969 116.219 112.329 115.845 112.595 115.365C112.862 114.872 112.995 114.285 112.995 113.605ZM121.81 110.365V115.725C121.81 116.099 121.897 116.372 122.07 116.545C122.257 116.705 122.563 116.785 122.99 116.785H124.29V119.145H122.53C120.17 119.145 118.99 117.999 118.99 115.705V110.365H117.67V108.065H118.99V105.325H121.81V108.065H124.29V110.365H121.81ZM127.724 106.745C127.23 106.745 126.817 106.592 126.484 106.285C126.164 105.965 126.004 105.572 126.004 105.105C126.004 104.639 126.164 104.252 126.484 103.945C126.817 103.625 127.23 103.465 127.724 103.465C128.217 103.465 128.624 103.625 128.944 103.945C129.277 104.252 129.444 104.639 129.444 105.105C129.444 105.572 129.277 105.965 128.944 106.285C128.624 106.592 128.217 106.745 127.724 106.745ZM129.104 108.065V119.145H126.304V108.065H129.104ZM136.79 119.325C135.724 119.325 134.764 119.092 133.91 118.625C133.057 118.145 132.384 117.472 131.89 116.605C131.41 115.739 131.17 114.739 131.17 113.605C131.17 112.472 131.417 111.472 131.91 110.605C132.417 109.739 133.104 109.072 133.97 108.605C134.837 108.125 135.804 107.885 136.87 107.885C137.937 107.885 138.904 108.125 139.77 108.605C140.637 109.072 141.317 109.739 141.81 110.605C142.317 111.472 142.57 112.472 142.57 113.605C142.57 114.739 142.31 115.739 141.79 116.605C141.284 117.472 140.59 118.145 139.71 118.625C138.844 119.092 137.87 119.325 136.79 119.325ZM136.79 116.885C137.297 116.885 137.77 116.765 138.21 116.525C138.664 116.272 139.024 115.899 139.29 115.405C139.557 114.912 139.69 114.312 139.69 113.605C139.69 112.552 139.41 111.745 138.85 111.185C138.304 110.612 137.63 110.325 136.83 110.325C136.03 110.325 135.357 110.612 134.81 111.185C134.277 111.745 134.01 112.552 134.01 113.605C134.01 114.659 134.27 115.472 134.79 116.045C135.324 116.605 135.99 116.885 136.79 116.885ZM150.764 107.905C152.084 107.905 153.151 108.325 153.964 109.165C154.777 109.992 155.184 111.152 155.184 112.645V119.145H152.384V113.025C152.384 112.145 152.164 111.472 151.724 111.005C151.284 110.525 150.684 110.285 149.924 110.285C149.151 110.285 148.537 110.525 148.084 111.005C147.644 111.472 147.424 112.145 147.424 113.025V119.145H144.624V108.065H147.424V109.445C147.797 108.965 148.271 108.592 148.844 108.325C149.431 108.045 150.071 107.905 150.764 107.905ZM173.352 119.145L171.832 117.645C170.539 118.805 168.959 119.385 167.092 119.385C166.066 119.385 165.159 119.212 164.372 118.865C163.599 118.505 162.999 118.005 162.572 117.365C162.146 116.712 161.932 115.959 161.932 115.105C161.932 114.185 162.192 113.359 162.712 112.625C163.232 111.892 163.999 111.299 165.012 110.845C164.652 110.405 164.392 109.985 164.232 109.585C164.072 109.172 163.992 108.732 163.992 108.265C163.992 107.625 164.159 107.052 164.492 106.545C164.826 106.025 165.299 105.619 165.912 105.325C166.539 105.032 167.266 104.885 168.092 104.885C168.932 104.885 169.652 105.045 170.252 105.365C170.852 105.685 171.299 106.112 171.592 106.645C171.886 107.179 172.012 107.772 171.972 108.425H169.252C169.266 107.985 169.159 107.652 168.932 107.425C168.706 107.185 168.399 107.065 168.012 107.065C167.639 107.065 167.326 107.179 167.072 107.405C166.832 107.619 166.712 107.899 166.712 108.245C166.712 108.579 166.812 108.912 167.012 109.245C167.212 109.565 167.539 109.965 167.992 110.445L171.512 113.925C171.539 113.899 171.559 113.872 171.572 113.845C171.586 113.819 171.599 113.792 171.612 113.765L172.752 111.865H175.672L174.272 114.325C174.006 114.845 173.719 115.339 173.412 115.805L176.792 119.145H173.352ZM167.172 117.065C168.266 117.065 169.232 116.679 170.072 115.905L166.632 112.505C165.339 113.079 164.692 113.892 164.692 114.945C164.692 115.545 164.919 116.052 165.372 116.465C165.826 116.865 166.426 117.065 167.172 117.065ZM34.4358 137.185C35.9024 137.185 37.1891 137.472 38.2958 138.045C39.4158 138.619 40.2758 139.439 40.8758 140.505C41.4891 141.559 41.7958 142.785 41.7958 144.185C41.7958 145.585 41.4891 146.812 40.8758 147.865C40.2758 148.905 39.4158 149.712 38.2958 150.285C37.1891 150.859 35.9024 151.145 34.4358 151.145H29.5558V137.185H34.4358ZM34.3358 148.765C35.8024 148.765 36.9358 148.365 37.7358 147.565C38.5358 146.765 38.9358 145.639 38.9358 144.185C38.9358 142.732 38.5358 141.599 37.7358 140.785C36.9358 139.959 35.8024 139.545 34.3358 139.545H32.3558V148.765H34.3358ZM48.8117 151.325C47.7451 151.325 46.7851 151.092 45.9317 150.625C45.0784 150.145 44.4051 149.472 43.9117 148.605C43.4317 147.739 43.1917 146.739 43.1917 145.605C43.1917 144.472 43.4384 143.472 43.9317 142.605C44.4384 141.739 45.1251 141.072 45.9917 140.605C46.8584 140.125 47.8251 139.885 48.8917 139.885C49.9584 139.885 50.9251 140.125 51.7917 140.605C52.6584 141.072 53.3384 141.739 53.8317 142.605C54.3384 143.472 54.5917 144.472 54.5917 145.605C54.5917 146.739 54.3317 147.739 53.8117 148.605C53.3051 149.472 52.6117 150.145 51.7317 150.625C50.8651 151.092 49.8917 151.325 48.8117 151.325ZM48.8117 148.885C49.3184 148.885 49.7917 148.765 50.2317 148.525C50.6851 148.272 51.0451 147.899 51.3117 147.405C51.5784 146.912 51.7117 146.312 51.7117 145.605C51.7117 144.552 51.4317 143.745 50.8717 143.185C50.3251 142.612 49.6517 142.325 48.8517 142.325C48.0517 142.325 47.3784 142.612 46.8317 143.185C46.2984 143.745 46.0317 144.552 46.0317 145.605C46.0317 146.659 46.2917 147.472 46.8117 148.045C47.3451 148.605 48.0117 148.885 48.8117 148.885ZM55.9256 145.605C55.9256 144.459 56.159 143.459 56.6256 142.605C57.0923 141.739 57.739 141.072 58.5656 140.605C59.3923 140.125 60.339 139.885 61.4056 139.885C62.779 139.885 63.9123 140.232 64.8056 140.925C65.7123 141.605 66.319 142.565 66.6256 143.805H63.6056C63.4456 143.325 63.1723 142.952 62.7856 142.685C62.4123 142.405 61.9456 142.265 61.3856 142.265C60.5856 142.265 59.9523 142.559 59.4856 143.145C59.019 143.719 58.7856 144.539 58.7856 145.605C58.7856 146.659 59.019 147.479 59.4856 148.065C59.9523 148.639 60.5856 148.925 61.3856 148.925C62.519 148.925 63.259 148.419 63.6056 147.405H66.6256C66.319 148.605 65.7123 149.559 64.8056 150.265C63.899 150.972 62.7656 151.325 61.4056 151.325C60.339 151.325 59.3923 151.092 58.5656 150.625C57.739 150.145 57.0923 149.479 56.6256 148.625C56.159 147.759 55.9256 146.752 55.9256 145.605ZM79.1369 140.065V151.145H76.3169V149.745C75.9569 150.225 75.4835 150.605 74.8969 150.885C74.3235 151.152 73.6969 151.285 73.0169 151.285C72.1502 151.285 71.3835 151.105 70.7169 150.745C70.0502 150.372 69.5235 149.832 69.1369 149.125C68.7635 148.405 68.5769 147.552 68.5769 146.565V140.065H71.3769V146.165C71.3769 147.045 71.5969 147.725 72.0369 148.205C72.4769 148.672 73.0769 148.905 73.8369 148.905C74.6102 148.905 75.2169 148.672 75.6569 148.205C76.0969 147.725 76.3169 147.045 76.3169 146.165V140.065H79.1369ZM95.6595 139.905C97.0195 139.905 98.1129 140.325 98.9395 141.165C99.7795 141.992 100.2 143.152 100.2 144.645V151.145H97.3995V145.025C97.3995 144.159 97.1795 143.499 96.7395 143.045C96.2995 142.579 95.6995 142.345 94.9395 142.345C94.1795 142.345 93.5729 142.579 93.1195 143.045C92.6795 143.499 92.4595 144.159 92.4595 145.025V151.145H89.6595V145.025C89.6595 144.159 89.4395 143.499 88.9995 143.045C88.5595 142.579 87.9595 142.345 87.1995 142.345C86.4262 142.345 85.8129 142.579 85.3595 143.045C84.9195 143.499 84.6995 144.159 84.6995 145.025V151.145H81.8995V140.065H84.6995V141.405C85.0595 140.939 85.5195 140.572 86.0795 140.305C86.6529 140.039 87.2795 139.905 87.9595 139.905C88.8262 139.905 89.5995 140.092 90.2795 140.465C90.9595 140.825 91.4862 141.345 91.8595 142.025C92.2195 141.385 92.7395 140.872 93.4195 140.485C94.1129 140.099 94.8595 139.905 95.6595 139.905ZM113.157 145.365C113.157 145.765 113.13 146.125 113.077 146.445H104.977C105.043 147.245 105.323 147.872 105.817 148.325C106.31 148.779 106.917 149.005 107.637 149.005C108.677 149.005 109.417 148.559 109.857 147.665H112.877C112.557 148.732 111.943 149.612 111.037 150.305C110.13 150.985 109.017 151.325 107.697 151.325C106.63 151.325 105.67 151.092 104.817 150.625C103.977 150.145 103.317 149.472 102.837 148.605C102.37 147.739 102.137 146.739 102.137 145.605C102.137 144.459 102.37 143.452 102.837 142.585C103.303 141.719 103.957 141.052 104.797 140.585C105.637 140.119 106.603 139.885 107.697 139.885C108.75 139.885 109.69 140.112 110.517 140.565C111.357 141.019 112.003 141.665 112.457 142.505C112.923 143.332 113.157 144.285 113.157 145.365ZM110.257 144.565C110.243 143.845 109.983 143.272 109.477 142.845C108.97 142.405 108.35 142.185 107.617 142.185C106.923 142.185 106.337 142.399 105.857 142.825C105.39 143.239 105.103 143.819 104.997 144.565H110.257ZM121.34 139.905C122.66 139.905 123.727 140.325 124.54 141.165C125.354 141.992 125.76 143.152 125.76 144.645V151.145H122.96V145.025C122.96 144.145 122.74 143.472 122.3 143.005C121.86 142.525 121.26 142.285 120.5 142.285C119.727 142.285 119.114 142.525 118.66 143.005C118.22 143.472 118 144.145 118 145.025V151.145H115.2V140.065H118V141.445C118.374 140.965 118.847 140.592 119.42 140.325C120.007 140.045 120.647 139.905 121.34 139.905ZM131.683 142.365V147.725C131.683 148.099 131.77 148.372 131.943 148.545C132.13 148.705 132.436 148.785 132.863 148.785H134.163V151.145H132.403C130.043 151.145 128.863 149.999 128.863 147.705V142.365H127.543V140.065H128.863V137.325H131.683V140.065H134.163V142.365H131.683ZM135.457 145.565C135.457 144.445 135.677 143.452 136.117 142.585C136.57 141.719 137.177 141.052 137.937 140.585C138.71 140.119 139.57 139.885 140.517 139.885C141.344 139.885 142.064 140.052 142.677 140.385C143.304 140.719 143.804 141.139 144.177 141.645V140.065H146.997V151.145H144.177V149.525C143.817 150.045 143.317 150.479 142.677 150.825C142.05 151.159 141.324 151.325 140.497 151.325C139.564 151.325 138.71 151.085 137.937 150.605C137.177 150.125 136.57 149.452 136.117 148.585C135.677 147.705 135.457 146.699 135.457 145.565ZM144.177 145.605C144.177 144.925 144.044 144.345 143.777 143.865C143.51 143.372 143.15 142.999 142.697 142.745C142.244 142.479 141.757 142.345 141.237 142.345C140.717 142.345 140.237 142.472 139.797 142.725C139.357 142.979 138.997 143.352 138.717 143.845C138.45 144.325 138.317 144.899 138.317 145.565C138.317 146.232 138.45 146.819 138.717 147.325C138.997 147.819 139.357 148.199 139.797 148.465C140.25 148.732 140.73 148.865 141.237 148.865C141.757 148.865 142.244 148.739 142.697 148.485C143.15 148.219 143.51 147.845 143.777 147.365C144.044 146.872 144.177 146.285 144.177 145.605ZM152.992 142.365V147.725C152.992 148.099 153.078 148.372 153.252 148.545C153.438 148.705 153.745 148.785 154.172 148.785H155.472V151.145H153.712C151.352 151.145 150.172 149.999 150.172 147.705V142.365H148.852V140.065H150.172V137.325H152.992V140.065H155.472V142.365H152.992ZM158.905 138.745C158.412 138.745 157.999 138.592 157.665 138.285C157.345 137.965 157.185 137.572 157.185 137.105C157.185 136.639 157.345 136.252 157.665 135.945C157.999 135.625 158.412 135.465 158.905 135.465C159.399 135.465 159.805 135.625 160.125 135.945C160.459 136.252 160.625 136.639 160.625 137.105C160.625 137.572 160.459 137.965 160.125 138.285C159.805 138.592 159.399 138.745 158.905 138.745ZM160.285 140.065V151.145H157.485V140.065H160.285ZM167.972 151.325C166.905 151.325 165.945 151.092 165.092 150.625C164.239 150.145 163.565 149.472 163.072 148.605C162.592 147.739 162.352 146.739 162.352 145.605C162.352 144.472 162.599 143.472 163.092 142.605C163.599 141.739 164.285 141.072 165.152 140.605C166.019 140.125 166.985 139.885 168.052 139.885C169.119 139.885 170.085 140.125 170.952 140.605C171.819 141.072 172.499 141.739 172.992 142.605C173.499 143.472 173.752 144.472 173.752 145.605C173.752 146.739 173.492 147.739 172.972 148.605C172.465 149.472 171.772 150.145 170.892 150.625C170.025 151.092 169.052 151.325 167.972 151.325ZM167.972 148.885C168.479 148.885 168.952 148.765 169.392 148.525C169.845 148.272 170.205 147.899 170.472 147.405C170.739 146.912 170.872 146.312 170.872 145.605C170.872 144.552 170.592 143.745 170.032 143.185C169.485 142.612 168.812 142.325 168.012 142.325C167.212 142.325 166.539 142.612 165.992 143.185C165.459 143.745 165.192 144.552 165.192 145.605C165.192 146.659 165.452 147.472 165.972 148.045C166.505 148.605 167.172 148.885 167.972 148.885ZM181.946 139.905C183.266 139.905 184.332 140.325 185.146 141.165C185.959 141.992 186.366 143.152 186.366 144.645V151.145H183.566V145.025C183.566 144.145 183.346 143.472 182.906 143.005C182.466 142.525 181.866 142.285 181.106 142.285C180.332 142.285 179.719 142.525 179.266 143.005C178.826 143.472 178.606 144.145 178.606 145.025V151.145H175.806V140.065H178.606V141.445C178.979 140.965 179.452 140.592 180.026 140.325C180.612 140.045 181.252 139.905 181.946 139.905Z" fill="#C30D22"/>
<path d="M20.1988 175.931V180.125H24.7708V181.475H20.1988V185.795H25.3108V187.145H18.5608V174.581H25.3108V175.931H20.1988ZM32.5953 177.101C33.7953 177.101 34.7673 177.467 35.5113 178.199C36.2553 178.919 36.6273 179.963 36.6273 181.331V187.145H35.0073V181.565C35.0073 180.581 34.7613 179.831 34.2693 179.315C33.7773 178.787 33.1053 178.523 32.2533 178.523C31.3893 178.523 30.6993 178.793 30.1833 179.333C29.6793 179.873 29.4273 180.659 29.4273 181.691V187.145H27.7893V177.281H29.4273V178.685C29.7513 178.181 30.1893 177.791 30.7413 177.515C31.3053 177.239 31.9233 177.101 32.5953 177.101ZM38.691 182.177C38.691 181.169 38.895 180.287 39.303 179.531C39.711 178.763 40.269 178.169 40.977 177.749C41.697 177.329 42.501 177.119 43.389 177.119C44.157 177.119 44.871 177.299 45.531 177.659C46.191 178.007 46.695 178.469 47.043 179.045V173.825H48.699V187.145H47.043V185.291C46.719 185.879 46.239 186.365 45.603 186.749C44.967 187.121 44.223 187.307 43.371 187.307C42.495 187.307 41.697 187.091 40.977 186.659C40.269 186.227 39.711 185.621 39.303 184.841C38.895 184.061 38.691 183.173 38.691 182.177ZM47.043 182.195C47.043 181.451 46.893 180.803 46.593 180.251C46.293 179.699 45.885 179.279 45.369 178.991C44.865 178.691 44.307 178.541 43.695 178.541C43.083 178.541 42.525 178.685 42.021 178.973C41.517 179.261 41.115 179.681 40.815 180.233C40.515 180.785 40.365 181.433 40.365 182.177C40.365 182.933 40.515 183.593 40.815 184.157C41.115 184.709 41.517 185.135 42.021 185.435C42.525 185.723 43.083 185.867 43.695 185.867C44.307 185.867 44.865 185.723 45.369 185.435C45.885 185.135 46.293 184.709 46.593 184.157C46.893 183.593 47.043 182.939 47.043 182.195ZM58.3071 179.855V181.241H51.1251V179.855H58.3071ZM63.3791 178.631V184.445C63.3791 184.925 63.4811 185.267 63.6851 185.471C63.8891 185.663 64.2431 185.759 64.7471 185.759H65.9531V187.145H64.4771C63.5651 187.145 62.8811 186.935 62.4251 186.515C61.9691 186.095 61.7411 185.405 61.7411 184.445V178.631H60.4631V177.281H61.7411V174.797H63.3791V177.281H65.9531V178.631H63.3791ZM72.2398 187.307C71.3158 187.307 70.4758 187.097 69.7198 186.677C68.9758 186.257 68.3878 185.663 67.9558 184.895C67.5358 184.115 67.3258 183.215 67.3258 182.195C67.3258 181.187 67.5418 180.299 67.9738 179.531C68.4178 178.751 69.0178 178.157 69.7738 177.749C70.5298 177.329 71.3758 177.119 72.3118 177.119C73.2478 177.119 74.0938 177.329 74.8498 177.749C75.6058 178.157 76.1998 178.745 76.6318 179.513C77.0758 180.281 77.2978 181.175 77.2978 182.195C77.2978 183.215 77.0698 184.115 76.6138 184.895C76.1698 185.663 75.5638 186.257 74.7958 186.677C74.0278 187.097 73.1758 187.307 72.2398 187.307ZM72.2398 185.867C72.8278 185.867 73.3798 185.729 73.8958 185.453C74.4118 185.177 74.8258 184.763 75.1378 184.211C75.4618 183.659 75.6238 182.987 75.6238 182.195C75.6238 181.403 75.4678 180.731 75.1558 180.179C74.8438 179.627 74.4358 179.219 73.9318 178.955C73.4278 178.679 72.8818 178.541 72.2938 178.541C71.6938 178.541 71.1418 178.679 70.6378 178.955C70.1458 179.219 69.7498 179.627 69.4498 180.179C69.1498 180.731 68.9998 181.403 68.9998 182.195C68.9998 182.999 69.1438 183.677 69.4318 184.229C69.7318 184.781 70.1278 185.195 70.6198 185.471C71.1118 185.735 71.6518 185.867 72.2398 185.867ZM86.2914 179.855V181.241H79.1094V179.855H86.2914ZM98.3655 181.835C98.3655 182.147 98.3475 182.477 98.3115 182.825H90.4275C90.4875 183.797 90.8175 184.559 91.4175 185.111C92.0295 185.651 92.7675 185.921 93.6315 185.921C94.3395 185.921 94.9275 185.759 95.3955 185.435C95.8755 185.099 96.2115 184.655 96.4035 184.103H98.1675C97.9035 185.051 97.3755 185.825 96.5835 186.425C95.7915 187.013 94.8075 187.307 93.6315 187.307C92.6955 187.307 91.8555 187.097 91.1115 186.677C90.3795 186.257 89.8035 185.663 89.3835 184.895C88.9635 184.115 88.7535 183.215 88.7535 182.195C88.7535 181.175 88.9575 180.281 89.3655 179.513C89.7735 178.745 90.3435 178.157 91.0755 177.749C91.8195 177.329 92.6715 177.119 93.6315 177.119C94.5675 177.119 95.3955 177.323 96.1155 177.731C96.8355 178.139 97.3875 178.703 97.7715 179.423C98.1675 180.131 98.3655 180.935 98.3655 181.835ZM96.6735 181.493C96.6735 180.869 96.5355 180.335 96.2595 179.891C95.9835 179.435 95.6055 179.093 95.1255 178.865C94.6575 178.625 94.1355 178.505 93.5595 178.505C92.7315 178.505 92.0235 178.769 91.4355 179.297C90.8595 179.825 90.5295 180.557 90.4455 181.493H96.6735ZM105.334 177.101C106.534 177.101 107.506 177.467 108.25 178.199C108.994 178.919 109.366 179.963 109.366 181.331V187.145H107.746V181.565C107.746 180.581 107.5 179.831 107.008 179.315C106.516 178.787 105.844 178.523 104.992 178.523C104.128 178.523 103.438 178.793 102.922 179.333C102.418 179.873 102.166 180.659 102.166 181.691V187.145H100.528V177.281H102.166V178.685C102.49 178.181 102.928 177.791 103.48 177.515C104.044 177.239 104.662 177.101 105.334 177.101ZM111.429 182.177C111.429 181.169 111.633 180.287 112.041 179.531C112.449 178.763 113.007 178.169 113.715 177.749C114.435 177.329 115.239 177.119 116.127 177.119C116.895 177.119 117.609 177.299 118.269 177.659C118.929 178.007 119.433 178.469 119.781 179.045V173.825H121.437V187.145H119.781V185.291C119.457 185.879 118.977 186.365 118.341 186.749C117.705 187.121 116.961 187.307 116.109 187.307C115.233 187.307 114.435 187.091 113.715 186.659C113.007 186.227 112.449 185.621 112.041 184.841C111.633 184.061 111.429 183.173 111.429 182.177ZM119.781 182.195C119.781 181.451 119.631 180.803 119.331 180.251C119.031 179.699 118.623 179.279 118.107 178.991C117.603 178.691 117.045 178.541 116.433 178.541C115.821 178.541 115.263 178.685 114.759 178.973C114.255 179.261 113.853 179.681 113.553 180.233C113.253 180.785 113.103 181.433 113.103 182.177C113.103 182.933 113.253 183.593 113.553 184.157C113.853 184.709 114.255 185.135 114.759 185.435C115.263 185.723 115.821 185.867 116.433 185.867C117.045 185.867 117.603 185.723 118.107 185.435C118.623 185.135 119.031 184.709 119.331 184.157C119.631 183.593 119.781 182.939 119.781 182.195ZM132.496 187.307C131.74 187.307 131.062 187.181 130.462 186.929C129.862 186.665 129.388 186.305 129.04 185.849C128.692 185.381 128.5 184.847 128.464 184.247H130.156C130.204 184.739 130.432 185.141 130.84 185.453C131.26 185.765 131.806 185.921 132.478 185.921C133.102 185.921 133.594 185.783 133.954 185.507C134.314 185.231 134.494 184.883 134.494 184.463C134.494 184.031 134.302 183.713 133.918 183.509C133.534 183.293 132.94 183.083 132.136 182.879C131.404 182.687 130.804 182.495 130.336 182.303C129.88 182.099 129.484 181.805 129.148 181.421C128.824 181.025 128.662 180.509 128.662 179.873C128.662 179.369 128.812 178.907 129.112 178.487C129.412 178.067 129.838 177.737 130.39 177.497C130.942 177.245 131.572 177.119 132.28 177.119C133.372 177.119 134.254 177.395 134.926 177.947C135.598 178.499 135.958 179.255 136.006 180.215H134.368C134.332 179.699 134.122 179.285 133.738 178.973C133.366 178.661 132.862 178.505 132.226 178.505C131.638 178.505 131.17 178.631 130.822 178.883C130.474 179.135 130.3 179.465 130.3 179.873C130.3 180.197 130.402 180.467 130.606 180.683C130.822 180.887 131.086 181.055 131.398 181.187C131.722 181.307 132.166 181.445 132.73 181.601C133.438 181.793 134.014 181.985 134.458 182.177C134.902 182.357 135.28 182.633 135.592 183.005C135.916 183.377 136.084 183.863 136.096 184.463C136.096 185.003 135.946 185.489 135.646 185.921C135.346 186.353 134.92 186.695 134.368 186.947C133.828 187.187 133.204 187.307 132.496 187.307ZM147.156 177.281V187.145H145.518V185.687C145.206 186.191 144.768 186.587 144.204 186.875C143.652 187.151 143.04 187.289 142.368 187.289C141.6 187.289 140.91 187.133 140.298 186.821C139.686 186.497 139.2 186.017 138.84 185.381C138.492 184.745 138.318 183.971 138.318 183.059V177.281H139.938V182.843C139.938 183.815 140.184 184.565 140.676 185.093C141.168 185.609 141.84 185.867 142.692 185.867C143.568 185.867 144.258 185.597 144.762 185.057C145.266 184.517 145.518 183.731 145.518 182.699V177.281H147.156ZM151.56 179.099C151.884 178.535 152.364 178.067 153 177.695C153.648 177.311 154.398 177.119 155.25 177.119C156.126 177.119 156.918 177.329 157.626 177.749C158.346 178.169 158.91 178.763 159.318 179.531C159.726 180.287 159.93 181.169 159.93 182.177C159.93 183.173 159.726 184.061 159.318 184.841C158.91 185.621 158.346 186.227 157.626 186.659C156.918 187.091 156.126 187.307 155.25 187.307C154.41 187.307 153.666 187.121 153.018 186.749C152.382 186.365 151.896 185.891 151.56 185.327V191.825H149.922V177.281H151.56V179.099ZM158.256 182.177C158.256 181.433 158.106 180.785 157.806 180.233C157.506 179.681 157.098 179.261 156.582 178.973C156.078 178.685 155.52 178.541 154.908 178.541C154.308 178.541 153.75 178.691 153.234 178.991C152.73 179.279 152.322 179.705 152.01 180.269C151.71 180.821 151.56 181.463 151.56 182.195C151.56 182.939 151.71 183.593 152.01 184.157C152.322 184.709 152.73 185.135 153.234 185.435C153.75 185.723 154.308 185.867 154.908 185.867C155.52 185.867 156.078 185.723 156.582 185.435C157.098 185.135 157.506 184.709 157.806 184.157C158.106 183.593 158.256 182.933 158.256 182.177ZM163.724 179.099C164.048 178.535 164.528 178.067 165.164 177.695C165.812 177.311 166.562 177.119 167.414 177.119C168.29 177.119 169.082 177.329 169.79 177.749C170.51 178.169 171.074 178.763 171.482 179.531C171.89 180.287 172.094 181.169 172.094 182.177C172.094 183.173 171.89 184.061 171.482 184.841C171.074 185.621 170.51 186.227 169.79 186.659C169.082 187.091 168.29 187.307 167.414 187.307C166.574 187.307 165.83 187.121 165.182 186.749C164.546 186.365 164.06 185.891 163.724 185.327V191.825H162.086V177.281H163.724V179.099ZM170.42 182.177C170.42 181.433 170.27 180.785 169.97 180.233C169.67 179.681 169.262 179.261 168.746 178.973C168.242 178.685 167.684 178.541 167.072 178.541C166.472 178.541 165.914 178.691 165.398 178.991C164.894 179.279 164.486 179.705 164.174 180.269C163.874 180.821 163.724 181.463 163.724 182.195C163.724 182.939 163.874 183.593 164.174 184.157C164.486 184.709 164.894 185.135 165.398 185.435C165.914 185.723 166.472 185.867 167.072 185.867C167.684 185.867 168.242 185.723 168.746 185.435C169.262 185.135 169.67 184.709 169.97 184.157C170.27 183.593 170.42 182.933 170.42 182.177ZM178.552 187.307C177.628 187.307 176.788 187.097 176.032 186.677C175.288 186.257 174.7 185.663 174.268 184.895C173.848 184.115 173.638 183.215 173.638 182.195C173.638 181.187 173.854 180.299 174.286 179.531C174.73 178.751 175.33 178.157 176.086 177.749C176.842 177.329 177.688 177.119 178.624 177.119C179.56 177.119 180.406 177.329 181.162 177.749C181.918 178.157 182.512 178.745 182.944 179.513C183.388 180.281 183.61 181.175 183.61 182.195C183.61 183.215 183.382 184.115 182.926 184.895C182.482 185.663 181.876 186.257 181.108 186.677C180.34 187.097 179.488 187.307 178.552 187.307ZM178.552 185.867C179.14 185.867 179.692 185.729 180.208 185.453C180.724 185.177 181.138 184.763 181.45 184.211C181.774 183.659 181.936 182.987 181.936 182.195C181.936 181.403 181.78 180.731 181.468 180.179C181.156 179.627 180.748 179.219 180.244 178.955C179.74 178.679 179.194 178.541 178.606 178.541C178.006 178.541 177.454 178.679 176.95 178.955C176.458 179.219 176.062 179.627 175.762 180.179C175.462 180.731 175.312 181.403 175.312 182.195C175.312 182.999 175.456 183.677 175.744 184.229C176.044 184.781 176.44 185.195 176.932 185.471C177.424 185.735 177.964 185.867 178.552 185.867ZM187.402 178.883C187.69 178.319 188.098 177.881 188.626 177.569C189.166 177.257 189.82 177.101 190.588 177.101V178.793H190.156C188.32 178.793 187.402 179.789 187.402 181.781V187.145H185.764V177.281H187.402V178.883ZM194.477 178.631V184.445C194.477 184.925 194.579 185.267 194.783 185.471C194.987 185.663 195.341 185.759 195.845 185.759H197.051V187.145H195.575C194.663 187.145 193.979 186.935 193.523 186.515C193.067 186.095 192.839 185.405 192.839 184.445V178.631H191.561V177.281H192.839V174.797H194.477V177.281H197.051V178.631H194.477ZM54.5348 199.281L51.4568 209.145H49.7648L47.3888 201.315L45.0128 209.145H43.3208L40.2248 199.281H41.8988L44.1668 207.561L46.6148 199.281H48.2888L50.6828 207.579L52.9148 199.281H54.5348ZM57.0064 197.679C56.6944 197.679 56.4304 197.571 56.2144 197.355C55.9984 197.139 55.8904 196.875 55.8904 196.563C55.8904 196.251 55.9984 195.987 56.2144 195.771C56.4304 195.555 56.6944 195.447 57.0064 195.447C57.3064 195.447 57.5584 195.555 57.7624 195.771C57.9784 195.987 58.0864 196.251 58.0864 196.563C58.0864 196.875 57.9784 197.139 57.7624 197.355C57.5584 197.571 57.3064 197.679 57.0064 197.679ZM57.7984 199.281V209.145H56.1604V199.281H57.7984ZM62.5881 200.631V206.445C62.5881 206.925 62.6901 207.267 62.8941 207.471C63.0981 207.663 63.4521 207.759 63.9561 207.759H65.1621V209.145H63.6861C62.7741 209.145 62.0901 208.935 61.6341 208.515C61.1781 208.095 60.9501 207.405 60.9501 206.445V200.631H59.6721V199.281H60.9501V196.797H62.5881V199.281H65.1621V200.631H62.5881ZM72.0427 199.101C72.7867 199.101 73.4587 199.263 74.0587 199.587C74.6587 199.899 75.1267 200.373 75.4627 201.009C75.8107 201.645 75.9847 202.419 75.9847 203.331V209.145H74.3647V203.565C74.3647 202.581 74.1187 201.831 73.6267 201.315C73.1347 200.787 72.4627 200.523 71.6107 200.523C70.7467 200.523 70.0567 200.793 69.5407 201.333C69.0367 201.873 68.7847 202.659 68.7847 203.691V209.145H67.1467V195.825H68.7847V200.685C69.1087 200.181 69.5527 199.791 70.1167 199.515C70.6927 199.239 71.3347 199.101 72.0427 199.101ZM87.4732 200.631H85.4032V209.145H83.7652V200.631H82.4872V199.281H83.7652V198.579C83.7652 197.475 84.0472 196.671 84.6112 196.167C85.1872 195.651 86.1052 195.393 87.3652 195.393V196.761C86.6452 196.761 86.1352 196.905 85.8352 197.193C85.5472 197.469 85.4032 197.931 85.4032 198.579V199.281H87.4732V200.631ZM93.6851 209.307C92.7611 209.307 91.9211 209.097 91.1651 208.677C90.4211 208.257 89.8331 207.663 89.4011 206.895C88.9811 206.115 88.7711 205.215 88.7711 204.195C88.7711 203.187 88.9871 202.299 89.4191 201.531C89.8631 200.751 90.4631 200.157 91.2191 199.749C91.9751 199.329 92.8211 199.119 93.7571 199.119C94.6931 199.119 95.5391 199.329 96.2951 199.749C97.0511 200.157 97.6451 200.745 98.0771 201.513C98.5211 202.281 98.7431 203.175 98.7431 204.195C98.7431 205.215 98.5151 206.115 98.0591 206.895C97.6151 207.663 97.0091 208.257 96.2411 208.677C95.4731 209.097 94.6211 209.307 93.6851 209.307ZM93.6851 207.867C94.2731 207.867 94.8251 207.729 95.3411 207.453C95.8571 207.177 96.2711 206.763 96.5831 206.211C96.9071 205.659 97.0691 204.987 97.0691 204.195C97.0691 203.403 96.9131 202.731 96.6011 202.179C96.2891 201.627 95.8811 201.219 95.3771 200.955C94.8731 200.679 94.3271 200.541 93.7391 200.541C93.1391 200.541 92.5871 200.679 92.0831 200.955C91.5911 201.219 91.1951 201.627 90.8951 202.179C90.5951 202.731 90.4451 203.403 90.4451 204.195C90.4451 204.999 90.5891 205.677 90.8771 206.229C91.1771 206.781 91.5731 207.195 92.0651 207.471C92.5571 207.735 93.0971 207.867 93.6851 207.867ZM102.535 200.883C102.823 200.319 103.231 199.881 103.759 199.569C104.299 199.257 104.953 199.101 105.721 199.101V200.793H105.289C103.453 200.793 102.535 201.789 102.535 203.781V209.145H100.897V199.281H102.535V200.883ZM119.474 199.101C120.242 199.101 120.926 199.263 121.526 199.587C122.126 199.899 122.6 200.373 122.948 201.009C123.296 201.645 123.47 202.419 123.47 203.331V209.145H121.85V203.565C121.85 202.581 121.604 201.831 121.112 201.315C120.632 200.787 119.978 200.523 119.15 200.523C118.298 200.523 117.62 200.799 117.116 201.351C116.612 201.891 116.36 202.677 116.36 203.709V209.145H114.74V203.565C114.74 202.581 114.494 201.831 114.002 201.315C113.522 200.787 112.868 200.523 112.04 200.523C111.188 200.523 110.51 200.799 110.006 201.351C109.502 201.891 109.25 202.677 109.25 203.709V209.145H107.612V199.281H109.25V200.703C109.574 200.187 110.006 199.791 110.546 199.515C111.098 199.239 111.704 199.101 112.364 199.101C113.192 199.101 113.924 199.287 114.56 199.659C115.196 200.031 115.67 200.577 115.982 201.297C116.258 200.601 116.714 200.061 117.35 199.677C117.986 199.293 118.694 199.101 119.474 199.101ZM129.649 209.307C128.893 209.307 128.215 209.181 127.615 208.929C127.015 208.665 126.541 208.305 126.193 207.849C125.845 207.381 125.653 206.847 125.617 206.247H127.309C127.357 206.739 127.585 207.141 127.993 207.453C128.413 207.765 128.959 207.921 129.631 207.921C130.255 207.921 130.747 207.783 131.107 207.507C131.467 207.231 131.647 206.883 131.647 206.463C131.647 206.031 131.455 205.713 131.071 205.509C130.687 205.293 130.093 205.083 129.289 204.879C128.557 204.687 127.957 204.495 127.489 204.303C127.033 204.099 126.637 203.805 126.301 203.421C125.977 203.025 125.815 202.509 125.815 201.873C125.815 201.369 125.965 200.907 126.265 200.487C126.565 200.067 126.991 199.737 127.543 199.497C128.095 199.245 128.725 199.119 129.433 199.119C130.525 199.119 131.407 199.395 132.079 199.947C132.751 200.499 133.111 201.255 133.159 202.215H131.521C131.485 201.699 131.275 201.285 130.891 200.973C130.519 200.661 130.015 200.505 129.379 200.505C128.791 200.505 128.323 200.631 127.975 200.883C127.627 201.135 127.453 201.465 127.453 201.873C127.453 202.197 127.555 202.467 127.759 202.683C127.975 202.887 128.239 203.055 128.551 203.187C128.875 203.307 129.319 203.445 129.883 203.601C130.591 203.793 131.167 203.985 131.611 204.177C132.055 204.357 132.433 204.633 132.745 205.005C133.069 205.377 133.237 205.863 133.249 206.463C133.249 207.003 133.099 207.489 132.799 207.921C132.499 208.353 132.073 208.695 131.521 208.947C130.981 209.187 130.357 209.307 129.649 209.307ZM139.748 204.177C139.748 203.169 139.952 202.287 140.36 201.531C140.768 200.763 141.326 200.169 142.034 199.749C142.754 199.329 143.552 199.119 144.428 199.119C145.292 199.119 146.042 199.305 146.678 199.677C147.314 200.049 147.788 200.517 148.1 201.081V199.281H149.756V209.145H148.1V207.309C147.776 207.885 147.29 208.365 146.642 208.749C146.006 209.121 145.262 209.307 144.41 209.307C143.534 209.307 142.742 209.091 142.034 208.659C141.326 208.227 140.768 207.621 140.36 206.841C139.952 206.061 139.748 205.173 139.748 204.177ZM148.1 204.195C148.1 203.451 147.95 202.803 147.65 202.251C147.35 201.699 146.942 201.279 146.426 200.991C145.922 200.691 145.364 200.541 144.752 200.541C144.14 200.541 143.582 200.685 143.078 200.973C142.574 201.261 142.172 201.681 141.872 202.233C141.572 202.785 141.422 203.433 141.422 204.177C141.422 204.933 141.572 205.593 141.872 206.157C142.172 206.709 142.574 207.135 143.078 207.435C143.582 207.723 144.14 207.867 144.752 207.867C145.364 207.867 145.922 207.723 146.426 207.435C146.942 207.135 147.35 206.709 147.65 206.157C147.95 205.593 148.1 204.939 148.1 204.195ZM157.33 199.101C158.53 199.101 159.502 199.467 160.246 200.199C160.99 200.919 161.362 201.963 161.362 203.331V209.145H159.742V203.565C159.742 202.581 159.496 201.831 159.004 201.315C158.512 200.787 157.84 200.523 156.988 200.523C156.124 200.523 155.434 200.793 154.918 201.333C154.414 201.873 154.162 202.659 154.162 203.691V209.145H152.524V199.281H154.162V200.685C154.486 200.181 154.924 199.791 155.476 199.515C156.04 199.239 156.658 199.101 157.33 199.101ZM163.425 204.177C163.425 203.169 163.629 202.287 164.037 201.531C164.445 200.763 165.003 200.169 165.711 199.749C166.431 199.329 167.235 199.119 168.123 199.119C168.891 199.119 169.605 199.299 170.265 199.659C170.925 200.007 171.429 200.469 171.777 201.045V195.825H173.433V209.145H171.777V207.291C171.453 207.879 170.973 208.365 170.337 208.749C169.701 209.121 168.957 209.307 168.105 209.307C167.229 209.307 166.431 209.091 165.711 208.659C165.003 208.227 164.445 207.621 164.037 206.841C163.629 206.061 163.425 205.173 163.425 204.177ZM171.777 204.195C171.777 203.451 171.627 202.803 171.327 202.251C171.027 201.699 170.619 201.279 170.103 200.991C169.599 200.691 169.041 200.541 168.429 200.541C167.817 200.541 167.259 200.685 166.755 200.973C166.251 201.261 165.849 201.681 165.549 202.233C165.249 202.785 165.099 203.433 165.099 204.177C165.099 204.933 165.249 205.593 165.549 206.157C165.849 206.709 166.251 207.135 166.755 207.435C167.259 207.723 167.817 207.867 168.429 207.867C169.041 207.867 169.599 207.723 170.103 207.435C170.619 207.135 171.027 206.709 171.327 206.157C171.627 205.593 171.777 204.939 171.777 204.195ZM62.1226 223.099C62.4466 222.535 62.9266 222.067 63.5626 221.695C64.2106 221.311 64.9606 221.119 65.8126 221.119C66.6886 221.119 67.4806 221.329 68.1886 221.749C68.9086 222.169 69.4726 222.763 69.8806 223.531C70.2886 224.287 70.4926 225.169 70.4926 226.177C70.4926 227.173 70.2886 228.061 69.8806 228.841C69.4726 229.621 68.9086 230.227 68.1886 230.659C67.4806 231.091 66.6886 231.307 65.8126 231.307C64.9726 231.307 64.2286 231.121 63.5806 230.749C62.9446 230.365 62.4586 229.891 62.1226 229.327V235.825H60.4846V221.281H62.1226V223.099ZM68.8186 226.177C68.8186 225.433 68.6686 224.785 68.3686 224.233C68.0686 223.681 67.6606 223.261 67.1446 222.973C66.6406 222.685 66.0826 222.541 65.4706 222.541C64.8706 222.541 64.3126 222.691 63.7966 222.991C63.2926 223.279 62.8846 223.705 62.5726 224.269C62.2726 224.821 62.1226 225.463 62.1226 226.195C62.1226 226.939 62.2726 227.593 62.5726 228.157C62.8846 228.709 63.2926 229.135 63.7966 229.435C64.3126 229.723 64.8706 229.867 65.4706 229.867C66.0826 229.867 66.6406 229.723 67.1446 229.435C67.6606 229.135 68.0686 228.709 68.3686 228.157C68.6686 227.593 68.8186 226.933 68.8186 226.177ZM72.0367 226.177C72.0367 225.169 72.2407 224.287 72.6487 223.531C73.0567 222.763 73.6147 222.169 74.3227 221.749C75.0427 221.329 75.8407 221.119 76.7167 221.119C77.5807 221.119 78.3307 221.305 78.9667 221.677C79.6027 222.049 80.0767 222.517 80.3887 223.081V221.281H82.0447V231.145H80.3887V229.309C80.0647 229.885 79.5787 230.365 78.9307 230.749C78.2947 231.121 77.5507 231.307 76.6987 231.307C75.8227 231.307 75.0307 231.091 74.3227 230.659C73.6147 230.227 73.0567 229.621 72.6487 228.841C72.2407 228.061 72.0367 227.173 72.0367 226.177ZM80.3887 226.195C80.3887 225.451 80.2387 224.803 79.9387 224.251C79.6387 223.699 79.2307 223.279 78.7147 222.991C78.2107 222.691 77.6527 222.541 77.0407 222.541C76.4287 222.541 75.8707 222.685 75.3667 222.973C74.8627 223.261 74.4607 223.681 74.1607 224.233C73.8607 224.785 73.7107 225.433 73.7107 226.177C73.7107 226.933 73.8607 227.593 74.1607 228.157C74.4607 228.709 74.8627 229.135 75.3667 229.435C75.8707 229.723 76.4287 229.867 77.0407 229.867C77.6527 229.867 78.2107 229.723 78.7147 229.435C79.2307 229.135 79.6387 228.709 79.9387 228.157C80.2387 227.593 80.3887 226.939 80.3887 226.195ZM86.4508 223.099C86.7748 222.535 87.2548 222.067 87.8908 221.695C88.5388 221.311 89.2888 221.119 90.1408 221.119C91.0168 221.119 91.8088 221.329 92.5168 221.749C93.2368 222.169 93.8008 222.763 94.2088 223.531C94.6168 224.287 94.8208 225.169 94.8208 226.177C94.8208 227.173 94.6168 228.061 94.2088 228.841C93.8008 229.621 93.2368 230.227 92.5168 230.659C91.8088 231.091 91.0168 231.307 90.1408 231.307C89.3008 231.307 88.5568 231.121 87.9088 230.749C87.2728 230.365 86.7868 229.891 86.4508 229.327V235.825H84.8128V221.281H86.4508V223.099ZM93.1468 226.177C93.1468 225.433 92.9968 224.785 92.6968 224.233C92.3968 223.681 91.9888 223.261 91.4728 222.973C90.9688 222.685 90.4108 222.541 89.7988 222.541C89.1988 222.541 88.6408 222.691 88.1248 222.991C87.6208 223.279 87.2128 223.705 86.9008 224.269C86.6008 224.821 86.4508 225.463 86.4508 226.195C86.4508 226.939 86.6008 227.593 86.9008 228.157C87.2128 228.709 87.6208 229.135 88.1248 229.435C88.6408 229.723 89.1988 229.867 89.7988 229.867C90.4108 229.867 90.9688 229.723 91.4728 229.435C91.9888 229.135 92.3968 228.709 92.6968 228.157C92.9968 227.593 93.1468 226.933 93.1468 226.177ZM105.977 225.835C105.977 226.147 105.959 226.477 105.923 226.825H98.0388C98.0988 227.797 98.4288 228.559 99.0288 229.111C99.6408 229.651 100.379 229.921 101.243 229.921C101.951 229.921 102.539 229.759 103.007 229.435C103.487 229.099 103.823 228.655 104.015 228.103H105.779C105.515 229.051 104.987 229.825 104.195 230.425C103.403 231.013 102.419 231.307 101.243 231.307C100.307 231.307 99.4668 231.097 98.7228 230.677C97.9908 230.257 97.4148 229.663 96.9948 228.895C96.5748 228.115 96.3648 227.215 96.3648 226.195C96.3648 225.175 96.5688 224.281 96.9768 223.513C97.3848 222.745 97.9548 222.157 98.6868 221.749C99.4308 221.329 100.283 221.119 101.243 221.119C102.179 221.119 103.007 221.323 103.727 221.731C104.447 222.139 104.999 222.703 105.383 223.423C105.779 224.131 105.977 224.935 105.977 225.835ZM104.285 225.493C104.285 224.869 104.147 224.335 103.871 223.891C103.595 223.435 103.217 223.093 102.737 222.865C102.269 222.625 101.747 222.505 101.171 222.505C100.343 222.505 99.6348 222.769 99.0468 223.297C98.4708 223.825 98.1408 224.557 98.0568 225.493H104.285ZM109.777 222.883C110.065 222.319 110.473 221.881 111.001 221.569C111.541 221.257 112.195 221.101 112.963 221.101V222.793H112.531C110.695 222.793 109.777 223.789 109.777 225.781V231.145H108.139V221.281H109.777V222.883ZM127.994 221.281L124.916 231.145H123.224L120.848 223.315L118.472 231.145H116.78L113.684 221.281H115.358L117.626 229.561L120.074 221.281H121.748L124.142 229.579L126.374 221.281H127.994ZM133.921 231.307C132.997 231.307 132.157 231.097 131.401 230.677C130.657 230.257 130.069 229.663 129.637 228.895C129.217 228.115 129.007 227.215 129.007 226.195C129.007 225.187 129.223 224.299 129.655 223.531C130.099 222.751 130.699 222.157 131.455 221.749C132.211 221.329 133.057 221.119 133.993 221.119C134.929 221.119 135.775 221.329 136.531 221.749C137.287 222.157 137.881 222.745 138.313 223.513C138.757 224.281 138.979 225.175 138.979 226.195C138.979 227.215 138.751 228.115 138.295 228.895C137.851 229.663 137.245 230.257 136.477 230.677C135.709 231.097 134.857 231.307 133.921 231.307ZM133.921 229.867C134.509 229.867 135.061 229.729 135.577 229.453C136.093 229.177 136.507 228.763 136.819 228.211C137.143 227.659 137.305 226.987 137.305 226.195C137.305 225.403 137.149 224.731 136.837 224.179C136.525 223.627 136.117 223.219 135.613 222.955C135.109 222.679 134.563 222.541 133.975 222.541C133.375 222.541 132.823 222.679 132.319 222.955C131.827 223.219 131.431 223.627 131.131 224.179C130.831 224.731 130.681 225.403 130.681 226.195C130.681 226.999 130.825 227.677 131.113 228.229C131.413 228.781 131.809 229.195 132.301 229.471C132.793 229.735 133.333 229.867 133.921 229.867ZM142.771 222.883C143.059 222.319 143.467 221.881 143.995 221.569C144.535 221.257 145.189 221.101 145.957 221.101V222.793H145.525C143.689 222.793 142.771 223.789 142.771 225.781V231.145H141.133V221.281H142.771V222.883ZM153.356 231.145L149.486 226.789V231.145H147.848V217.825H149.486V225.655L153.284 221.281H155.57L150.926 226.195L155.588 231.145H153.356Z" fill="#002741"/>
<g clip-path="url(#clip0_2598_1767)">
<path d="M106.513 55.4488C106.513 55.2675 106.585 55.0936 106.713 54.9654C106.841 54.8372 107.015 54.7652 107.197 54.7652H116.238C116.419 54.7652 116.593 54.8372 116.721 54.9654C116.849 55.0936 116.921 55.2675 116.921 55.4488C116.921 55.6301 116.849 55.8039 116.721 55.9321C116.593 56.0603 116.419 56.1324 116.238 56.1324H107.197C107.015 56.1324 106.841 56.0603 106.713 55.9321C106.585 55.8039 106.513 55.6301 106.513 55.4488ZM107.197 59.46H121.475C121.657 59.46 121.83 59.388 121.959 59.2598C122.087 59.1316 122.159 58.9577 122.159 58.7764C122.159 58.5951 122.087 58.4212 121.959 58.293C121.83 58.1648 121.657 58.0928 121.475 58.0928H107.197C107.015 58.0928 106.842 58.1648 106.713 58.293C106.585 58.4212 106.513 58.5951 106.513 58.7764C106.513 58.9577 106.585 59.1316 106.713 59.2598C106.842 59.388 107.015 59.46 107.197 59.46H107.197ZM121.475 61.417H107.197C107.015 61.417 106.842 61.489 106.713 61.6172C106.585 61.7454 106.513 61.9193 106.513 62.1006C106.513 62.2819 106.585 62.4558 106.713 62.584C106.842 62.7122 107.015 62.7842 107.197 62.7842H121.475C121.657 62.7842 121.83 62.7122 121.959 62.584C122.087 62.4558 122.159 62.2819 122.159 62.1006C122.159 61.9193 122.087 61.7454 121.959 61.6172C121.83 61.489 121.657 61.417 121.475 61.417H121.475ZM121.475 64.7416H107.197C107.015 64.7416 106.842 64.8136 106.713 64.9418C106.585 65.07 106.513 65.2439 106.513 65.4252C106.513 65.6065 106.585 65.7804 106.713 65.9086C106.842 66.0368 107.015 66.1088 107.197 66.1088H121.475C121.657 66.1088 121.83 66.0368 121.959 65.9086C122.087 65.7804 122.159 65.6065 122.159 65.4252C122.159 65.2439 122.087 65.07 121.959 64.9418C121.83 64.8136 121.657 64.7416 121.475 64.7416H121.475ZM128.609 78.737V85.071C128.608 86.0684 128.211 87.0247 127.506 87.7299C126.8 88.4352 125.844 88.832 124.847 88.8331H96.3176C95.3202 88.832 94.364 88.4352 93.6587 87.7299C92.9535 87.0247 92.5567 86.0684 92.5556 85.071V68.6668L83.1477 60.5307C83.0798 60.472 83.0241 60.4004 82.9838 60.3202C82.9435 60.2399 82.9194 60.1525 82.9129 60.063C82.9064 59.9734 82.9176 59.8834 82.9459 59.7982C82.9742 59.713 83.019 59.6341 83.0778 59.5662L96.8053 43.6933C96.8641 43.6254 96.9356 43.5697 97.0159 43.5294C97.0961 43.4891 97.1836 43.465 97.2731 43.4586C97.3627 43.4521 97.4527 43.4633 97.5379 43.4916C97.6232 43.52 97.702 43.5648 97.7699 43.6236L102.688 47.878L111.547 43.8395C111.629 43.8022 111.717 43.7814 111.807 43.7783C111.897 43.7751 111.986 43.7897 112.07 43.8211C112.154 43.8526 112.231 43.9003 112.297 43.9615C112.363 44.0228 112.416 44.0963 112.453 44.1781L115.138 50.07H119.374C119.555 50.0701 119.729 50.1422 119.858 50.2703L125.311 55.7238C125.439 55.852 125.511 56.0259 125.511 56.2073V66.1633C127.106 65.9428 128.725 66.3207 130.057 67.224C131.389 68.1274 132.339 69.4921 132.724 71.0548C133.109 72.6176 132.902 74.2675 132.142 75.6862C131.382 77.1049 130.123 78.1918 128.609 78.737ZM124.144 66.5054V56.891H120.598C120.092 56.8904 119.607 56.6893 119.25 56.3317C118.892 55.9742 118.691 55.4894 118.691 54.9837V51.4376H104.528V65.1804L107.099 67.6936C107.682 68.2636 108.141 68.6669 108.752 68.6669H121.227C121.976 67.6857 122.987 66.9363 124.144 66.5054ZM120.058 54.9837C120.058 55.1268 120.115 55.264 120.216 55.3652C120.317 55.4664 120.454 55.5233 120.598 55.5235H123.177L120.058 52.405V54.9837ZM111.492 45.3675L102.893 49.2874C102.867 49.3013 102.84 49.3135 102.813 49.3239L93.6439 53.5035L98.0002 63.0614H101.143C101.993 63.0614 102.644 63.4484 103.161 63.8778V50.7538C103.161 50.5725 103.233 50.3987 103.361 50.2705C103.489 50.1423 103.663 50.0702 103.844 50.0702H113.635L111.492 45.3675ZM92.5556 66.8589V66.2722C92.557 65.4205 92.8961 64.6041 93.4986 64.0021C94.1011 63.4001 94.9179 63.0617 95.7696 63.0612H96.4975L92.1163 53.4486C92.079 53.3669 92.0582 53.2786 92.0551 53.1889C92.0519 53.0992 92.0665 53.0097 92.0979 52.9256C92.1294 52.8415 92.1771 52.7644 92.2383 52.6987C92.2995 52.6331 92.3731 52.5801 92.4548 52.5429L101.319 48.502L97.3923 45.105L84.5594 59.9441L92.5556 66.8589ZM127.241 79.0667C126.323 79.1878 125.389 79.1112 124.503 78.8421C123.617 78.573 122.798 78.1175 122.102 77.5063C121.406 76.895 120.849 76.1421 120.468 75.298C120.087 74.4538 119.89 73.5379 119.892 72.6116C119.891 71.7252 120.072 70.848 120.425 70.0345H108.752C107.536 70.0345 106.731 69.2465 106.143 68.6713L103.384 65.9743C103.372 65.9629 103.36 65.9512 103.348 65.9389L102.799 65.4018C102.196 64.8142 101.754 64.4284 101.143 64.4284H95.7696C95.2804 64.4286 94.8113 64.6229 94.4651 64.9685C94.119 65.3142 93.9241 65.783 93.9232 66.2722V85.071C93.9239 85.7059 94.1764 86.3145 94.6253 86.7634C95.0742 87.2123 95.6828 87.4648 96.3176 87.4656H124.847C125.482 87.4649 126.09 87.2124 126.539 86.7634C126.988 86.3145 127.241 85.7059 127.241 85.071V79.0667ZM131.546 72.6116C131.546 71.5944 131.244 70.6 130.679 69.7541C130.114 68.9083 129.311 68.249 128.371 67.8597C127.431 67.4704 126.397 67.3686 125.399 67.567C124.401 67.7655 123.485 68.2553 122.766 68.9746C122.046 69.6939 121.557 70.6104 121.358 71.6081C121.16 72.6058 121.261 73.64 121.651 74.5798C122.04 75.5196 122.699 76.3229 123.545 76.8881C124.391 77.4533 125.385 77.7549 126.403 77.7549C127.766 77.7534 129.074 77.211 130.038 76.2468C131.002 75.2826 131.544 73.9753 131.546 72.6116ZM129.884 70.0271C129.821 69.9636 129.745 69.9132 129.662 69.8789C129.579 69.8445 129.49 69.8268 129.401 69.8268C129.311 69.8268 129.222 69.8445 129.139 69.8789C129.056 69.9132 128.981 69.9636 128.917 70.0271L125.198 73.7458L123.888 72.4355C123.76 72.3073 123.586 72.2352 123.405 72.2352C123.223 72.2352 123.05 72.3073 122.921 72.4355C122.793 72.5637 122.721 72.7376 122.721 72.9189C122.721 73.1002 122.793 73.2741 122.921 73.4023L124.715 75.196C124.779 75.2595 124.854 75.3099 124.937 75.3442C125.02 75.3786 125.109 75.3963 125.199 75.3963C125.288 75.3963 125.377 75.3786 125.46 75.3442C125.543 75.3099 125.618 75.2595 125.682 75.196L129.884 70.9939C129.948 70.9304 129.998 70.855 130.032 70.7721C130.067 70.6891 130.084 70.6003 130.084 70.5105C130.084 70.4207 130.067 70.3318 130.032 70.2489C129.998 70.1659 129.948 70.0906 129.884 70.0271ZM123.582 83.1973H97.5827C97.4014 83.1973 97.2275 83.2693 97.0993 83.3975C96.9711 83.5257 96.8991 83.6996 96.8991 83.8809C96.8991 84.0622 96.9711 84.2361 97.0993 84.3643C97.2275 84.4925 97.4014 84.5645 97.5827 84.5645H123.582C123.763 84.5645 123.937 84.4925 124.065 84.3643C124.193 84.2361 124.265 84.0622 124.265 83.8809C124.265 83.6996 124.193 83.5257 124.065 83.3975C123.937 83.2693 123.763 83.1973 123.582 83.1973ZM97.5827 79.8952H104.251C104.433 79.8952 104.607 79.8232 104.735 79.695C104.863 79.5668 104.935 79.3929 104.935 79.2116C104.935 79.0303 104.863 78.8565 104.735 78.7283C104.607 78.6001 104.433 78.5281 104.251 78.5281H97.5827C97.4014 78.5281 97.2275 78.6001 97.0993 78.7283C96.9711 78.8565 96.8991 79.0303 96.8991 79.2116C96.8991 79.3929 96.9711 79.5668 97.0993 79.695C97.2275 79.8232 97.4014 79.8952 97.5827 79.8952Z" fill="#C30D22"/>
</g>
<defs>
<clipPath id="clip0_2598_1767">
<rect width="50" height="50" fill="white" transform="translate(82.9121 41.1453)"/>
</clipPath>
</defs>
</svg>
