<svg width="285" height="276" viewBox="0 0 285 276" fill="none" xmlns="http://www.w3.org/2000/svg">
<path d="M186.267 276H38.6455C17.3361 276 0 257.836 0 235.509V40.4906C0 18.1638 17.3361 0 38.6455 0H181.225C205.316 0 224.913 20.532 224.913 45.7729V57.2995C224.913 58.7016 223.826 59.8405 222.487 59.8405C221.149 59.8405 220.062 58.7016 220.062 57.2995V45.7729C220.062 23.3361 202.644 5.08587 181.229 5.08587H38.6455C20.0125 5.08587 4.85412 20.9679 4.85412 40.4906V235.513C4.85412 255.036 20.0125 270.918 38.6455 270.918H186.271C204.904 270.918 220.062 255.036 220.062 235.513V212.46C220.062 190.133 237.398 171.969 258.704 171.969H279.575C280.913 171.969 282 173.108 282 174.51C282 175.912 280.913 177.051 279.575 177.051H258.704C240.071 177.051 224.913 192.933 224.913 212.456V235.509C224.913 257.836 207.576 276 186.267 276Z" fill="#067B70"/>
<path opacity="0.5" d="M263.56 154.801L260.248 158.356L277.782 174.653L260.248 190.953L263.56 194.509L284.912 174.653L263.56 154.801Z" fill="#067B70"/>
<path d="M68.9849 116.485H63.4249L62.5049 119.145H59.5649L64.5849 105.165H67.8449L72.8649 119.145H69.9049L68.9849 116.485ZM68.2249 114.245L66.2049 108.405L64.1849 114.245H68.2249ZM74.0213 113.565C74.0213 112.445 74.2413 111.452 74.6813 110.585C75.1347 109.719 75.748 109.052 76.5213 108.585C77.2947 108.119 78.1547 107.885 79.1013 107.885C79.8213 107.885 80.508 108.045 81.1613 108.365C81.8147 108.672 82.3347 109.085 82.7213 109.605V104.345H85.5613V119.145H82.7213V117.505C82.3747 118.052 81.888 118.492 81.2613 118.825C80.6347 119.159 79.908 119.325 79.0813 119.325C78.148 119.325 77.2947 119.085 76.5213 118.605C75.748 118.125 75.1347 117.452 74.6813 116.585C74.2413 115.705 74.0213 114.699 74.0213 113.565ZM82.7413 113.605C82.7413 112.925 82.608 112.345 82.3413 111.865C82.0747 111.372 81.7147 110.999 81.2613 110.745C80.808 110.479 80.3213 110.345 79.8013 110.345C79.2813 110.345 78.8013 110.472 78.3613 110.725C77.9213 110.979 77.5613 111.352 77.2813 111.845C77.0147 112.325 76.8813 112.899 76.8813 113.565C76.8813 114.232 77.0147 114.819 77.2813 115.325C77.5613 115.819 77.9213 116.199 78.3613 116.465C78.8147 116.732 79.2947 116.865 79.8013 116.865C80.3213 116.865 80.808 116.739 81.2613 116.485C81.7147 116.219 82.0747 115.845 82.3413 115.365C82.608 114.872 82.7413 114.285 82.7413 113.605ZM102.056 107.905C103.416 107.905 104.509 108.325 105.336 109.165C106.176 109.992 106.596 111.152 106.596 112.645V119.145H103.796V113.025C103.796 112.159 103.576 111.499 103.136 111.045C102.696 110.579 102.096 110.345 101.336 110.345C100.576 110.345 99.9693 110.579 99.516 111.045C99.076 111.499 98.856 112.159 98.856 113.025V119.145H96.056V113.025C96.056 112.159 95.836 111.499 95.396 111.045C94.956 110.579 94.356 110.345 93.596 110.345C92.8227 110.345 92.2093 110.579 91.756 111.045C91.316 111.499 91.096 112.159 91.096 113.025V119.145H88.296V108.065H91.096V109.405C91.456 108.939 91.916 108.572 92.476 108.305C93.0493 108.039 93.676 107.905 94.356 107.905C95.2227 107.905 95.996 108.092 96.676 108.465C97.356 108.825 97.8827 109.345 98.256 110.025C98.616 109.385 99.136 108.872 99.816 108.485C100.509 108.099 101.256 107.905 102.056 107.905ZM110.673 106.745C110.18 106.745 109.766 106.592 109.433 106.285C109.113 105.965 108.953 105.572 108.953 105.105C108.953 104.639 109.113 104.252 109.433 103.945C109.766 103.625 110.18 103.465 110.673 103.465C111.166 103.465 111.573 103.625 111.893 103.945C112.226 104.252 112.393 104.639 112.393 105.105C112.393 105.572 112.226 105.965 111.893 106.285C111.573 106.592 111.166 106.745 110.673 106.745ZM112.053 108.065V119.145H109.253V108.065H112.053ZM119.059 119.325C118.153 119.325 117.339 119.165 116.619 118.845C115.899 118.512 115.326 118.065 114.899 117.505C114.486 116.945 114.259 116.325 114.219 115.645H117.039C117.093 116.072 117.299 116.425 117.659 116.705C118.033 116.985 118.493 117.125 119.039 117.125C119.573 117.125 119.986 117.019 120.279 116.805C120.586 116.592 120.739 116.319 120.739 115.985C120.739 115.625 120.553 115.359 120.179 115.185C119.819 114.999 119.239 114.799 118.439 114.585C117.613 114.385 116.933 114.179 116.399 113.965C115.879 113.752 115.426 113.425 115.039 112.985C114.666 112.545 114.479 111.952 114.479 111.205C114.479 110.592 114.653 110.032 114.999 109.525C115.359 109.019 115.866 108.619 116.519 108.325C117.186 108.032 117.966 107.885 118.859 107.885C120.179 107.885 121.233 108.219 122.019 108.885C122.806 109.539 123.239 110.425 123.319 111.545H120.639C120.599 111.105 120.413 110.759 120.079 110.505C119.759 110.239 119.326 110.105 118.779 110.105C118.273 110.105 117.879 110.199 117.599 110.385C117.333 110.572 117.199 110.832 117.199 111.165C117.199 111.539 117.386 111.825 117.759 112.025C118.133 112.212 118.713 112.405 119.499 112.605C120.299 112.805 120.959 113.012 121.479 113.225C121.999 113.439 122.446 113.772 122.819 114.225C123.206 114.665 123.406 115.252 123.419 115.985C123.419 116.625 123.239 117.199 122.879 117.705C122.533 118.212 122.026 118.612 121.359 118.905C120.706 119.185 119.939 119.325 119.059 119.325ZM129.958 119.325C129.051 119.325 128.238 119.165 127.518 118.845C126.798 118.512 126.225 118.065 125.798 117.505C125.385 116.945 125.158 116.325 125.118 115.645H127.938C127.991 116.072 128.198 116.425 128.558 116.705C128.931 116.985 129.391 117.125 129.938 117.125C130.471 117.125 130.885 117.019 131.178 116.805C131.485 116.592 131.638 116.319 131.638 115.985C131.638 115.625 131.451 115.359 131.078 115.185C130.718 114.999 130.138 114.799 129.338 114.585C128.511 114.385 127.831 114.179 127.298 113.965C126.778 113.752 126.325 113.425 125.938 112.985C125.565 112.545 125.378 111.952 125.378 111.205C125.378 110.592 125.551 110.032 125.898 109.525C126.258 109.019 126.765 108.619 127.418 108.325C128.085 108.032 128.865 107.885 129.758 107.885C131.078 107.885 132.131 108.219 132.918 108.885C133.705 109.539 134.138 110.425 134.218 111.545H131.538C131.498 111.105 131.311 110.759 130.978 110.505C130.658 110.239 130.225 110.105 129.678 110.105C129.171 110.105 128.778 110.199 128.498 110.385C128.231 110.572 128.098 110.832 128.098 111.165C128.098 111.539 128.285 111.825 128.658 112.025C129.031 112.212 129.611 112.405 130.398 112.605C131.198 112.805 131.858 113.012 132.378 113.225C132.898 113.439 133.345 113.772 133.718 114.225C134.105 114.665 134.305 115.252 134.318 115.985C134.318 116.625 134.138 117.199 133.778 117.705C133.431 118.212 132.925 118.612 132.258 118.905C131.605 119.185 130.838 119.325 129.958 119.325ZM138.036 106.745C137.543 106.745 137.13 106.592 136.796 106.285C136.476 105.965 136.316 105.572 136.316 105.105C136.316 104.639 136.476 104.252 136.796 103.945C137.13 103.625 137.543 103.465 138.036 103.465C138.53 103.465 138.936 103.625 139.256 103.945C139.59 104.252 139.756 104.639 139.756 105.105C139.756 105.572 139.59 105.965 139.256 106.285C138.936 106.592 138.53 106.745 138.036 106.745ZM139.416 108.065V119.145H136.616V108.065H139.416ZM147.103 119.325C146.036 119.325 145.076 119.092 144.223 118.625C143.369 118.145 142.696 117.472 142.203 116.605C141.723 115.739 141.483 114.739 141.483 113.605C141.483 112.472 141.729 111.472 142.223 110.605C142.729 109.739 143.416 109.072 144.283 108.605C145.149 108.125 146.116 107.885 147.183 107.885C148.249 107.885 149.216 108.125 150.083 108.605C150.949 109.072 151.629 109.739 152.123 110.605C152.629 111.472 152.883 112.472 152.883 113.605C152.883 114.739 152.623 115.739 152.103 116.605C151.596 117.472 150.903 118.145 150.023 118.625C149.156 119.092 148.183 119.325 147.103 119.325ZM147.103 116.885C147.609 116.885 148.083 116.765 148.523 116.525C148.976 116.272 149.336 115.899 149.603 115.405C149.869 114.912 150.003 114.312 150.003 113.605C150.003 112.552 149.723 111.745 149.163 111.185C148.616 110.612 147.943 110.325 147.143 110.325C146.343 110.325 145.669 110.612 145.123 111.185C144.589 111.745 144.323 112.552 144.323 113.605C144.323 114.659 144.583 115.472 145.103 116.045C145.636 116.605 146.303 116.885 147.103 116.885ZM161.077 107.905C162.397 107.905 163.463 108.325 164.277 109.165C165.09 109.992 165.497 111.152 165.497 112.645V119.145H162.697V113.025C162.697 112.145 162.477 111.472 162.037 111.005C161.597 110.525 160.997 110.285 160.237 110.285C159.463 110.285 158.85 110.525 158.397 111.005C157.957 111.472 157.737 112.145 157.737 113.025V119.145H154.937V108.065H157.737V109.445C158.11 108.965 158.583 108.592 159.157 108.325C159.743 108.045 160.383 107.905 161.077 107.905ZM45.7703 144.145C45.7703 142.772 46.077 141.545 46.6903 140.465C47.317 139.372 48.1636 138.525 49.2303 137.925C50.3103 137.312 51.517 137.005 52.8503 137.005C54.4103 137.005 55.777 137.405 56.9503 138.205C58.1236 139.005 58.9436 140.112 59.4103 141.525H56.1903C55.8703 140.859 55.417 140.359 54.8303 140.025C54.257 139.692 53.5903 139.525 52.8303 139.525C52.017 139.525 51.2903 139.719 50.6503 140.105C50.0236 140.479 49.5303 141.012 49.1703 141.705C48.8236 142.399 48.6503 143.212 48.6503 144.145C48.6503 145.065 48.8236 145.879 49.1703 146.585C49.5303 147.279 50.0236 147.819 50.6503 148.205C51.2903 148.579 52.017 148.765 52.8303 148.765C53.5903 148.765 54.257 148.599 54.8303 148.265C55.417 147.919 55.8703 147.412 56.1903 146.745H59.4103C58.9436 148.172 58.1236 149.285 56.9503 150.085C55.7903 150.872 54.4236 151.265 52.8503 151.265C51.517 151.265 50.3103 150.965 49.2303 150.365C48.1636 149.752 47.317 148.905 46.6903 147.825C46.077 146.745 45.7703 145.519 45.7703 144.145ZM66.7219 151.325C65.6552 151.325 64.6952 151.092 63.8419 150.625C62.9885 150.145 62.3152 149.472 61.8219 148.605C61.3419 147.739 61.1019 146.739 61.1019 145.605C61.1019 144.472 61.3485 143.472 61.8419 142.605C62.3485 141.739 63.0352 141.072 63.9019 140.605C64.7685 140.125 65.7352 139.885 66.8019 139.885C67.8685 139.885 68.8352 140.125 69.7019 140.605C70.5685 141.072 71.2485 141.739 71.7419 142.605C72.2485 143.472 72.5019 144.472 72.5019 145.605C72.5019 146.739 72.2419 147.739 71.7219 148.605C71.2152 149.472 70.5219 150.145 69.6419 150.625C68.7752 151.092 67.8019 151.325 66.7219 151.325ZM66.7219 148.885C67.2285 148.885 67.7019 148.765 68.1419 148.525C68.5952 148.272 68.9552 147.899 69.2219 147.405C69.4885 146.912 69.6219 146.312 69.6219 145.605C69.6219 144.552 69.3419 143.745 68.7819 143.185C68.2352 142.612 67.5619 142.325 66.7619 142.325C65.9619 142.325 65.2885 142.612 64.7419 143.185C64.2085 143.745 63.9419 144.552 63.9419 145.605C63.9419 146.659 64.2019 147.472 64.7219 148.045C65.2552 148.605 65.9219 148.885 66.7219 148.885ZM80.6958 139.905C82.0158 139.905 83.0824 140.325 83.8958 141.165C84.7091 141.992 85.1158 143.152 85.1158 144.645V151.145H82.3158V145.025C82.3158 144.145 82.0958 143.472 81.6558 143.005C81.2158 142.525 80.6158 142.285 79.8558 142.285C79.0824 142.285 78.4691 142.525 78.0158 143.005C77.5758 143.472 77.3558 144.145 77.3558 145.025V151.145H74.5558V140.065H77.3558V141.445C77.7291 140.965 78.2024 140.592 78.7758 140.325C79.3624 140.045 80.0024 139.905 80.6958 139.905ZM92.8584 142.365H90.9184V151.145H88.0784V142.365H86.8184V140.065H88.0784V139.505C88.0784 138.145 88.4651 137.145 89.2384 136.505C90.0118 135.865 91.1784 135.565 92.7384 135.605V137.965C92.0584 137.952 91.5851 138.065 91.3184 138.305C91.0518 138.545 90.9184 138.979 90.9184 139.605V140.065H92.8584V142.365ZM96.093 138.745C95.5996 138.745 95.1863 138.592 94.853 138.285C94.533 137.965 94.373 137.572 94.373 137.105C94.373 136.639 94.533 136.252 94.853 135.945C95.1863 135.625 95.5996 135.465 96.093 135.465C96.5863 135.465 96.993 135.625 97.313 135.945C97.6463 136.252 97.813 136.639 97.813 137.105C97.813 137.572 97.6463 137.965 97.313 138.285C96.993 138.592 96.5863 138.745 96.093 138.745ZM97.473 140.065V151.145H94.673V140.065H97.473ZM103.039 141.785C103.399 141.199 103.866 140.739 104.439 140.405C105.026 140.072 105.693 139.905 106.439 139.905V142.845H105.699C104.819 142.845 104.153 143.052 103.699 143.465C103.259 143.879 103.039 144.599 103.039 145.625V151.145H100.239V140.065H103.039V141.785ZM122.085 139.905C123.445 139.905 124.539 140.325 125.365 141.165C126.205 141.992 126.625 143.152 126.625 144.645V151.145H123.825V145.025C123.825 144.159 123.605 143.499 123.165 143.045C122.725 142.579 122.125 142.345 121.365 142.345C120.605 142.345 119.999 142.579 119.545 143.045C119.105 143.499 118.885 144.159 118.885 145.025V151.145H116.085V145.025C116.085 144.159 115.865 143.499 115.425 143.045C114.985 142.579 114.385 142.345 113.625 142.345C112.852 142.345 112.239 142.579 111.785 143.045C111.345 143.499 111.125 144.159 111.125 145.025V151.145H108.325V140.065H111.125V141.405C111.485 140.939 111.945 140.572 112.505 140.305C113.079 140.039 113.705 139.905 114.385 139.905C115.252 139.905 116.025 140.092 116.705 140.465C117.385 140.825 117.912 141.345 118.285 142.025C118.645 141.385 119.165 140.872 119.845 140.485C120.539 140.099 121.285 139.905 122.085 139.905ZM128.562 145.565C128.562 144.445 128.782 143.452 129.222 142.585C129.676 141.719 130.282 141.052 131.042 140.585C131.816 140.119 132.676 139.885 133.622 139.885C134.449 139.885 135.169 140.052 135.782 140.385C136.409 140.719 136.909 141.139 137.282 141.645V140.065H140.102V151.145H137.282V149.525C136.922 150.045 136.422 150.479 135.782 150.825C135.156 151.159 134.429 151.325 133.602 151.325C132.669 151.325 131.816 151.085 131.042 150.605C130.282 150.125 129.676 149.452 129.222 148.585C128.782 147.705 128.562 146.699 128.562 145.565ZM137.282 145.605C137.282 144.925 137.149 144.345 136.882 143.865C136.616 143.372 136.256 142.999 135.802 142.745C135.349 142.479 134.862 142.345 134.342 142.345C133.822 142.345 133.342 142.472 132.902 142.725C132.462 142.979 132.102 143.352 131.822 143.845C131.556 144.325 131.422 144.899 131.422 145.565C131.422 146.232 131.556 146.819 131.822 147.325C132.102 147.819 132.462 148.199 132.902 148.465C133.356 148.732 133.836 148.865 134.342 148.865C134.862 148.865 135.349 148.739 135.802 148.485C136.256 148.219 136.616 147.845 136.882 147.365C137.149 146.872 137.282 146.285 137.282 145.605ZM146.097 142.365V147.725C146.097 148.099 146.184 148.372 146.357 148.545C146.544 148.705 146.85 148.785 147.277 148.785H148.577V151.145H146.817C144.457 151.145 143.277 149.999 143.277 147.705V142.365H141.957V140.065H143.277V137.325H146.097V140.065H148.577V142.365H146.097ZM152.011 138.745C151.518 138.745 151.104 138.592 150.771 138.285C150.451 137.965 150.291 137.572 150.291 137.105C150.291 136.639 150.451 136.252 150.771 135.945C151.104 135.625 151.518 135.465 152.011 135.465C152.504 135.465 152.911 135.625 153.231 135.945C153.564 136.252 153.731 136.639 153.731 137.105C153.731 137.572 153.564 137.965 153.231 138.285C152.911 138.592 152.504 138.745 152.011 138.745ZM153.391 140.065V151.145H150.591V140.065H153.391ZM161.077 151.325C160.011 151.325 159.051 151.092 158.197 150.625C157.344 150.145 156.671 149.472 156.177 148.605C155.697 147.739 155.457 146.739 155.457 145.605C155.457 144.472 155.704 143.472 156.197 142.605C156.704 141.739 157.391 141.072 158.257 140.605C159.124 140.125 160.091 139.885 161.157 139.885C162.224 139.885 163.191 140.125 164.057 140.605C164.924 141.072 165.604 141.739 166.097 142.605C166.604 143.472 166.857 144.472 166.857 145.605C166.857 146.739 166.597 147.739 166.077 148.605C165.571 149.472 164.877 150.145 163.997 150.625C163.131 151.092 162.157 151.325 161.077 151.325ZM161.077 148.885C161.584 148.885 162.057 148.765 162.497 148.525C162.951 148.272 163.311 147.899 163.577 147.405C163.844 146.912 163.977 146.312 163.977 145.605C163.977 144.552 163.697 143.745 163.137 143.185C162.591 142.612 161.917 142.325 161.117 142.325C160.317 142.325 159.644 142.612 159.097 143.185C158.564 143.745 158.297 144.552 158.297 145.605C158.297 146.659 158.557 147.472 159.077 148.045C159.611 148.605 160.277 148.885 161.077 148.885ZM175.051 139.905C176.371 139.905 177.438 140.325 178.251 141.165C179.065 141.992 179.471 143.152 179.471 144.645V151.145H176.671V145.025C176.671 144.145 176.451 143.472 176.011 143.005C175.571 142.525 174.971 142.285 174.211 142.285C173.438 142.285 172.825 142.525 172.371 143.005C171.931 143.472 171.711 144.145 171.711 145.025V151.145H168.911V140.065H171.711V141.445C172.085 140.965 172.558 140.592 173.131 140.325C173.718 140.045 174.358 139.905 175.051 139.905Z" fill="#067B70"/>
<path d="M128.284 42.4082H97.5498C95.467 42.4082 93.7725 44.0984 93.7725 46.1761V86.105C93.7725 88.1878 95.4671 89.8823 97.5498 89.8823H128.284C130.362 89.8823 132.051 88.1877 132.051 86.105V46.176C132.051 44.0983 130.362 42.4082 128.284 42.4082ZM130.55 86.1049C130.55 87.36 129.533 88.3809 128.284 88.3809H97.5498C96.2947 88.3809 95.2738 87.36 95.2738 86.1049V46.176C95.2738 44.9264 96.2947 43.9096 97.5498 43.9096H128.284C129.533 43.9096 130.55 44.9264 130.55 46.176V86.1049Z" fill="#067B70"/>
<path d="M115.379 55.6049L111.707 59.2763L111.191 58.7605C110.184 57.7532 108.427 57.7525 107.42 58.7605C107.42 58.7605 107.42 58.7605 107.42 58.7605C106.379 59.8021 106.378 61.4898 107.421 62.5306L109.822 64.9315C110.326 65.4352 110.995 65.7127 111.707 65.7127C112.42 65.7127 113.089 65.4353 113.592 64.9315L119.149 59.3749C120.189 58.3354 120.188 56.6444 119.149 55.6053C118.143 54.5973 116.384 54.5977 115.379 55.6049ZM118.087 58.3134L112.53 63.8703C112.092 64.3098 111.324 64.3102 110.883 63.8699L108.482 61.4683C108.027 61.0147 108.026 60.2771 108.481 59.8221C108.922 59.3818 109.688 59.3808 110.129 59.8225L111.176 60.8689C111.47 61.1614 111.945 61.1618 112.238 60.8686L116.44 56.666C116.88 56.2262 117.647 56.2258 118.087 56.6664C118.541 57.1206 118.541 57.8592 118.087 58.3134Z" fill="#067B70"/>
<path d="M112.918 48.584C106.399 48.584 101.096 53.8873 101.096 60.4062C101.096 66.9188 106.399 72.2173 112.918 72.2173C119.43 72.2173 124.729 66.9188 124.729 60.4062C124.729 53.8873 119.43 48.584 112.918 48.584ZM112.918 70.7159C107.227 70.7159 102.597 66.0911 102.597 60.4062C102.597 54.7153 107.227 50.0854 112.918 50.0854C118.602 50.0854 123.227 54.7154 123.227 60.4062C123.227 66.091 118.602 70.7159 112.918 70.7159Z" fill="#067B70"/>
<path d="M123.978 76.1506H101.846C101.432 76.1506 101.096 76.4868 101.096 76.9013C101.096 77.3159 101.432 77.652 101.846 77.652H123.978C124.393 77.652 124.729 77.3159 124.729 76.9013C124.729 76.4868 124.393 76.1506 123.978 76.1506Z" fill="#067B70"/>
<path d="M123.978 82.2051H101.846C101.432 82.2051 101.096 82.5412 101.096 82.9558C101.096 83.3703 101.432 83.7064 101.846 83.7064H123.978C124.393 83.7064 124.729 83.3703 124.729 82.9558C124.729 82.5412 124.393 82.2051 123.978 82.2051Z" fill="#067B70"/>
<path d="M57.3803 174.599V175.931H51.9263V180.161H56.3543V181.493H51.9263V187.145H50.2883V174.599H57.3803ZM60.2047 175.679C59.8927 175.679 59.6287 175.571 59.4127 175.355C59.1967 175.139 59.0887 174.875 59.0887 174.563C59.0887 174.251 59.1967 173.987 59.4127 173.771C59.6287 173.555 59.8927 173.447 60.2047 173.447C60.5047 173.447 60.7567 173.555 60.9607 173.771C61.1767 173.987 61.2847 174.251 61.2847 174.563C61.2847 174.875 61.1767 175.139 60.9607 175.355C60.7567 175.571 60.5047 175.679 60.2047 175.679ZM60.9967 177.281V187.145H59.3587V177.281H60.9967ZM68.5943 177.101C69.7943 177.101 70.7663 177.467 71.5103 178.199C72.2543 178.919 72.6263 179.963 72.6263 181.331V187.145H71.0063V181.565C71.0063 180.581 70.7603 179.831 70.2683 179.315C69.7763 178.787 69.1043 178.523 68.2523 178.523C67.3883 178.523 66.6983 178.793 66.1823 179.333C65.6783 179.873 65.4263 180.659 65.4263 181.691V187.145H63.7883V177.281H65.4263V178.685C65.7503 178.181 66.1883 177.791 66.7403 177.515C67.3043 177.239 67.9223 177.101 68.5943 177.101ZM74.69 182.177C74.69 181.169 74.894 180.287 75.302 179.531C75.71 178.763 76.268 178.169 76.976 177.749C77.696 177.329 78.494 177.119 79.37 177.119C80.234 177.119 80.984 177.305 81.62 177.677C82.256 178.049 82.73 178.517 83.042 179.081V177.281H84.698V187.145H83.042V185.309C82.718 185.885 82.232 186.365 81.584 186.749C80.948 187.121 80.204 187.307 79.352 187.307C78.476 187.307 77.684 187.091 76.976 186.659C76.268 186.227 75.71 185.621 75.302 184.841C74.894 184.061 74.69 183.173 74.69 182.177ZM83.042 182.195C83.042 181.451 82.892 180.803 82.592 180.251C82.292 179.699 81.884 179.279 81.368 178.991C80.864 178.691 80.306 178.541 79.694 178.541C79.082 178.541 78.524 178.685 78.02 178.973C77.516 179.261 77.114 179.681 76.814 180.233C76.514 180.785 76.364 181.433 76.364 182.177C76.364 182.933 76.514 183.593 76.814 184.157C77.114 184.709 77.516 185.135 78.02 185.435C78.524 185.723 79.082 185.867 79.694 185.867C80.306 185.867 80.864 185.723 81.368 185.435C81.884 185.135 82.292 184.709 82.592 184.157C82.892 183.593 83.042 182.939 83.042 182.195ZM89.1041 173.825V187.145H87.4661V173.825H89.1041ZM92.7418 175.679C92.4298 175.679 92.1658 175.571 91.9498 175.355C91.7338 175.139 91.6258 174.875 91.6258 174.563C91.6258 174.251 91.7338 173.987 91.9498 173.771C92.1658 173.555 92.4298 173.447 92.7418 173.447C93.0418 173.447 93.2938 173.555 93.4978 173.771C93.7138 173.987 93.8218 174.251 93.8218 174.563C93.8218 174.875 93.7138 175.139 93.4978 175.355C93.2938 175.571 93.0418 175.679 92.7418 175.679ZM93.5338 177.281V187.145H91.8958V177.281H93.5338ZM97.5495 185.795H102.391V187.145H95.6775V185.795L100.465 178.613H95.7135V177.281H102.355V178.613L97.5495 185.795ZM105.363 175.679C105.051 175.679 104.787 175.571 104.571 175.355C104.355 175.139 104.247 174.875 104.247 174.563C104.247 174.251 104.355 173.987 104.571 173.771C104.787 173.555 105.051 173.447 105.363 173.447C105.663 173.447 105.915 173.555 106.119 173.771C106.335 173.987 106.443 174.251 106.443 174.563C106.443 174.875 106.335 175.139 106.119 175.355C105.915 175.571 105.663 175.679 105.363 175.679ZM106.155 177.281V187.145H104.517V177.281H106.155ZM113.753 177.101C114.953 177.101 115.925 177.467 116.669 178.199C117.413 178.919 117.785 179.963 117.785 181.331V187.145H116.165V181.565C116.165 180.581 115.919 179.831 115.427 179.315C114.935 178.787 114.263 178.523 113.411 178.523C112.547 178.523 111.857 178.793 111.341 179.333C110.837 179.873 110.585 180.659 110.585 181.691V187.145H108.947V177.281H110.585V178.685C110.909 178.181 111.347 177.791 111.899 177.515C112.463 177.239 113.081 177.101 113.753 177.101ZM124.528 177.119C125.38 177.119 126.124 177.305 126.76 177.677C127.408 178.049 127.888 178.517 128.2 179.081V177.281H129.856V187.361C129.856 188.261 129.664 189.059 129.28 189.755C128.896 190.463 128.344 191.015 127.624 191.411C126.916 191.807 126.088 192.005 125.14 192.005C123.844 192.005 122.764 191.699 121.9 191.087C121.036 190.475 120.526 189.641 120.37 188.585H121.99C122.17 189.185 122.542 189.665 123.106 190.025C123.67 190.397 124.348 190.583 125.14 190.583C126.04 190.583 126.772 190.301 127.336 189.737C127.912 189.173 128.2 188.381 128.2 187.361V185.291C127.876 185.867 127.396 186.347 126.76 186.731C126.124 187.115 125.38 187.307 124.528 187.307C123.652 187.307 122.854 187.091 122.134 186.659C121.426 186.227 120.868 185.621 120.46 184.841C120.052 184.061 119.848 183.173 119.848 182.177C119.848 181.169 120.052 180.287 120.46 179.531C120.868 178.763 121.426 178.169 122.134 177.749C122.854 177.329 123.652 177.119 124.528 177.119ZM128.2 182.195C128.2 181.451 128.05 180.803 127.75 180.251C127.45 179.699 127.042 179.279 126.526 178.991C126.022 178.691 125.464 178.541 124.852 178.541C124.24 178.541 123.682 178.685 123.178 178.973C122.674 179.261 122.272 179.681 121.972 180.233C121.672 180.785 121.522 181.433 121.522 182.177C121.522 182.933 121.672 183.593 121.972 184.157C122.272 184.709 122.674 185.135 123.178 185.435C123.682 185.723 124.24 185.867 124.852 185.867C125.464 185.867 126.022 185.723 126.526 185.435C127.042 185.135 127.45 184.709 127.75 184.157C128.05 183.593 128.2 182.939 128.2 182.195ZM145.919 177.281L139.979 191.789H138.287L140.231 187.037L136.253 177.281H138.071L141.167 185.273L144.227 177.281H145.919ZM151.868 187.307C150.944 187.307 150.104 187.097 149.348 186.677C148.604 186.257 148.016 185.663 147.584 184.895C147.164 184.115 146.954 183.215 146.954 182.195C146.954 181.187 147.17 180.299 147.602 179.531C148.046 178.751 148.646 178.157 149.402 177.749C150.158 177.329 151.004 177.119 151.94 177.119C152.876 177.119 153.722 177.329 154.478 177.749C155.234 178.157 155.828 178.745 156.26 179.513C156.704 180.281 156.926 181.175 156.926 182.195C156.926 183.215 156.698 184.115 156.242 184.895C155.798 185.663 155.192 186.257 154.424 186.677C153.656 187.097 152.804 187.307 151.868 187.307ZM151.868 185.867C152.456 185.867 153.008 185.729 153.524 185.453C154.04 185.177 154.454 184.763 154.766 184.211C155.09 183.659 155.252 182.987 155.252 182.195C155.252 181.403 155.096 180.731 154.784 180.179C154.472 179.627 154.064 179.219 153.56 178.955C153.056 178.679 152.51 178.541 151.922 178.541C151.322 178.541 150.77 178.679 150.266 178.955C149.774 179.219 149.378 179.627 149.078 180.179C148.778 180.731 148.628 181.403 148.628 182.195C148.628 182.999 148.772 183.677 149.06 184.229C149.36 184.781 149.756 185.195 150.248 185.471C150.74 185.735 151.28 185.867 151.868 185.867ZM167.827 177.281V187.145H166.189V185.687C165.877 186.191 165.439 186.587 164.875 186.875C164.323 187.151 163.711 187.289 163.039 187.289C162.271 187.289 161.581 187.133 160.969 186.821C160.357 186.497 159.871 186.017 159.511 185.381C159.163 184.745 158.989 183.971 158.989 183.059V177.281H160.609V182.843C160.609 183.815 160.855 184.565 161.347 185.093C161.839 185.609 162.511 185.867 163.363 185.867C164.239 185.867 164.929 185.597 165.433 185.057C165.937 184.517 166.189 183.731 166.189 182.699V177.281H167.827ZM172.231 178.883C172.519 178.319 172.927 177.881 173.455 177.569C173.995 177.257 174.649 177.101 175.417 177.101V178.793H174.985C173.149 178.793 172.231 179.789 172.231 181.781V187.145H170.593V177.281H172.231V178.883ZM46.0816 204.177C46.0816 203.169 46.2856 202.287 46.6936 201.531C47.1016 200.763 47.6596 200.169 48.3676 199.749C49.0876 199.329 49.8856 199.119 50.7616 199.119C51.6256 199.119 52.3756 199.305 53.0116 199.677C53.6476 200.049 54.1216 200.517 54.4336 201.081V199.281H56.0896V209.145H54.4336V207.309C54.1096 207.885 53.6236 208.365 52.9756 208.749C52.3396 209.121 51.5956 209.307 50.7436 209.307C49.8676 209.307 49.0756 209.091 48.3676 208.659C47.6596 208.227 47.1016 207.621 46.6936 206.841C46.2856 206.061 46.0816 205.173 46.0816 204.177ZM54.4336 204.195C54.4336 203.451 54.2836 202.803 53.9836 202.251C53.6836 201.699 53.2756 201.279 52.7596 200.991C52.2556 200.691 51.6976 200.541 51.0856 200.541C50.4736 200.541 49.9156 200.685 49.4116 200.973C48.9076 201.261 48.5056 201.681 48.2056 202.233C47.9056 202.785 47.7556 203.433 47.7556 204.177C47.7556 204.933 47.9056 205.593 48.2056 206.157C48.5056 206.709 48.9076 207.135 49.4116 207.435C49.9156 207.723 50.4736 207.867 51.0856 207.867C51.6976 207.867 52.2556 207.723 52.7596 207.435C53.2756 207.135 53.6836 206.709 53.9836 206.157C54.2836 205.593 54.4336 204.939 54.4336 204.195ZM58.2457 204.177C58.2457 203.169 58.4497 202.287 58.8577 201.531C59.2657 200.763 59.8237 200.169 60.5317 199.749C61.2517 199.329 62.0557 199.119 62.9437 199.119C63.7117 199.119 64.4257 199.299 65.0857 199.659C65.7457 200.007 66.2497 200.469 66.5977 201.045V195.825H68.2537V209.145H66.5977V207.291C66.2737 207.879 65.7937 208.365 65.1577 208.749C64.5217 209.121 63.7777 209.307 62.9257 209.307C62.0497 209.307 61.2517 209.091 60.5317 208.659C59.8237 208.227 59.2657 207.621 58.8577 206.841C58.4497 206.061 58.2457 205.173 58.2457 204.177ZM66.5977 204.195C66.5977 203.451 66.4477 202.803 66.1477 202.251C65.8477 201.699 65.4397 201.279 64.9237 200.991C64.4197 200.691 63.8617 200.541 63.2497 200.541C62.6377 200.541 62.0797 200.685 61.5757 200.973C61.0717 201.261 60.6697 201.681 60.3697 202.233C60.0697 202.785 59.9197 203.433 59.9197 204.177C59.9197 204.933 60.0697 205.593 60.3697 206.157C60.6697 206.709 61.0717 207.135 61.5757 207.435C62.0797 207.723 62.6377 207.867 63.2497 207.867C63.8617 207.867 64.4197 207.723 64.9237 207.435C65.4397 207.135 65.8477 206.709 66.1477 206.157C66.4477 205.593 66.5977 204.939 66.5977 204.195ZM82.8837 199.101C83.6517 199.101 84.3357 199.263 84.9357 199.587C85.5357 199.899 86.0097 200.373 86.3577 201.009C86.7057 201.645 86.8797 202.419 86.8797 203.331V209.145H85.2597V203.565C85.2597 202.581 85.0137 201.831 84.5217 201.315C84.0417 200.787 83.3877 200.523 82.5597 200.523C81.7077 200.523 81.0297 200.799 80.5257 201.351C80.0217 201.891 79.7697 202.677 79.7697 203.709V209.145H78.1497V203.565C78.1497 202.581 77.9037 201.831 77.4117 201.315C76.9317 200.787 76.2777 200.523 75.4497 200.523C74.5977 200.523 73.9197 200.799 73.4157 201.351C72.9117 201.891 72.6597 202.677 72.6597 203.709V209.145H71.0217V199.281H72.6597V200.703C72.9837 200.187 73.4157 199.791 73.9557 199.515C74.5077 199.239 75.1137 199.101 75.7737 199.101C76.6017 199.101 77.3337 199.287 77.9697 199.659C78.6057 200.031 79.0797 200.577 79.3917 201.297C79.6677 200.601 80.1237 200.061 80.7597 199.677C81.3957 199.293 82.1037 199.101 82.8837 199.101ZM90.4127 197.679C90.1007 197.679 89.8367 197.571 89.6207 197.355C89.4047 197.139 89.2967 196.875 89.2967 196.563C89.2967 196.251 89.4047 195.987 89.6207 195.771C89.8367 195.555 90.1007 195.447 90.4127 195.447C90.7127 195.447 90.9647 195.555 91.1687 195.771C91.3847 195.987 91.4927 196.251 91.4927 196.563C91.4927 196.875 91.3847 197.139 91.1687 197.355C90.9647 197.571 90.7127 197.679 90.4127 197.679ZM91.2047 199.281V209.145H89.5667V199.281H91.2047ZM97.4884 209.307C96.7324 209.307 96.0544 209.181 95.4544 208.929C94.8544 208.665 94.3804 208.305 94.0324 207.849C93.6844 207.381 93.4924 206.847 93.4564 206.247H95.1484C95.1964 206.739 95.4244 207.141 95.8324 207.453C96.2524 207.765 96.7984 207.921 97.4704 207.921C98.0944 207.921 98.5864 207.783 98.9464 207.507C99.3064 207.231 99.4864 206.883 99.4864 206.463C99.4864 206.031 99.2944 205.713 98.9104 205.509C98.5264 205.293 97.9324 205.083 97.1284 204.879C96.3964 204.687 95.7964 204.495 95.3284 204.303C94.8724 204.099 94.4764 203.805 94.1404 203.421C93.8164 203.025 93.6544 202.509 93.6544 201.873C93.6544 201.369 93.8044 200.907 94.1044 200.487C94.4044 200.067 94.8304 199.737 95.3824 199.497C95.9344 199.245 96.5644 199.119 97.2724 199.119C98.3644 199.119 99.2464 199.395 99.9184 199.947C100.59 200.499 100.95 201.255 100.998 202.215H99.3604C99.3244 201.699 99.1144 201.285 98.7304 200.973C98.3584 200.661 97.8544 200.505 97.2184 200.505C96.6304 200.505 96.1624 200.631 95.8144 200.883C95.4664 201.135 95.2924 201.465 95.2924 201.873C95.2924 202.197 95.3944 202.467 95.5984 202.683C95.8144 202.887 96.0784 203.055 96.3904 203.187C96.7144 203.307 97.1584 203.445 97.7224 203.601C98.4304 203.793 99.0064 203.985 99.4504 204.177C99.8944 204.357 100.272 204.633 100.584 205.005C100.908 205.377 101.076 205.863 101.088 206.463C101.088 207.003 100.938 207.489 100.638 207.921C100.338 208.353 99.9124 208.695 99.3604 208.947C98.8204 209.187 98.1964 209.307 97.4884 209.307ZM106.893 209.307C106.137 209.307 105.459 209.181 104.859 208.929C104.259 208.665 103.785 208.305 103.437 207.849C103.089 207.381 102.897 206.847 102.861 206.247H104.553C104.601 206.739 104.829 207.141 105.237 207.453C105.657 207.765 106.203 207.921 106.875 207.921C107.499 207.921 107.991 207.783 108.351 207.507C108.711 207.231 108.891 206.883 108.891 206.463C108.891 206.031 108.699 205.713 108.315 205.509C107.931 205.293 107.337 205.083 106.533 204.879C105.801 204.687 105.201 204.495 104.733 204.303C104.277 204.099 103.881 203.805 103.545 203.421C103.221 203.025 103.059 202.509 103.059 201.873C103.059 201.369 103.209 200.907 103.509 200.487C103.809 200.067 104.235 199.737 104.787 199.497C105.339 199.245 105.969 199.119 106.677 199.119C107.769 199.119 108.651 199.395 109.323 199.947C109.995 200.499 110.355 201.255 110.403 202.215H108.765C108.729 201.699 108.519 201.285 108.135 200.973C107.763 200.661 107.259 200.505 106.623 200.505C106.035 200.505 105.567 200.631 105.219 200.883C104.871 201.135 104.697 201.465 104.697 201.873C104.697 202.197 104.799 202.467 105.003 202.683C105.219 202.887 105.483 203.055 105.795 203.187C106.119 203.307 106.563 203.445 107.127 203.601C107.835 203.793 108.411 203.985 108.855 204.177C109.299 204.357 109.677 204.633 109.989 205.005C110.313 205.377 110.481 205.863 110.493 206.463C110.493 207.003 110.343 207.489 110.043 207.921C109.743 208.353 109.317 208.695 108.765 208.947C108.225 209.187 107.601 209.307 106.893 209.307ZM113.651 197.679C113.339 197.679 113.075 197.571 112.859 197.355C112.643 197.139 112.535 196.875 112.535 196.563C112.535 196.251 112.643 195.987 112.859 195.771C113.075 195.555 113.339 195.447 113.651 195.447C113.951 195.447 114.203 195.555 114.407 195.771C114.623 195.987 114.731 196.251 114.731 196.563C114.731 196.875 114.623 197.139 114.407 197.355C114.203 197.571 113.951 197.679 113.651 197.679ZM114.443 199.281V209.145H112.805V199.281H114.443ZM121.537 209.307C120.613 209.307 119.773 209.097 119.017 208.677C118.273 208.257 117.685 207.663 117.253 206.895C116.833 206.115 116.623 205.215 116.623 204.195C116.623 203.187 116.839 202.299 117.271 201.531C117.715 200.751 118.315 200.157 119.071 199.749C119.827 199.329 120.673 199.119 121.609 199.119C122.545 199.119 123.391 199.329 124.147 199.749C124.903 200.157 125.497 200.745 125.929 201.513C126.373 202.281 126.595 203.175 126.595 204.195C126.595 205.215 126.367 206.115 125.911 206.895C125.467 207.663 124.861 208.257 124.093 208.677C123.325 209.097 122.473 209.307 121.537 209.307ZM121.537 207.867C122.125 207.867 122.677 207.729 123.193 207.453C123.709 207.177 124.123 206.763 124.435 206.211C124.759 205.659 124.921 204.987 124.921 204.195C124.921 203.403 124.765 202.731 124.453 202.179C124.141 201.627 123.733 201.219 123.229 200.955C122.725 200.679 122.179 200.541 121.591 200.541C120.991 200.541 120.439 200.679 119.935 200.955C119.443 201.219 119.047 201.627 118.747 202.179C118.447 202.731 118.297 203.403 118.297 204.195C118.297 204.999 118.441 205.677 118.729 206.229C119.029 206.781 119.425 207.195 119.917 207.471C120.409 207.735 120.949 207.867 121.537 207.867ZM133.554 199.101C134.754 199.101 135.726 199.467 136.47 200.199C137.214 200.919 137.586 201.963 137.586 203.331V209.145H135.966V203.565C135.966 202.581 135.72 201.831 135.228 201.315C134.736 200.787 134.064 200.523 133.212 200.523C132.348 200.523 131.658 200.793 131.142 201.333C130.638 201.873 130.386 202.659 130.386 203.691V209.145H128.748V199.281H130.386V200.685C130.71 200.181 131.148 199.791 131.7 199.515C132.264 199.239 132.882 199.101 133.554 199.101ZM144.449 204.177C144.449 203.169 144.653 202.287 145.061 201.531C145.469 200.763 146.027 200.169 146.735 199.749C147.455 199.329 148.253 199.119 149.129 199.119C149.993 199.119 150.743 199.305 151.379 199.677C152.015 200.049 152.489 200.517 152.801 201.081V199.281H154.457V209.145H152.801V207.309C152.477 207.885 151.991 208.365 151.343 208.749C150.707 209.121 149.963 209.307 149.111 209.307C148.235 209.307 147.443 209.091 146.735 208.659C146.027 208.227 145.469 207.621 145.061 206.841C144.653 206.061 144.449 205.173 144.449 204.177ZM152.801 204.195C152.801 203.451 152.651 202.803 152.351 202.251C152.051 201.699 151.643 201.279 151.127 200.991C150.623 200.691 150.065 200.541 149.453 200.541C148.841 200.541 148.283 200.685 147.779 200.973C147.275 201.261 146.873 201.681 146.573 202.233C146.273 202.785 146.123 203.433 146.123 204.177C146.123 204.933 146.273 205.593 146.573 206.157C146.873 206.709 147.275 207.135 147.779 207.435C148.283 207.723 148.841 207.867 149.453 207.867C150.065 207.867 150.623 207.723 151.127 207.435C151.643 207.135 152.051 206.709 152.351 206.157C152.651 205.593 152.801 204.939 152.801 204.195ZM162.031 199.101C163.231 199.101 164.203 199.467 164.947 200.199C165.691 200.919 166.063 201.963 166.063 203.331V209.145H164.443V203.565C164.443 202.581 164.197 201.831 163.705 201.315C163.213 200.787 162.541 200.523 161.689 200.523C160.825 200.523 160.135 200.793 159.619 201.333C159.115 201.873 158.863 202.659 158.863 203.691V209.145H157.225V199.281H158.863V200.685C159.187 200.181 159.625 199.791 160.177 199.515C160.741 199.239 161.359 199.101 162.031 199.101ZM168.127 204.177C168.127 203.169 168.331 202.287 168.739 201.531C169.147 200.763 169.705 200.169 170.413 199.749C171.133 199.329 171.937 199.119 172.825 199.119C173.593 199.119 174.307 199.299 174.967 199.659C175.627 200.007 176.131 200.469 176.479 201.045V195.825H178.135V209.145H176.479V207.291C176.155 207.879 175.675 208.365 175.039 208.749C174.403 209.121 173.659 209.307 172.807 209.307C171.931 209.307 171.133 209.091 170.413 208.659C169.705 208.227 169.147 207.621 168.739 206.841C168.331 206.061 168.127 205.173 168.127 204.177ZM176.479 204.195C176.479 203.451 176.329 202.803 176.029 202.251C175.729 201.699 175.321 201.279 174.805 200.991C174.301 200.691 173.743 200.541 173.131 200.541C172.519 200.541 171.961 200.685 171.457 200.973C170.953 201.261 170.551 201.681 170.251 202.233C169.951 202.785 169.801 203.433 169.801 204.177C169.801 204.933 169.951 205.593 170.251 206.157C170.551 206.709 170.953 207.135 171.457 207.435C171.961 207.723 172.519 207.867 173.131 207.867C173.743 207.867 174.301 207.723 174.805 207.435C175.321 207.135 175.729 206.709 176.029 206.157C176.329 205.593 176.479 204.939 176.479 204.195ZM26.5478 221.119C27.3998 221.119 28.1438 221.305 28.7798 221.677C29.4278 222.049 29.9078 222.517 30.2198 223.081V221.281H31.8758V231.361C31.8758 232.261 31.6838 233.059 31.2998 233.755C30.9158 234.463 30.3638 235.015 29.6438 235.411C28.9358 235.807 28.1078 236.005 27.1598 236.005C25.8638 236.005 24.7838 235.699 23.9198 235.087C23.0558 234.475 22.5458 233.641 22.3898 232.585H24.0098C24.1898 233.185 24.5618 233.665 25.1258 234.025C25.6898 234.397 26.3678 234.583 27.1598 234.583C28.0598 234.583 28.7918 234.301 29.3558 233.737C29.9318 233.173 30.2198 232.381 30.2198 231.361V229.291C29.8958 229.867 29.4158 230.347 28.7798 230.731C28.1438 231.115 27.3998 231.307 26.5478 231.307C25.6718 231.307 24.8738 231.091 24.1538 230.659C23.4458 230.227 22.8878 229.621 22.4798 228.841C22.0718 228.061 21.8678 227.173 21.8678 226.177C21.8678 225.169 22.0718 224.287 22.4798 223.531C22.8878 222.763 23.4458 222.169 24.1538 221.749C24.8738 221.329 25.6718 221.119 26.5478 221.119ZM30.2198 226.195C30.2198 225.451 30.0698 224.803 29.7698 224.251C29.4698 223.699 29.0618 223.279 28.5458 222.991C28.0418 222.691 27.4838 222.541 26.8718 222.541C26.2598 222.541 25.7018 222.685 25.1978 222.973C24.6938 223.261 24.2918 223.681 23.9918 224.233C23.6918 224.785 23.5418 225.433 23.5418 226.177C23.5418 226.933 23.6918 227.593 23.9918 228.157C24.2918 228.709 24.6938 229.135 25.1978 229.435C25.7018 229.723 26.2598 229.867 26.8718 229.867C27.4838 229.867 28.0418 229.723 28.5458 229.435C29.0618 229.135 29.4698 228.709 29.7698 228.157C30.0698 227.593 30.2198 226.939 30.2198 226.195ZM43.3918 221.281V231.145H41.7538V229.687C41.4418 230.191 41.0038 230.587 40.4398 230.875C39.8878 231.151 39.2758 231.289 38.6038 231.289C37.8358 231.289 37.1458 231.133 36.5338 230.821C35.9218 230.497 35.4358 230.017 35.0758 229.381C34.7278 228.745 34.5538 227.971 34.5538 227.059V221.281H36.1738V226.843C36.1738 227.815 36.4198 228.565 36.9118 229.093C37.4038 229.609 38.0758 229.867 38.9278 229.867C39.8038 229.867 40.4938 229.597 40.9978 229.057C41.5018 228.517 41.7538 227.731 41.7538 226.699V221.281H43.3918ZM47.0035 219.679C46.6915 219.679 46.4275 219.571 46.2115 219.355C45.9955 219.139 45.8875 218.875 45.8875 218.563C45.8875 218.251 45.9955 217.987 46.2115 217.771C46.4275 217.555 46.6915 217.447 47.0035 217.447C47.3035 217.447 47.5555 217.555 47.7595 217.771C47.9755 217.987 48.0835 218.251 48.0835 218.563C48.0835 218.875 47.9755 219.139 47.7595 219.355C47.5555 219.571 47.3035 219.679 47.0035 219.679ZM47.7955 221.281V231.145H46.1575V221.281H47.7955ZM49.9752 226.177C49.9752 225.169 50.1792 224.287 50.5872 223.531C50.9952 222.763 51.5532 222.169 52.2612 221.749C52.9812 221.329 53.7852 221.119 54.6732 221.119C55.4412 221.119 56.1552 221.299 56.8152 221.659C57.4752 222.007 57.9792 222.469 58.3272 223.045V217.825H59.9832V231.145H58.3272V229.291C58.0032 229.879 57.5232 230.365 56.8872 230.749C56.2512 231.121 55.5072 231.307 54.6552 231.307C53.7792 231.307 52.9812 231.091 52.2612 230.659C51.5532 230.227 50.9952 229.621 50.5872 228.841C50.1792 228.061 49.9752 227.173 49.9752 226.177ZM58.3272 226.195C58.3272 225.451 58.1772 224.803 57.8772 224.251C57.5772 223.699 57.1692 223.279 56.6532 222.991C56.1492 222.691 55.5912 222.541 54.9792 222.541C54.3672 222.541 53.8092 222.685 53.3052 222.973C52.8012 223.261 52.3992 223.681 52.0992 224.233C51.7992 224.785 51.6492 225.433 51.6492 226.177C51.6492 226.933 51.7992 227.593 52.0992 228.157C52.3992 228.709 52.8012 229.135 53.3052 229.435C53.8092 229.723 54.3672 229.867 54.9792 229.867C55.5912 229.867 56.1492 229.723 56.6532 229.435C57.1692 229.135 57.5772 228.709 57.8772 228.157C58.1772 227.593 58.3272 226.939 58.3272 226.195ZM63.5972 219.679C63.2852 219.679 63.0212 219.571 62.8052 219.355C62.5892 219.139 62.4812 218.875 62.4812 218.563C62.4812 218.251 62.5892 217.987 62.8052 217.771C63.0212 217.555 63.2852 217.447 63.5972 217.447C63.8972 217.447 64.1492 217.555 64.3532 217.771C64.5692 217.987 64.6772 218.251 64.6772 218.563C64.6772 218.875 64.5692 219.139 64.3532 219.355C64.1492 219.571 63.8972 219.679 63.5972 219.679ZM64.3892 221.281V231.145H62.7512V221.281H64.3892ZM71.9869 221.101C73.1869 221.101 74.1589 221.467 74.9029 222.199C75.6469 222.919 76.0189 223.963 76.0189 225.331V231.145H74.3989V225.565C74.3989 224.581 74.1529 223.831 73.6609 223.315C73.1689 222.787 72.4969 222.523 71.6449 222.523C70.7809 222.523 70.0909 222.793 69.5749 223.333C69.0709 223.873 68.8189 224.659 68.8189 225.691V231.145H67.1809V221.281H68.8189V222.685C69.1429 222.181 69.5809 221.791 70.1329 221.515C70.6969 221.239 71.3149 221.101 71.9869 221.101ZM82.7626 221.119C83.6146 221.119 84.3586 221.305 84.9946 221.677C85.6426 222.049 86.1226 222.517 86.4346 223.081V221.281H88.0906V231.361C88.0906 232.261 87.8986 233.059 87.5146 233.755C87.1306 234.463 86.5786 235.015 85.8586 235.411C85.1506 235.807 84.3226 236.005 83.3746 236.005C82.0786 236.005 80.9986 235.699 80.1346 235.087C79.2706 234.475 78.7606 233.641 78.6046 232.585H80.2246C80.4046 233.185 80.7766 233.665 81.3406 234.025C81.9046 234.397 82.5826 234.583 83.3746 234.583C84.2746 234.583 85.0066 234.301 85.5706 233.737C86.1466 233.173 86.4346 232.381 86.4346 231.361V229.291C86.1106 229.867 85.6306 230.347 84.9946 230.731C84.3586 231.115 83.6146 231.307 82.7626 231.307C81.8866 231.307 81.0886 231.091 80.3686 230.659C79.6606 230.227 79.1026 229.621 78.6946 228.841C78.2866 228.061 78.0826 227.173 78.0826 226.177C78.0826 225.169 78.2866 224.287 78.6946 223.531C79.1026 222.763 79.6606 222.169 80.3686 221.749C81.0886 221.329 81.8866 221.119 82.7626 221.119ZM86.4346 226.195C86.4346 225.451 86.2846 224.803 85.9846 224.251C85.6846 223.699 85.2766 223.279 84.7606 222.991C84.2566 222.691 83.6986 222.541 83.0866 222.541C82.4746 222.541 81.9166 222.685 81.4126 222.973C80.9086 223.261 80.5066 223.681 80.2066 224.233C79.9066 224.785 79.7566 225.433 79.7566 226.177C79.7566 226.933 79.9066 227.593 80.2066 228.157C80.5066 228.709 80.9086 229.135 81.4126 229.435C81.9166 229.723 82.4746 229.867 83.0866 229.867C83.6986 229.867 84.2566 229.723 84.7606 229.435C85.2766 229.135 85.6846 228.709 85.9846 228.157C86.2846 227.593 86.4346 226.939 86.4346 226.195ZM104.153 221.281L98.2135 235.789H96.5215L98.4655 231.037L94.4875 221.281H96.3055L99.4015 229.273L102.461 221.281H104.153ZM110.102 231.307C109.178 231.307 108.338 231.097 107.582 230.677C106.838 230.257 106.25 229.663 105.818 228.895C105.398 228.115 105.188 227.215 105.188 226.195C105.188 225.187 105.404 224.299 105.836 223.531C106.28 222.751 106.88 222.157 107.636 221.749C108.392 221.329 109.238 221.119 110.174 221.119C111.11 221.119 111.956 221.329 112.712 221.749C113.468 222.157 114.062 222.745 114.494 223.513C114.938 224.281 115.16 225.175 115.16 226.195C115.16 227.215 114.932 228.115 114.476 228.895C114.032 229.663 113.426 230.257 112.658 230.677C111.89 231.097 111.038 231.307 110.102 231.307ZM110.102 229.867C110.69 229.867 111.242 229.729 111.758 229.453C112.274 229.177 112.688 228.763 113 228.211C113.324 227.659 113.486 226.987 113.486 226.195C113.486 225.403 113.33 224.731 113.018 224.179C112.706 223.627 112.298 223.219 111.794 222.955C111.29 222.679 110.744 222.541 110.156 222.541C109.556 222.541 109.004 222.679 108.5 222.955C108.008 223.219 107.612 223.627 107.312 224.179C107.012 224.731 106.862 225.403 106.862 226.195C106.862 226.999 107.006 227.677 107.294 228.229C107.594 228.781 107.99 229.195 108.482 229.471C108.974 229.735 109.514 229.867 110.102 229.867ZM126.062 221.281V231.145H124.424V229.687C124.112 230.191 123.674 230.587 123.11 230.875C122.558 231.151 121.946 231.289 121.274 231.289C120.506 231.289 119.816 231.133 119.204 230.821C118.592 230.497 118.106 230.017 117.746 229.381C117.398 228.745 117.224 227.971 117.224 227.059V221.281H118.844V226.843C118.844 227.815 119.09 228.565 119.582 229.093C120.074 229.609 120.746 229.867 121.598 229.867C122.474 229.867 123.164 229.597 123.668 229.057C124.172 228.517 124.424 227.731 124.424 226.699V221.281H126.062ZM135.624 222.631V228.445C135.624 228.925 135.726 229.267 135.93 229.471C136.134 229.663 136.488 229.759 136.992 229.759H138.198V231.145H136.722C135.81 231.145 135.126 230.935 134.67 230.515C134.214 230.095 133.986 229.405 133.986 228.445V222.631H132.708V221.281H133.986V218.797H135.624V221.281H138.198V222.631H135.624ZM145.079 221.101C145.823 221.101 146.495 221.263 147.095 221.587C147.695 221.899 148.163 222.373 148.499 223.009C148.847 223.645 149.021 224.419 149.021 225.331V231.145H147.401V225.565C147.401 224.581 147.155 223.831 146.663 223.315C146.171 222.787 145.499 222.523 144.647 222.523C143.783 222.523 143.093 222.793 142.577 223.333C142.073 223.873 141.821 224.659 141.821 225.691V231.145H140.183V217.825H141.821V222.685C142.145 222.181 142.589 221.791 143.153 221.515C143.729 221.239 144.371 221.101 145.079 221.101ZM153.335 222.883C153.623 222.319 154.031 221.881 154.559 221.569C155.099 221.257 155.753 221.101 156.521 221.101V222.793H156.089C154.253 222.793 153.335 223.789 153.335 225.781V231.145H151.697V221.281H153.335V222.883ZM162.713 231.307C161.789 231.307 160.949 231.097 160.193 230.677C159.449 230.257 158.861 229.663 158.429 228.895C158.009 228.115 157.799 227.215 157.799 226.195C157.799 225.187 158.015 224.299 158.447 223.531C158.891 222.751 159.491 222.157 160.247 221.749C161.003 221.329 161.849 221.119 162.785 221.119C163.721 221.119 164.567 221.329 165.323 221.749C166.079 222.157 166.673 222.745 167.105 223.513C167.549 224.281 167.771 225.175 167.771 226.195C167.771 227.215 167.543 228.115 167.087 228.895C166.643 229.663 166.037 230.257 165.269 230.677C164.501 231.097 163.649 231.307 162.713 231.307ZM162.713 229.867C163.301 229.867 163.853 229.729 164.369 229.453C164.885 229.177 165.299 228.763 165.611 228.211C165.935 227.659 166.097 226.987 166.097 226.195C166.097 225.403 165.941 224.731 165.629 224.179C165.317 223.627 164.909 223.219 164.405 222.955C163.901 222.679 163.355 222.541 162.767 222.541C162.167 222.541 161.615 222.679 161.111 222.955C160.619 223.219 160.223 223.627 159.923 224.179C159.623 224.731 159.473 225.403 159.473 226.195C159.473 226.999 159.617 227.677 159.905 228.229C160.205 228.781 160.601 229.195 161.093 229.471C161.585 229.735 162.125 229.867 162.713 229.867ZM178.673 221.281V231.145H177.035V229.687C176.723 230.191 176.285 230.587 175.721 230.875C175.169 231.151 174.557 231.289 173.885 231.289C173.117 231.289 172.427 231.133 171.815 230.821C171.203 230.497 170.717 230.017 170.357 229.381C170.009 228.745 169.835 227.971 169.835 227.059V221.281H171.455V226.843C171.455 227.815 171.701 228.565 172.193 229.093C172.685 229.609 173.357 229.867 174.209 229.867C175.085 229.867 175.775 229.597 176.279 229.057C176.783 228.517 177.035 227.731 177.035 226.699V221.281H178.673ZM185.507 221.119C186.359 221.119 187.103 221.305 187.739 221.677C188.387 222.049 188.867 222.517 189.179 223.081V221.281H190.835V231.361C190.835 232.261 190.643 233.059 190.259 233.755C189.875 234.463 189.323 235.015 188.603 235.411C187.895 235.807 187.067 236.005 186.119 236.005C184.823 236.005 183.743 235.699 182.879 235.087C182.015 234.475 181.505 233.641 181.349 232.585H182.969C183.149 233.185 183.521 233.665 184.085 234.025C184.649 234.397 185.327 234.583 186.119 234.583C187.019 234.583 187.751 234.301 188.315 233.737C188.891 233.173 189.179 232.381 189.179 231.361V229.291C188.855 229.867 188.375 230.347 187.739 230.731C187.103 231.115 186.359 231.307 185.507 231.307C184.631 231.307 183.833 231.091 183.113 230.659C182.405 230.227 181.847 229.621 181.439 228.841C181.031 228.061 180.827 227.173 180.827 226.177C180.827 225.169 181.031 224.287 181.439 223.531C181.847 222.763 182.405 222.169 183.113 221.749C183.833 221.329 184.631 221.119 185.507 221.119ZM189.179 226.195C189.179 225.451 189.029 224.803 188.729 224.251C188.429 223.699 188.021 223.279 187.505 222.991C187.001 222.691 186.443 222.541 185.831 222.541C185.219 222.541 184.661 222.685 184.157 222.973C183.653 223.261 183.251 223.681 182.951 224.233C182.651 224.785 182.501 225.433 182.501 226.177C182.501 226.933 182.651 227.593 182.951 228.157C183.251 228.709 183.653 229.135 184.157 229.435C184.661 229.723 185.219 229.867 185.831 229.867C186.443 229.867 187.001 229.723 187.505 229.435C188.021 229.135 188.429 228.709 188.729 228.157C189.029 227.593 189.179 226.939 189.179 226.195ZM198.499 221.101C199.243 221.101 199.915 221.263 200.515 221.587C201.115 221.899 201.583 222.373 201.919 223.009C202.267 223.645 202.441 224.419 202.441 225.331V231.145H200.821V225.565C200.821 224.581 200.575 223.831 200.083 223.315C199.591 222.787 198.919 222.523 198.067 222.523C197.203 222.523 196.513 222.793 195.997 223.333C195.493 223.873 195.241 224.659 195.241 225.691V231.145H193.603V217.825H195.241V222.685C195.565 222.181 196.009 221.791 196.573 221.515C197.149 221.239 197.791 221.101 198.499 221.101ZM73.9693 244.883C74.2573 244.319 74.6653 243.881 75.1933 243.569C75.7333 243.257 76.3873 243.101 77.1553 243.101V244.793H76.7233C74.8873 244.793 73.9693 245.789 73.9693 247.781V253.145H72.3313V243.281H73.9693V244.883ZM88.0462 247.835C88.0462 248.147 88.0282 248.477 87.9922 248.825H80.1082C80.1682 249.797 80.4982 250.559 81.0982 251.111C81.7102 251.651 82.4482 251.921 83.3122 251.921C84.0202 251.921 84.6082 251.759 85.0762 251.435C85.5562 251.099 85.8922 250.655 86.0842 250.103H87.8482C87.5842 251.051 87.0562 251.825 86.2642 252.425C85.4722 253.013 84.4882 253.307 83.3122 253.307C82.3762 253.307 81.5362 253.097 80.7922 252.677C80.0602 252.257 79.4842 251.663 79.0642 250.895C78.6442 250.115 78.4342 249.215 78.4342 248.195C78.4342 247.175 78.6382 246.281 79.0462 245.513C79.4542 244.745 80.0242 244.157 80.7562 243.749C81.5002 243.329 82.3522 243.119 83.3122 243.119C84.2482 243.119 85.0762 243.323 85.7962 243.731C86.5162 244.139 87.0682 244.703 87.4522 245.423C87.8482 246.131 88.0462 246.935 88.0462 247.835ZM86.3542 247.493C86.3542 246.869 86.2162 246.335 85.9402 245.891C85.6642 245.435 85.2862 245.093 84.8062 244.865C84.3382 244.625 83.8162 244.505 83.2402 244.505C82.4122 244.505 81.7042 244.769 81.1162 245.297C80.5402 245.825 80.2102 246.557 80.1262 247.493H86.3542ZM91.8463 245.099C92.1703 244.535 92.6503 244.067 93.2863 243.695C93.9343 243.311 94.6843 243.119 95.5363 243.119C96.4123 243.119 97.2043 243.329 97.9123 243.749C98.6323 244.169 99.1963 244.763 99.6043 245.531C100.012 246.287 100.216 247.169 100.216 248.177C100.216 249.173 100.012 250.061 99.6043 250.841C99.1963 251.621 98.6323 252.227 97.9123 252.659C97.2043 253.091 96.4123 253.307 95.5363 253.307C94.6963 253.307 93.9523 253.121 93.3043 252.749C92.6683 252.365 92.1823 251.891 91.8463 251.327V257.825H90.2083V243.281H91.8463V245.099ZM98.5423 248.177C98.5423 247.433 98.3923 246.785 98.0923 246.233C97.7923 245.681 97.3843 245.261 96.8683 244.973C96.3643 244.685 95.8063 244.541 95.1943 244.541C94.5943 244.541 94.0363 244.691 93.5203 244.991C93.0163 245.279 92.6083 245.705 92.2963 246.269C91.9963 246.821 91.8463 247.463 91.8463 248.195C91.8463 248.939 91.9963 249.593 92.2963 250.157C92.6083 250.709 93.0163 251.135 93.5203 251.435C94.0363 251.723 94.5943 251.867 95.1943 251.867C95.8063 251.867 96.3643 251.723 96.8683 251.435C97.3843 251.135 97.7923 250.709 98.0923 250.157C98.3923 249.593 98.5423 248.933 98.5423 248.177ZM106.674 253.307C105.75 253.307 104.91 253.097 104.154 252.677C103.41 252.257 102.822 251.663 102.39 250.895C101.97 250.115 101.76 249.215 101.76 248.195C101.76 247.187 101.976 246.299 102.408 245.531C102.852 244.751 103.452 244.157 104.208 243.749C104.964 243.329 105.81 243.119 106.746 243.119C107.682 243.119 108.528 243.329 109.284 243.749C110.04 244.157 110.634 244.745 111.066 245.513C111.51 246.281 111.732 247.175 111.732 248.195C111.732 249.215 111.504 250.115 111.048 250.895C110.604 251.663 109.998 252.257 109.23 252.677C108.462 253.097 107.61 253.307 106.674 253.307ZM106.674 251.867C107.262 251.867 107.814 251.729 108.33 251.453C108.846 251.177 109.26 250.763 109.572 250.211C109.896 249.659 110.058 248.987 110.058 248.195C110.058 247.403 109.902 246.731 109.59 246.179C109.278 245.627 108.87 245.219 108.366 244.955C107.862 244.679 107.316 244.541 106.728 244.541C106.128 244.541 105.576 244.679 105.072 244.955C104.58 245.219 104.184 245.627 103.884 246.179C103.584 246.731 103.434 247.403 103.434 248.195C103.434 248.999 103.578 249.677 103.866 250.229C104.166 250.781 104.562 251.195 105.054 251.471C105.546 251.735 106.086 251.867 106.674 251.867ZM115.524 244.883C115.812 244.319 116.22 243.881 116.748 243.569C117.288 243.257 117.942 243.101 118.71 243.101V244.793H118.278C116.442 244.793 115.524 245.789 115.524 247.781V253.145H113.886V243.281H115.524V244.883ZM122.599 244.631V250.445C122.599 250.925 122.701 251.267 122.905 251.471C123.109 251.663 123.463 251.759 123.967 251.759H125.173V253.145H123.697C122.785 253.145 122.101 252.935 121.645 252.515C121.189 252.095 120.961 251.405 120.961 250.445V244.631H119.683V243.281H120.961V240.797H122.599V243.281H125.173V244.631H122.599ZM128.003 241.679C127.691 241.679 127.427 241.571 127.211 241.355C126.995 241.139 126.887 240.875 126.887 240.563C126.887 240.251 126.995 239.987 127.211 239.771C127.427 239.555 127.691 239.447 128.003 239.447C128.303 239.447 128.555 239.555 128.759 239.771C128.975 239.987 129.083 240.251 129.083 240.563C129.083 240.875 128.975 241.139 128.759 241.355C128.555 241.571 128.303 241.679 128.003 241.679ZM128.795 243.281V253.145H127.157V243.281H128.795ZM136.393 243.101C137.593 243.101 138.565 243.467 139.309 244.199C140.053 244.919 140.425 245.963 140.425 247.331V253.145H138.805V247.565C138.805 246.581 138.559 245.831 138.067 245.315C137.575 244.787 136.903 244.523 136.051 244.523C135.187 244.523 134.497 244.793 133.981 245.333C133.477 245.873 133.225 246.659 133.225 247.691V253.145H131.587V243.281H133.225V244.685C133.549 244.181 133.987 243.791 134.539 243.515C135.103 243.239 135.721 243.101 136.393 243.101ZM147.169 243.119C148.021 243.119 148.765 243.305 149.401 243.677C150.049 244.049 150.529 244.517 150.841 245.081V243.281H152.497V253.361C152.497 254.261 152.305 255.059 151.921 255.755C151.537 256.463 150.985 257.015 150.265 257.411C149.557 257.807 148.729 258.005 147.781 258.005C146.485 258.005 145.405 257.699 144.541 257.087C143.677 256.475 143.167 255.641 143.011 254.585H144.631C144.811 255.185 145.183 255.665 145.747 256.025C146.311 256.397 146.989 256.583 147.781 256.583C148.681 256.583 149.413 256.301 149.977 255.737C150.553 255.173 150.841 254.381 150.841 253.361V251.291C150.517 251.867 150.037 252.347 149.401 252.731C148.765 253.115 148.021 253.307 147.169 253.307C146.293 253.307 145.495 253.091 144.775 252.659C144.067 252.227 143.509 251.621 143.101 250.841C142.693 250.061 142.489 249.173 142.489 248.177C142.489 247.169 142.693 246.287 143.101 245.531C143.509 244.763 144.067 244.169 144.775 243.749C145.495 243.329 146.293 243.119 147.169 243.119ZM150.841 248.195C150.841 247.451 150.691 246.803 150.391 246.251C150.091 245.699 149.683 245.279 149.167 244.991C148.663 244.691 148.105 244.541 147.493 244.541C146.881 244.541 146.323 244.685 145.819 244.973C145.315 245.261 144.913 245.681 144.613 246.233C144.313 246.785 144.163 247.433 144.163 248.177C144.163 248.933 144.313 249.593 144.613 250.157C144.913 250.709 145.315 251.135 145.819 251.435C146.323 251.723 146.881 251.867 147.493 251.867C148.105 251.867 148.663 251.723 149.167 251.435C149.683 251.135 150.091 250.709 150.391 250.157C150.691 249.593 150.841 248.939 150.841 248.195Z" fill="#002741"/>
</svg>
